<?xml version="1.0" encoding="UTF-8" standalone="no"?>
<!DOCTYPE svg PUBLIC "-//W3C//DTD SVG 1.1//EN"
 "http://www.w3.org/Graphics/SVG/1.1/DTD/svg11.dtd">
<!-- Generated by graphviz version 7.0.2 (20221119.0110)
 -->
<!-- Title: src/view/CanvasView.h Pages: 1 -->
<svg width="296pt" height="247pt"
 viewBox="0.00 0.00 296.44 247.00" xmlns="http://www.w3.org/2000/svg" xmlns:xlink="http://www.w3.org/1999/xlink">
<g id="graph0" class="graph" transform="scale(1 1) rotate(0) translate(4 243)">
<title>src/view/CanvasView.h</title>
<!-- Node1 -->
<g id="node1" class="node">
<title>Node1</title>
<g id="a_node1"><a xlink:title=" ">
<polygon fill="#999999" stroke="#666666" points="120.94,-239 1.94,-239 1.94,-220 120.94,-220 120.94,-239"/>
<text text-anchor="middle" x="61.44" y="-227" font-family="Helvetica,sans-Serif" font-size="10.00">src/view/CanvasView.h</text>
</a>
</g>
</g>
<!-- Node2 -->
<g id="node2" class="node">
<title>Node2</title>
<g id="a_node2"><a xlink:title=" ">
<polygon fill="#e0e0e0" stroke="#999999" points="86.94,-74 35.94,-74 35.94,-55 86.94,-55 86.94,-74"/>
<text text-anchor="middle" x="61.44" y="-62" font-family="Helvetica,sans-Serif" font-size="10.00">memory</text>
</a>
</g>
</g>
<!-- Node1&#45;&gt;Node2 -->
<g id="edge1" class="edge">
<title>Node1&#45;&gt;Node2</title>
<path fill="none" stroke="#63b8ff" d="M53.92,-219.67C40.43,-203.17 12.58,-165.99 2.44,-129 0.21,-120.86 -1.32,-117.56 2.44,-110 8.73,-97.39 20.48,-87.41 31.85,-80.12"/>
<polygon fill="#63b8ff" stroke="#63b8ff" points="33.43,-83.25 40.29,-75.18 29.89,-77.21 33.43,-83.25"/>
</g>
<!-- Node3 -->
<g id="node3" class="node">
<title>Node3</title>
<g id="a_node3"><a xlink:href="ICanvasService_8h.html" target="_top" xlink:title=" ">
<polygon fill="white" stroke="#666666" points="235.44,-184 95.44,-184 95.44,-165 235.44,-165 235.44,-184"/>
<text text-anchor="middle" x="165.44" y="-172" font-family="Helvetica,sans-Serif" font-size="10.00">../services/ICanvasService.h</text>
</a>
</g>
</g>
<!-- Node1&#45;&gt;Node3 -->
<g id="edge2" class="edge">
<title>Node1&#45;&gt;Node3</title>
<path fill="none" stroke="#63b8ff" d="M79.08,-219.51C95.17,-211.31 119.19,-199.07 137.82,-189.58"/>
<polygon fill="#63b8ff" stroke="#63b8ff" points="139.39,-192.7 146.71,-185.05 136.21,-186.47 139.39,-192.7"/>
</g>
<!-- Node4 -->
<g id="node4" class="node">
<title>Node4</title>
<g id="a_node4"><a xlink:href="Observable_8h.html" target="_top" xlink:title=" ">
<polygon fill="white" stroke="#666666" points="111.44,-129 11.44,-129 11.44,-110 111.44,-110 111.44,-129"/>
<text text-anchor="middle" x="61.44" y="-117" font-family="Helvetica,sans-Serif" font-size="10.00">types/Observable.h</text>
</a>
</g>
</g>
<!-- Node1&#45;&gt;Node4 -->
<g id="edge13" class="edge">
<title>Node1&#45;&gt;Node4</title>
<path fill="none" stroke="#63b8ff" d="M61.44,-219.66C61.44,-202.57 61.44,-164.61 61.44,-140.92"/>
<polygon fill="#63b8ff" stroke="#63b8ff" points="64.94,-140.97 61.44,-130.97 57.94,-140.97 64.94,-140.97"/>
</g>
<!-- Node3&#45;&gt;Node4 -->
<g id="edge3" class="edge">
<title>Node3&#45;&gt;Node4</title>
<path fill="none" stroke="#63b8ff" d="M147.8,-164.51C131.72,-156.31 107.69,-144.07 89.07,-134.58"/>
<polygon fill="#63b8ff" stroke="#63b8ff" points="90.67,-131.47 80.17,-130.05 87.49,-137.7 90.67,-131.47"/>
</g>
<!-- Node6 -->
<g id="node6" class="node">
<title>Node6</title>
<g id="a_node6"><a xlink:href="Canvas_8h.html" target="_top" xlink:title=" ">
<polygon fill="white" stroke="#666666" points="212.94,-129 129.94,-129 129.94,-110 212.94,-110 212.94,-129"/>
<text text-anchor="middle" x="171.44" y="-117" font-family="Helvetica,sans-Serif" font-size="10.00">types/Canvas.h</text>
</a>
</g>
</g>
<!-- Node3&#45;&gt;Node6 -->
<g id="edge6" class="edge">
<title>Node3&#45;&gt;Node6</title>
<path fill="none" stroke="#63b8ff" d="M166.43,-164.75C167.17,-158.19 168.22,-148.95 169.17,-140.6"/>
<polygon fill="#63b8ff" stroke="#63b8ff" points="172.61,-141.28 170.26,-130.95 165.66,-140.49 172.61,-141.28"/>
</g>
<!-- Node7 -->
<g id="node7" class="node">
<title>Node7</title>
<g id="a_node7"><a xlink:href="Shape_8h.html" target="_top" xlink:title=" ">
<polygon fill="white" stroke="#666666" points="257.94,-74 200.94,-74 200.94,-55 257.94,-55 257.94,-74"/>
<text text-anchor="middle" x="229.44" y="-62" font-family="Helvetica,sans-Serif" font-size="10.00">./Shape.h</text>
</a>
</g>
</g>
<!-- Node3&#45;&gt;Node7 -->
<g id="edge12" class="edge">
<title>Node3&#45;&gt;Node7</title>
<path fill="none" stroke="#63b8ff" d="M183.29,-164.62C196.46,-157.06 213.57,-144.9 222.44,-129 229.81,-115.79 231.32,-98.63 231.11,-85.48"/>
<polygon fill="#63b8ff" stroke="#63b8ff" points="234.63,-85.67 230.61,-75.87 227.64,-86.04 234.63,-85.67"/>
</g>
<!-- Node4&#45;&gt;Node2 -->
<g id="edge5" class="edge">
<title>Node4&#45;&gt;Node2</title>
<path fill="none" stroke="#63b8ff" d="M61.44,-109.75C61.44,-103.27 61.44,-94.16 61.44,-85.9"/>
<polygon fill="#63b8ff" stroke="#63b8ff" points="64.94,-85.96 61.44,-75.96 57.94,-85.96 64.94,-85.96"/>
</g>
<!-- Node5 -->
<g id="node5" class="node">
<title>Node5</title>
<g id="a_node5"><a xlink:title=" ">
<polygon fill="#e0e0e0" stroke="#999999" points="171.44,-74 127.44,-74 127.44,-55 171.44,-55 171.44,-74"/>
<text text-anchor="middle" x="149.44" y="-62" font-family="Helvetica,sans-Serif" font-size="10.00">vector</text>
</a>
</g>
</g>
<!-- Node4&#45;&gt;Node5 -->
<g id="edge4" class="edge">
<title>Node4&#45;&gt;Node5</title>
<path fill="none" stroke="#63b8ff" d="M76.37,-109.51C89.72,-101.47 109.55,-89.53 125.18,-80.11"/>
<polygon fill="#63b8ff" stroke="#63b8ff" points="126.68,-83.3 133.44,-75.14 123.07,-77.3 126.68,-83.3"/>
</g>
<!-- Node6&#45;&gt;Node2 -->
<g id="edge8" class="edge">
<title>Node6&#45;&gt;Node2</title>
<path fill="none" stroke="#63b8ff" d="M152.78,-109.51C135.61,-101.24 109.89,-88.84 90.11,-79.31"/>
<polygon fill="#63b8ff" stroke="#63b8ff" points="91.72,-76.2 81.19,-75.01 88.68,-82.51 91.72,-76.2"/>
</g>
<!-- Node6&#45;&gt;Node5 -->
<g id="edge7" class="edge">
<title>Node6&#45;&gt;Node5</title>
<path fill="none" stroke="#63b8ff" d="M167.81,-109.75C165.02,-103.04 161.07,-93.52 157.55,-85.02"/>
<polygon fill="#63b8ff" stroke="#63b8ff" points="160.8,-83.73 153.73,-75.84 154.33,-86.42 160.8,-83.73"/>
</g>
<!-- Node6&#45;&gt;Node7 -->
<g id="edge9" class="edge">
<title>Node6&#45;&gt;Node7</title>
<path fill="none" stroke="#63b8ff" d="M181.28,-109.51C189.5,-102 201.42,-91.1 211.35,-82.03"/>
<polygon fill="#63b8ff" stroke="#63b8ff" points="213.61,-84.71 218.63,-75.38 208.89,-79.54 213.61,-84.71"/>
</g>
<!-- Node8 -->
<g id="node8" class="node">
<title>Node8</title>
<g id="a_node8"><a xlink:title=" ">
<polygon fill="#e0e0e0" stroke="#999999" points="217.94,-19 176.94,-19 176.94,0 217.94,0 217.94,-19"/>
<text text-anchor="middle" x="197.44" y="-7" font-family="Helvetica,sans-Serif" font-size="10.00">string</text>
</a>
</g>
</g>
<!-- Node7&#45;&gt;Node8 -->
<g id="edge10" class="edge">
<title>Node7&#45;&gt;Node8</title>
<path fill="none" stroke="#63b8ff" d="M224.16,-54.75C219.97,-47.81 213.96,-37.86 208.71,-29.16"/>
<polygon fill="#63b8ff" stroke="#63b8ff" points="211.79,-27.49 203.62,-20.74 205.8,-31.11 211.79,-27.49"/>
</g>
<!-- Node9 -->
<g id="node9" class="node">
<title>Node9</title>
<g id="a_node9"><a xlink:href="Point_8h.html" target="_top" xlink:title=" ">
<polygon fill="white" stroke="#666666" points="288.44,-19 236.44,-19 236.44,0 288.44,0 288.44,-19"/>
<text text-anchor="middle" x="262.44" y="-7" font-family="Helvetica,sans-Serif" font-size="10.00">./Point.h</text>
</a>
</g>
</g>
<!-- Node7&#45;&gt;Node9 -->
<g id="edge11" class="edge">
<title>Node7&#45;&gt;Node9</title>
<path fill="none" stroke="#63b8ff" d="M234.89,-54.75C239.21,-47.81 245.4,-37.86 250.82,-29.16"/>
<polygon fill="#63b8ff" stroke="#63b8ff" points="253.76,-31.07 256.07,-20.73 247.82,-27.37 253.76,-31.07"/>
</g>
</g>
</svg>
