<?xml version="1.0" encoding="UTF-8" standalone="no"?>
<!DOCTYPE svg PUBLIC "-//W3C//DTD SVG 1.1//EN"
 "http://www.w3.org/Graphics/SVG/1.1/DTD/svg11.dtd">
<!-- Generated by graphviz version 7.0.2 (20221119.0110)
 -->
<!-- Title: src/types/Canvas.h Pages: 1 -->
<svg width="1205pt" height="324pt"
 viewBox="0.00 0.00 1205.00 324.00" xmlns="http://www.w3.org/2000/svg" xmlns:xlink="http://www.w3.org/1999/xlink">
<g id="graph0" class="graph" transform="scale(1 1) rotate(0) translate(4 320)">
<title>src/types/Canvas.h</title>
<!-- Node1 -->
<g id="node1" class="node">
<title>Node1</title>
<g id="a_node1"><a xlink:title=" ">
<polygon fill="#999999" stroke="#666666" points="987,-316 887,-316 887,-297 987,-297 987,-316"/>
<text text-anchor="middle" x="937" y="-304" font-family="Helvetica,sans-Serif" font-size="10.00">src/types/Canvas.h</text>
</a>
</g>
</g>
<!-- Node2 -->
<g id="node2" class="node">
<title>Node2</title>
<g id="a_node2"><a xlink:href="ICanvasService_8h.html" target="_top" xlink:title=" ">
<polygon fill="white" stroke="#666666" points="440.5,-206 291.5,-206 291.5,-187 440.5,-187 440.5,-206"/>
<text text-anchor="middle" x="366" y="-194" font-family="Helvetica,sans-Serif" font-size="10.00">src/services/ICanvasService.h</text>
</a>
</g>
</g>
<!-- Node1&#45;&gt;Node2 -->
<g id="edge1" class="edge">
<title>Node1&#45;&gt;Node2</title>
<path fill="none" stroke="#63b8ff" d="M878.59,-294.45C765.17,-273 517.17,-226.09 413.27,-206.44"/>
<polygon fill="#63b8ff" stroke="#63b8ff" points="877.82,-297.87 888.3,-296.29 879.12,-290.99 877.82,-297.87"/>
</g>
<!-- Node10 -->
<g id="node10" class="node">
<title>Node10</title>
<g id="a_node10"><a xlink:href="Canvas_8cpp.html" target="_top" xlink:title=" ">
<polygon fill="white" stroke="#666666" points="1121,-261 1011,-261 1011,-242 1121,-242 1121,-261"/>
<text text-anchor="middle" x="1066" y="-249" font-family="Helvetica,sans-Serif" font-size="10.00">src/types/Canvas.cpp</text>
</a>
</g>
</g>
<!-- Node1&#45;&gt;Node10 -->
<g id="edge12" class="edge">
<title>Node1&#45;&gt;Node10</title>
<path fill="none" stroke="#63b8ff" d="M969.39,-292.19C992.86,-282.55 1023.95,-269.78 1044.44,-261.36"/>
<polygon fill="#63b8ff" stroke="#63b8ff" points="968.2,-288.9 960.28,-295.93 970.86,-295.37 968.2,-288.9"/>
</g>
<!-- Node11 -->
<g id="node11" class="node">
<title>Node11</title>
<g id="a_node11"><a xlink:href="Document_8h.html" target="_top" xlink:title=" ">
<polygon fill="white" stroke="#666666" points="992.5,-261 881.5,-261 881.5,-242 992.5,-242 992.5,-261"/>
<text text-anchor="middle" x="937" y="-249" font-family="Helvetica,sans-Serif" font-size="10.00">src/types/Document.h</text>
</a>
</g>
</g>
<!-- Node1&#45;&gt;Node11 -->
<g id="edge13" class="edge">
<title>Node1&#45;&gt;Node11</title>
<path fill="none" stroke="#63b8ff" d="M937,-285.35C937,-277.1 937,-267.97 937,-261.44"/>
<polygon fill="#63b8ff" stroke="#63b8ff" points="933.5,-285.23 937,-295.23 940.5,-285.23 933.5,-285.23"/>
</g>
<!-- Node3 -->
<g id="node3" class="node">
<title>Node3</title>
<g id="a_node3"><a xlink:href="CanvasController_8h.html" target="_top" xlink:title=" ">
<polygon fill="white" stroke="#666666" points="163,-90.5 5,-90.5 5,-71.5 163,-71.5 163,-90.5"/>
<text text-anchor="middle" x="84" y="-78.5" font-family="Helvetica,sans-Serif" font-size="10.00">src/controller/CanvasController.h</text>
</a>
</g>
</g>
<!-- Node2&#45;&gt;Node3 -->
<g id="edge2" class="edge">
<title>Node2&#45;&gt;Node3</title>
<path fill="none" stroke="#63b8ff" d="M321.11,-183.52C292.61,-175.43 255.17,-163.9 223,-151 176.99,-132.56 125.31,-104.98 99.88,-90.93"/>
<polygon fill="#63b8ff" stroke="#63b8ff" points="319.93,-186.82 330.5,-186.15 321.81,-180.08 319.93,-186.82"/>
</g>
<!-- Node6 -->
<g id="node6" class="node">
<title>Node6</title>
<g id="a_node6"><a xlink:href="CanvasService_8h.html" target="_top" xlink:title=" ">
<polygon fill="white" stroke="#666666" points="582,-151 436,-151 436,-132 582,-132 582,-151"/>
<text text-anchor="middle" x="509" y="-139" font-family="Helvetica,sans-Serif" font-size="10.00">src/services/CanvasService.h</text>
</a>
</g>
</g>
<!-- Node2&#45;&gt;Node6 -->
<g id="edge5" class="edge">
<title>Node2&#45;&gt;Node6</title>
<path fill="none" stroke="#63b8ff" d="M400.85,-182.58C426.99,-172.9 462.08,-159.89 485.1,-151.36"/>
<polygon fill="#63b8ff" stroke="#63b8ff" points="399.84,-179.23 391.68,-185.98 402.27,-185.79 399.84,-179.23"/>
</g>
<!-- Node8 -->
<g id="node8" class="node">
<title>Node8</title>
<g id="a_node8"><a xlink:href="CanvasView_8h.html" target="_top" xlink:title=" ">
<polygon fill="white" stroke="#666666" points="351.5,-151 232.5,-151 232.5,-132 351.5,-132 351.5,-151"/>
<text text-anchor="middle" x="292" y="-139" font-family="Helvetica,sans-Serif" font-size="10.00">src/view/CanvasView.h</text>
</a>
</g>
</g>
<!-- Node2&#45;&gt;Node8 -->
<g id="edge8" class="edge">
<title>Node2&#45;&gt;Node8</title>
<path fill="none" stroke="#63b8ff" d="M344.24,-179.92C331.25,-170.61 315.22,-159.13 304.37,-151.36"/>
<polygon fill="#63b8ff" stroke="#63b8ff" points="342.05,-182.65 352.22,-185.63 346.12,-176.96 342.05,-182.65"/>
</g>
<!-- Node4 -->
<g id="node4" class="node">
<title>Node4</title>
<g id="a_node4"><a xlink:href="CanvasController_8cpp.html" target="_top" xlink:title=" ">
<polygon fill="white" stroke="#666666" points="168,-24.5 0,-24.5 0,-5.5 168,-5.5 168,-24.5"/>
<text text-anchor="middle" x="84" y="-12.5" font-family="Helvetica,sans-Serif" font-size="10.00">src/controller/CanvasController.cpp</text>
</a>
</g>
</g>
<!-- Node3&#45;&gt;Node4 -->
<g id="edge3" class="edge">
<title>Node3&#45;&gt;Node4</title>
<path fill="none" stroke="#63b8ff" d="M84,-59.68C84,-47.94 84,-33.77 84,-24.82"/>
<polygon fill="#63b8ff" stroke="#63b8ff" points="80.5,-59.59 84,-69.59 87.5,-59.59 80.5,-59.59"/>
</g>
<!-- Node5 -->
<g id="node5" class="node">
<title>Node5</title>
<g id="a_node5"><a xlink:href="main_8cpp.html" target="_top" xlink:title=" ">
<polygon fill="white" stroke="#666666" points="608,-24.5 536,-24.5 536,-5.5 608,-5.5 608,-24.5"/>
<text text-anchor="middle" x="572" y="-12.5" font-family="Helvetica,sans-Serif" font-size="10.00">src/main.cpp</text>
</a>
</g>
</g>
<!-- Node3&#45;&gt;Node5 -->
<g id="edge4" class="edge">
<title>Node3&#45;&gt;Node5</title>
<path fill="none" stroke="#63b8ff" d="M149.73,-69.3C157.23,-68.15 164.78,-67.03 172,-66 305.73,-47.01 465.17,-28.23 535.55,-20.14"/>
<polygon fill="#63b8ff" stroke="#63b8ff" points="149.25,-65.83 139.91,-70.82 150.32,-72.75 149.25,-65.83"/>
</g>
<!-- Node6&#45;&gt;Node5 -->
<g id="edge6" class="edge">
<title>Node6&#45;&gt;Node5</title>
<path fill="none" stroke="#63b8ff" d="M519.9,-121.76C524.39,-113.88 529.57,-104.56 534,-96 547.15,-70.6 561.25,-39.88 567.98,-24.98"/>
<polygon fill="#63b8ff" stroke="#63b8ff" points="516.87,-120.01 514.92,-130.42 522.94,-123.5 516.87,-120.01"/>
</g>
<!-- Node7 -->
<g id="node7" class="node">
<title>Node7</title>
<g id="a_node7"><a xlink:href="CanvasService_8cpp.html" target="_top" xlink:title=" ">
<polygon fill="white" stroke="#666666" points="524.5,-90.5 367.5,-90.5 367.5,-71.5 524.5,-71.5 524.5,-90.5"/>
<text text-anchor="middle" x="446" y="-78.5" font-family="Helvetica,sans-Serif" font-size="10.00">src/services/CanvasService.cpp</text>
</a>
</g>
</g>
<!-- Node6&#45;&gt;Node7 -->
<g id="edge7" class="edge">
<title>Node6&#45;&gt;Node7</title>
<path fill="none" stroke="#63b8ff" d="M491,-123.78C479.5,-113.1 465.03,-99.67 455.66,-90.97"/>
<polygon fill="#63b8ff" stroke="#63b8ff" points="488.61,-126.35 498.32,-130.59 493.38,-121.22 488.61,-126.35"/>
</g>
<!-- Node8&#45;&gt;Node3 -->
<g id="edge9" class="edge">
<title>Node8&#45;&gt;Node3</title>
<path fill="none" stroke="#63b8ff" d="M249.51,-128.55C209.89,-117.41 151.67,-101.03 115.89,-90.97"/>
<polygon fill="#63b8ff" stroke="#63b8ff" points="248.38,-131.87 258.95,-131.21 250.27,-125.13 248.38,-131.87"/>
</g>
<!-- Node8&#45;&gt;Node5 -->
<g id="edge10" class="edge">
<title>Node8&#45;&gt;Node5</title>
<path fill="none" stroke="#63b8ff" d="M303.69,-122.05C315.54,-104.89 335.45,-79.94 359,-66 414.9,-32.91 491.15,-21.72 535.63,-17.93"/>
<polygon fill="#63b8ff" stroke="#63b8ff" points="300.83,-120.02 298.23,-130.29 306.67,-123.89 300.83,-120.02"/>
</g>
<!-- Node9 -->
<g id="node9" class="node">
<title>Node9</title>
<g id="a_node9"><a xlink:href="CanvasView_8cpp.html" target="_top" xlink:title=" ">
<polygon fill="white" stroke="#666666" points="310.5,-90.5 181.5,-90.5 181.5,-71.5 310.5,-71.5 310.5,-90.5"/>
<text text-anchor="middle" x="246" y="-78.5" font-family="Helvetica,sans-Serif" font-size="10.00">src/view/CanvasView.cpp</text>
</a>
</g>
</g>
<!-- Node8&#45;&gt;Node9 -->
<g id="edge11" class="edge">
<title>Node8&#45;&gt;Node9</title>
<path fill="none" stroke="#63b8ff" d="M278.22,-122.98C269.83,-112.31 259.48,-99.15 252.82,-90.67"/>
<polygon fill="#63b8ff" stroke="#63b8ff" points="275.34,-124.98 284.28,-130.68 280.85,-120.65 275.34,-124.98"/>
</g>
<!-- Node12 -->
<g id="node12" class="node">
<title>Node12</title>
<g id="a_node12"><a xlink:href="DocumentsService_8cpp.html" target="_top" xlink:title=" ">
<polygon fill="white" stroke="#666666" points="1138.5,-90.5 965.5,-90.5 965.5,-71.5 1138.5,-71.5 1138.5,-90.5"/>
<text text-anchor="middle" x="1052" y="-78.5" font-family="Helvetica,sans-Serif" font-size="10.00">src/services/DocumentsService.cpp</text>
</a>
</g>
</g>
<!-- Node11&#45;&gt;Node12 -->
<g id="edge14" class="edge">
<title>Node11&#45;&gt;Node12</title>
<path fill="none" stroke="#63b8ff" d="M955.91,-234.22C976.22,-215.83 1008.24,-184.13 1028,-151 1039.82,-131.17 1046.97,-104.66 1050.11,-90.99"/>
<polygon fill="#63b8ff" stroke="#63b8ff" points="953.78,-231.43 948.62,-240.68 958.42,-236.67 953.78,-231.43"/>
</g>
<!-- Node13 -->
<g id="node13" class="node">
<title>Node13</title>
<g id="a_node13"><a xlink:href="IDocumentsService_8h.html" target="_top" xlink:title=" ">
<polygon fill="white" stroke="#666666" points="910,-206 744,-206 744,-187 910,-187 910,-206"/>
<text text-anchor="middle" x="827" y="-194" font-family="Helvetica,sans-Serif" font-size="10.00">src/services/IDocumentsService.h</text>
</a>
</g>
</g>
<!-- Node11&#45;&gt;Node13 -->
<g id="edge15" class="edge">
<title>Node11&#45;&gt;Node13</title>
<path fill="none" stroke="#63b8ff" d="M908.01,-236.53C888.17,-226.97 862.46,-214.59 845.38,-206.36"/>
<polygon fill="#63b8ff" stroke="#63b8ff" points="906.45,-239.66 916.98,-240.85 909.49,-233.36 906.45,-239.66"/>
</g>
<!-- Node19 -->
<g id="node19" class="node">
<title>Node19</title>
<g id="a_node19"><a xlink:href="Document_8cpp.html" target="_top" xlink:title=" ">
<polygon fill="white" stroke="#666666" points="1197,-206 1075,-206 1075,-187 1197,-187 1197,-206"/>
<text text-anchor="middle" x="1136" y="-194" font-family="Helvetica,sans-Serif" font-size="10.00">src/types/Document.cpp</text>
</a>
</g>
</g>
<!-- Node11&#45;&gt;Node19 -->
<g id="edge27" class="edge">
<title>Node11&#45;&gt;Node19</title>
<path fill="none" stroke="#63b8ff" d="M981.61,-238.62C1018.2,-228.87 1069.21,-215.29 1102.41,-206.45"/>
<polygon fill="#63b8ff" stroke="#63b8ff" points="980.98,-235.16 972.22,-241.12 982.78,-241.93 980.98,-235.16"/>
</g>
<!-- Node13&#45;&gt;Node6 -->
<g id="edge19" class="edge">
<title>Node13&#45;&gt;Node6</title>
<path fill="none" stroke="#63b8ff" d="M762.05,-184.68C703.36,-174.89 617.96,-160.66 562.94,-151.49"/>
<polygon fill="#63b8ff" stroke="#63b8ff" points="761.12,-188.07 771.56,-186.26 762.27,-181.16 761.12,-188.07"/>
</g>
<!-- Node14 -->
<g id="node14" class="node">
<title>Node14</title>
<g id="a_node14"><a xlink:href="DocumentsController_8h.html" target="_top" xlink:title=" ">
<polygon fill="white" stroke="#666666" points="908.5,-96 783.5,-96 783.5,-66 908.5,-66 908.5,-96"/>
<text text-anchor="start" x="791.5" y="-84" font-family="Helvetica,sans-Serif" font-size="10.00">src/controller/Documents</text>
<text text-anchor="middle" x="846" y="-73" font-family="Helvetica,sans-Serif" font-size="10.00">Controller.h</text>
</a>
</g>
</g>
<!-- Node13&#45;&gt;Node14 -->
<g id="edge16" class="edge">
<title>Node13&#45;&gt;Node14</title>
<path fill="none" stroke="#63b8ff" d="M830.38,-175.31C834.17,-152.65 840.24,-116.44 843.58,-96.44"/>
<polygon fill="#63b8ff" stroke="#63b8ff" points="826.94,-174.66 828.74,-185.1 833.84,-175.82 826.94,-174.66"/>
</g>
<!-- Node16 -->
<g id="node16" class="node">
<title>Node16</title>
<g id="a_node16"><a xlink:href="DocumentsService_8h.html" target="_top" xlink:title=" ">
<polygon fill="white" stroke="#666666" points="1018.5,-151 855.5,-151 855.5,-132 1018.5,-132 1018.5,-151"/>
<text text-anchor="middle" x="937" y="-139" font-family="Helvetica,sans-Serif" font-size="10.00">src/services/DocumentsService.h</text>
</a>
</g>
</g>
<!-- Node13&#45;&gt;Node16 -->
<g id="edge20" class="edge">
<title>Node13&#45;&gt;Node16</title>
<path fill="none" stroke="#63b8ff" d="M855.99,-181.53C875.83,-171.97 901.54,-159.59 918.62,-151.36"/>
<polygon fill="#63b8ff" stroke="#63b8ff" points="854.51,-178.36 847.02,-185.85 857.55,-184.66 854.51,-178.36"/>
</g>
<!-- Node17 -->
<g id="node17" class="node">
<title>Node17</title>
<g id="a_node17"><a xlink:href="DocumentsView_8h.html" target="_top" xlink:title=" ">
<polygon fill="white" stroke="#666666" points="778.5,-151 643.5,-151 643.5,-132 778.5,-132 778.5,-151"/>
<text text-anchor="middle" x="711" y="-139" font-family="Helvetica,sans-Serif" font-size="10.00">src/view/DocumentsView.h</text>
</a>
</g>
</g>
<!-- Node13&#45;&gt;Node17 -->
<g id="edge23" class="edge">
<title>Node13&#45;&gt;Node17</title>
<path fill="none" stroke="#63b8ff" d="M797.01,-181.8C776.01,-172.2 748.56,-159.66 730.39,-151.36"/>
<polygon fill="#63b8ff" stroke="#63b8ff" points="795.4,-184.91 805.95,-185.88 798.3,-178.54 795.4,-184.91"/>
</g>
<!-- Node14&#45;&gt;Node5 -->
<g id="edge18" class="edge">
<title>Node14&#45;&gt;Node5</title>
<path fill="none" stroke="#63b8ff" d="M773.1,-62.97C719.97,-50.56 650.23,-34.27 608.39,-24.5"/>
<polygon fill="#63b8ff" stroke="#63b8ff" points="772.16,-66.35 782.69,-65.21 773.75,-59.53 772.16,-66.35"/>
</g>
<!-- Node15 -->
<g id="node15" class="node">
<title>Node15</title>
<g id="a_node15"><a xlink:href="DocumentsController_8cpp.html" target="_top" xlink:title=" ">
<polygon fill="white" stroke="#666666" points="908.5,-30 783.5,-30 783.5,0 908.5,0 908.5,-30"/>
<text text-anchor="start" x="791.5" y="-18" font-family="Helvetica,sans-Serif" font-size="10.00">src/controller/Documents</text>
<text text-anchor="middle" x="846" y="-7" font-family="Helvetica,sans-Serif" font-size="10.00">Controller.cpp</text>
</a>
</g>
</g>
<!-- Node14&#45;&gt;Node15 -->
<g id="edge17" class="edge">
<title>Node14&#45;&gt;Node15</title>
<path fill="none" stroke="#63b8ff" d="M846,-54.39C846,-46.13 846,-37.28 846,-30.16"/>
<polygon fill="#63b8ff" stroke="#63b8ff" points="842.5,-54.28 846,-64.28 849.5,-54.28 842.5,-54.28"/>
</g>
<!-- Node16&#45;&gt;Node5 -->
<g id="edge21" class="edge">
<title>Node16&#45;&gt;Node5</title>
<path fill="none" stroke="#63b8ff" d="M937.6,-120.12C936.93,-103.1 933.03,-79.51 918,-66 895.18,-45.48 692.46,-26.18 608.34,-18.97"/>
<polygon fill="#63b8ff" stroke="#63b8ff" points="934.1,-120.07 937.62,-130.07 941.1,-120.06 934.1,-120.07"/>
</g>
<!-- Node16&#45;&gt;Node12 -->
<g id="edge22" class="edge">
<title>Node16&#45;&gt;Node12</title>
<path fill="none" stroke="#63b8ff" d="M964.69,-126.42C986.35,-115.4 1015.81,-100.41 1034.37,-90.97"/>
<polygon fill="#63b8ff" stroke="#63b8ff" points="963.14,-123.28 955.82,-130.93 966.32,-129.51 963.14,-123.28"/>
</g>
<!-- Node17&#45;&gt;Node5 -->
<g id="edge25" class="edge">
<title>Node17&#45;&gt;Node5</title>
<path fill="none" stroke="#63b8ff" d="M664.41,-127.83C645.7,-120.88 625.05,-110.62 610,-96 588.94,-75.53 578.15,-41.07 574.03,-24.89"/>
<polygon fill="#63b8ff" stroke="#63b8ff" points="663.12,-131.09 673.72,-131.05 665.41,-124.47 663.12,-131.09"/>
</g>
<!-- Node17&#45;&gt;Node14 -->
<g id="edge24" class="edge">
<title>Node17&#45;&gt;Node14</title>
<path fill="none" stroke="#63b8ff" d="M741.86,-127.13C763,-117.96 791.03,-105.82 812.68,-96.44"/>
<polygon fill="#63b8ff" stroke="#63b8ff" points="740.68,-123.83 732.89,-131.01 743.46,-130.25 740.68,-123.83"/>
</g>
<!-- Node18 -->
<g id="node18" class="node">
<title>Node18</title>
<g id="a_node18"><a xlink:href="DocumentsView_8cpp.html" target="_top" xlink:title=" ">
<polygon fill="white" stroke="#666666" points="765,-90.5 619,-90.5 619,-71.5 765,-71.5 765,-90.5"/>
<text text-anchor="middle" x="692" y="-78.5" font-family="Helvetica,sans-Serif" font-size="10.00">src/view/DocumentsView.cpp</text>
</a>
</g>
</g>
<!-- Node17&#45;&gt;Node18 -->
<g id="edge26" class="edge">
<title>Node17&#45;&gt;Node18</title>
<path fill="none" stroke="#63b8ff" d="M704.66,-120.99C701.33,-110.72 697.4,-98.63 694.82,-90.67"/>
<polygon fill="#63b8ff" stroke="#63b8ff" points="701.31,-122 707.73,-130.43 707.97,-119.84 701.31,-122"/>
</g>
</g>
</svg>
