<?xml version="1.0" encoding="UTF-8" standalone="no"?>
<!DOCTYPE svg PUBLIC "-//W3C//DTD SVG 1.1//EN"
 "http://www.w3.org/Graphics/SVG/1.1/DTD/svg11.dtd">
<!-- Generated by graphviz version 7.0.2 (20221119.0110)
 -->
<!-- Title: src/view/CanvasView.h Pages: 1 -->
<svg width="388pt" height="137pt"
 viewBox="0.00 0.00 387.50 137.00" xmlns="http://www.w3.org/2000/svg" xmlns:xlink="http://www.w3.org/1999/xlink">
<g id="graph0" class="graph" transform="scale(1 1) rotate(0) translate(4 133)">
<title>src/view/CanvasView.h</title>
<!-- Node1 -->
<g id="node1" class="node">
<title>Node1</title>
<g id="a_node1"><a xlink:title=" ">
<polygon fill="#999999" stroke="#666666" points="281.5,-129 162.5,-129 162.5,-110 281.5,-110 281.5,-129"/>
<text text-anchor="middle" x="222" y="-117" font-family="Helvetica,sans-Serif" font-size="10.00">src/view/CanvasView.h</text>
</a>
</g>
</g>
<!-- Node2 -->
<g id="node2" class="node">
<title>Node2</title>
<g id="a_node2"><a xlink:href="CanvasController_8h.html" target="_top" xlink:title=" ">
<polygon fill="white" stroke="#666666" points="194,-74 36,-74 36,-55 194,-55 194,-74"/>
<text text-anchor="middle" x="115" y="-62" font-family="Helvetica,sans-Serif" font-size="10.00">src/controller/CanvasController.h</text>
</a>
</g>
</g>
<!-- Node1&#45;&gt;Node2 -->
<g id="edge1" class="edge">
<title>Node1&#45;&gt;Node2</title>
<path fill="none" stroke="#63b8ff" d="M193.54,-104.4C174.27,-94.86 149.42,-82.55 132.88,-74.36"/>
<polygon fill="#63b8ff" stroke="#63b8ff" points="191.98,-107.54 202.49,-108.84 195.09,-101.26 191.98,-107.54"/>
</g>
<!-- Node4 -->
<g id="node4" class="node">
<title>Node4</title>
<g id="a_node4"><a xlink:href="main_8cpp.html" target="_top" xlink:title=" ">
<polygon fill="white" stroke="#666666" points="258,-19 186,-19 186,0 258,0 258,-19"/>
<text text-anchor="middle" x="222" y="-7" font-family="Helvetica,sans-Serif" font-size="10.00">src/main.cpp</text>
</a>
</g>
</g>
<!-- Node1&#45;&gt;Node4 -->
<g id="edge4" class="edge">
<title>Node1&#45;&gt;Node4</title>
<path fill="none" stroke="#63b8ff" d="M222,-98.24C222,-74.63 222,-36.65 222,-19.46"/>
<polygon fill="#63b8ff" stroke="#63b8ff" points="218.5,-98.15 222,-108.15 225.5,-98.15 218.5,-98.15"/>
</g>
<!-- Node5 -->
<g id="node5" class="node">
<title>Node5</title>
<g id="a_node5"><a xlink:href="CanvasView_8cpp.html" target="_top" xlink:title=" ">
<polygon fill="white" stroke="#666666" points="379.5,-74 250.5,-74 250.5,-55 379.5,-55 379.5,-74"/>
<text text-anchor="middle" x="315" y="-62" font-family="Helvetica,sans-Serif" font-size="10.00">src/view/CanvasView.cpp</text>
</a>
</g>
</g>
<!-- Node1&#45;&gt;Node5 -->
<g id="edge5" class="edge">
<title>Node1&#45;&gt;Node5</title>
<path fill="none" stroke="#63b8ff" d="M247.44,-104C264.08,-94.52 285.29,-82.43 299.46,-74.36"/>
<polygon fill="#63b8ff" stroke="#63b8ff" points="246.05,-100.77 239.09,-108.76 249.51,-106.85 246.05,-100.77"/>
</g>
<!-- Node3 -->
<g id="node3" class="node">
<title>Node3</title>
<g id="a_node3"><a xlink:href="CanvasController_8cpp.html" target="_top" xlink:title=" ">
<polygon fill="white" stroke="#666666" points="168,-19 0,-19 0,0 168,0 168,-19"/>
<text text-anchor="middle" x="84" y="-7" font-family="Helvetica,sans-Serif" font-size="10.00">src/controller/CanvasController.cpp</text>
</a>
</g>
</g>
<!-- Node2&#45;&gt;Node3 -->
<g id="edge2" class="edge">
<title>Node2&#45;&gt;Node3</title>
<path fill="none" stroke="#63b8ff" d="M104.22,-45.08C99.15,-36.4 93.32,-26.44 89.23,-19.44"/>
<polygon fill="#63b8ff" stroke="#63b8ff" points="101.05,-46.58 109.12,-53.44 107.09,-43.04 101.05,-46.58"/>
</g>
<!-- Node2&#45;&gt;Node4 -->
<g id="edge3" class="edge">
<title>Node2&#45;&gt;Node4</title>
<path fill="none" stroke="#63b8ff" d="M143.46,-49.4C162.73,-39.86 187.58,-27.55 204.12,-19.36"/>
<polygon fill="#63b8ff" stroke="#63b8ff" points="141.91,-46.26 134.51,-53.84 145.02,-52.54 141.91,-46.26"/>
</g>
</g>
</svg>
