<?xml version="1.0" encoding="UTF-8" standalone="no"?>
<!DOCTYPE svg PUBLIC "-//W3C//DTD SVG 1.1//EN"
 "http://www.w3.org/Graphics/SVG/1.1/DTD/svg11.dtd">
<!-- Generated by graphviz version 7.0.2 (20221119.0110)
 -->
<!-- Title: src/services/CanvasService.h Pages: 1 -->
<svg width="256pt" height="82pt"
 viewBox="0.00 0.00 255.50 82.00" xmlns="http://www.w3.org/2000/svg" xmlns:xlink="http://www.w3.org/1999/xlink">
<g id="graph0" class="graph" transform="scale(1 1) rotate(0) translate(4 78)">
<title>src/services/CanvasService.h</title>
<!-- Node1 -->
<g id="node1" class="node">
<title>Node1</title>
<g id="a_node1"><a xlink:title=" ">
<polygon fill="#999999" stroke="#666666" points="175,-74 29,-74 29,-55 175,-55 175,-74"/>
<text text-anchor="middle" x="102" y="-62" font-family="Helvetica,sans-Serif" font-size="10.00">src/services/CanvasService.h</text>
</a>
</g>
</g>
<!-- Node2 -->
<g id="node2" class="node">
<title>Node2</title>
<g id="a_node2"><a xlink:href="main_8cpp.html" target="_top" xlink:title=" ">
<polygon fill="white" stroke="#666666" points="72,-19 0,-19 0,0 72,0 72,-19"/>
<text text-anchor="middle" x="36" y="-7" font-family="Helvetica,sans-Serif" font-size="10.00">src/main.cpp</text>
</a>
</g>
</g>
<!-- Node1&#45;&gt;Node2 -->
<g id="edge1" class="edge">
<title>Node1&#45;&gt;Node2</title>
<path fill="none" stroke="#63b8ff" d="M81.91,-47.37C70.45,-38.16 56.52,-26.98 47.03,-19.36"/>
<polygon fill="#63b8ff" stroke="#63b8ff" points="79.64,-50.03 89.62,-53.56 84.02,-44.57 79.64,-50.03"/>
</g>
<!-- Node3 -->
<g id="node3" class="node">
<title>Node3</title>
<g id="a_node3"><a xlink:href="CanvasService_8cpp.html" target="_top" xlink:title=" ">
<polygon fill="white" stroke="#666666" points="247.5,-19 90.5,-19 90.5,0 247.5,0 247.5,-19"/>
<text text-anchor="middle" x="169" y="-7" font-family="Helvetica,sans-Serif" font-size="10.00">src/services/CanvasService.cpp</text>
</a>
</g>
</g>
<!-- Node1&#45;&gt;Node3 -->
<g id="edge2" class="edge">
<title>Node1&#45;&gt;Node3</title>
<path fill="none" stroke="#63b8ff" d="M122.05,-47.64C133.75,-38.39 148.07,-27.05 157.8,-19.36"/>
<polygon fill="#63b8ff" stroke="#63b8ff" points="120.22,-44.62 114.55,-53.57 124.57,-50.11 120.22,-44.62"/>
</g>
</g>
</svg>
