<?xml version="1.0" encoding="UTF-8" standalone="no"?>
<!DOCTYPE svg PUBLIC "-//W3C//DTD SVG 1.1//EN"
 "http://www.w3.org/Graphics/SVG/1.1/DTD/svg11.dtd">
<!-- Generated by graphviz version 7.0.2 (20221119.0110)
 -->
<!-- Title: src/controller/CanvasController.h Pages: 1 -->
<svg width="328pt" height="302pt"
 viewBox="0.00 0.00 327.58 302.00" xmlns="http://www.w3.org/2000/svg" xmlns:xlink="http://www.w3.org/1999/xlink">
<g id="graph0" class="graph" transform="scale(1 1) rotate(0) translate(4 298)">
<title>src/controller/CanvasController.h</title>
<!-- Node1 -->
<g id="node1" class="node">
<title>Node1</title>
<g id="a_node1"><a xlink:title=" ">
<polygon fill="#999999" stroke="#666666" points="213.58,-294 55.58,-294 55.58,-275 213.58,-275 213.58,-294"/>
<text text-anchor="middle" x="134.58" y="-282" font-family="Helvetica,sans-Serif" font-size="10.00">src/controller/CanvasController.h</text>
</a>
</g>
</g>
<!-- Node2 -->
<g id="node2" class="node">
<title>Node2</title>
<g id="a_node2"><a xlink:title=" ">
<polygon fill="#e0e0e0" stroke="#999999" points="71.08,-74 20.08,-74 20.08,-55 71.08,-55 71.08,-74"/>
<text text-anchor="middle" x="45.58" y="-62" font-family="Helvetica,sans-Serif" font-size="10.00">memory</text>
</a>
</g>
</g>
<!-- Node1&#45;&gt;Node2 -->
<g id="edge1" class="edge">
<title>Node1&#45;&gt;Node2</title>
<path fill="none" stroke="#63b8ff" d="M77.92,-274.57C56.79,-268.24 34.76,-257.44 21.58,-239 -11.79,-192.32 0.24,-165 16.58,-110 19.43,-100.41 25.07,-90.96 30.62,-83.25"/>
<polygon fill="#63b8ff" stroke="#63b8ff" points="33.32,-85.49 36.7,-75.45 27.8,-81.18 33.32,-85.49"/>
</g>
<!-- Node3 -->
<g id="node3" class="node">
<title>Node3</title>
<g id="a_node3"><a xlink:href="ICanvasService_8h.html" target="_top" xlink:title=" ">
<polygon fill="white" stroke="#666666" points="249.58,-184 109.58,-184 109.58,-165 249.58,-165 249.58,-184"/>
<text text-anchor="middle" x="179.58" y="-172" font-family="Helvetica,sans-Serif" font-size="10.00">../services/ICanvasService.h</text>
</a>
</g>
</g>
<!-- Node1&#45;&gt;Node3 -->
<g id="edge2" class="edge">
<title>Node1&#45;&gt;Node3</title>
<path fill="none" stroke="#63b8ff" d="M138.26,-274.66C145.48,-257.34 161.64,-218.55 171.47,-194.95"/>
<polygon fill="#63b8ff" stroke="#63b8ff" points="174.65,-196.43 175.26,-185.86 168.18,-193.74 174.65,-196.43"/>
</g>
<!-- Node7 -->
<g id="node7" class="node">
<title>Node7</title>
<g id="a_node7"><a xlink:href="Shape_8h.html" target="_top" xlink:title=" ">
<polygon fill="white" stroke="#666666" points="290.08,-74 233.08,-74 233.08,-55 290.08,-55 290.08,-74"/>
<text text-anchor="middle" x="261.58" y="-62" font-family="Helvetica,sans-Serif" font-size="10.00">./Shape.h</text>
</a>
</g>
</g>
<!-- Node1&#45;&gt;Node7 -->
<g id="edge17" class="edge">
<title>Node1&#45;&gt;Node7</title>
<path fill="none" stroke="#63b8ff" d="M154.02,-274.62C182.87,-260.24 236.03,-228.89 258.58,-184 274.39,-152.52 270.4,-110.16 266.02,-85.55"/>
<polygon fill="#63b8ff" stroke="#63b8ff" points="269.48,-85.04 264.09,-75.92 262.62,-86.42 269.48,-85.04"/>
</g>
<!-- Node10 -->
<g id="node10" class="node">
<title>Node10</title>
<g id="a_node10"><a xlink:href="CanvasView_8h.html" target="_top" xlink:title=" ">
<polygon fill="white" stroke="#666666" points="140.58,-239 30.58,-239 30.58,-220 140.58,-220 140.58,-239"/>
<text text-anchor="middle" x="85.58" y="-227" font-family="Helvetica,sans-Serif" font-size="10.00">../view/CanvasView.h</text>
</a>
</g>
</g>
<!-- Node1&#45;&gt;Node10 -->
<g id="edge13" class="edge">
<title>Node1&#45;&gt;Node10</title>
<path fill="none" stroke="#63b8ff" d="M126.49,-274.75C119.72,-267.43 109.86,-256.76 101.51,-247.74"/>
<polygon fill="#63b8ff" stroke="#63b8ff" points="104.23,-245.52 94.87,-240.55 99.09,-250.27 104.23,-245.52"/>
</g>
<!-- Node4 -->
<g id="node4" class="node">
<title>Node4</title>
<g id="a_node4"><a xlink:href="Observable_8h.html" target="_top" xlink:title=" ">
<polygon fill="white" stroke="#666666" points="131.58,-129 31.58,-129 31.58,-110 131.58,-110 131.58,-129"/>
<text text-anchor="middle" x="81.58" y="-117" font-family="Helvetica,sans-Serif" font-size="10.00">types/Observable.h</text>
</a>
</g>
</g>
<!-- Node3&#45;&gt;Node4 -->
<g id="edge3" class="edge">
<title>Node3&#45;&gt;Node4</title>
<path fill="none" stroke="#63b8ff" d="M162.95,-164.51C147.8,-156.31 125.16,-144.07 107.61,-134.58"/>
<polygon fill="#63b8ff" stroke="#63b8ff" points="109.75,-131.76 99.29,-130.08 106.42,-137.91 109.75,-131.76"/>
</g>
<!-- Node6 -->
<g id="node6" class="node">
<title>Node6</title>
<g id="a_node6"><a xlink:href="Canvas_8h.html" target="_top" xlink:title=" ">
<polygon fill="white" stroke="#666666" points="233.08,-129 150.08,-129 150.08,-110 233.08,-110 233.08,-129"/>
<text text-anchor="middle" x="191.58" y="-117" font-family="Helvetica,sans-Serif" font-size="10.00">types/Canvas.h</text>
</a>
</g>
</g>
<!-- Node3&#45;&gt;Node6 -->
<g id="edge6" class="edge">
<title>Node3&#45;&gt;Node6</title>
<path fill="none" stroke="#63b8ff" d="M181.56,-164.75C183.04,-158.19 185.14,-148.95 187.03,-140.6"/>
<polygon fill="#63b8ff" stroke="#63b8ff" points="190.42,-141.44 189.22,-130.92 183.6,-139.9 190.42,-141.44"/>
</g>
<!-- Node3&#45;&gt;Node7 -->
<g id="edge12" class="edge">
<title>Node3&#45;&gt;Node7</title>
<path fill="none" stroke="#63b8ff" d="M198.45,-164.55C212.54,-156.95 231.24,-144.77 242.58,-129 251.84,-116.11 256.64,-98.68 259.09,-85.34"/>
<polygon fill="#63b8ff" stroke="#63b8ff" points="262.53,-86 260.57,-75.58 255.61,-84.95 262.53,-86"/>
</g>
<!-- Node4&#45;&gt;Node2 -->
<g id="edge5" class="edge">
<title>Node4&#45;&gt;Node2</title>
<path fill="none" stroke="#63b8ff" d="M75.63,-109.75C70.87,-102.73 64.02,-92.64 58.06,-83.87"/>
<polygon fill="#63b8ff" stroke="#63b8ff" points="61.02,-82 52.5,-75.69 55.23,-85.93 61.02,-82"/>
</g>
<!-- Node5 -->
<g id="node5" class="node">
<title>Node5</title>
<g id="a_node5"><a xlink:title=" ">
<polygon fill="#e0e0e0" stroke="#999999" points="139.58,-74 95.58,-74 95.58,-55 139.58,-55 139.58,-74"/>
<text text-anchor="middle" x="117.58" y="-62" font-family="Helvetica,sans-Serif" font-size="10.00">vector</text>
</a>
</g>
</g>
<!-- Node4&#45;&gt;Node5 -->
<g id="edge4" class="edge">
<title>Node4&#45;&gt;Node5</title>
<path fill="none" stroke="#63b8ff" d="M87.52,-109.75C92.29,-102.73 99.14,-92.64 105.1,-83.87"/>
<polygon fill="#63b8ff" stroke="#63b8ff" points="107.93,-85.93 110.65,-75.69 102.14,-82 107.93,-85.93"/>
</g>
<!-- Node6&#45;&gt;Node2 -->
<g id="edge8" class="edge">
<title>Node6&#45;&gt;Node2</title>
<path fill="none" stroke="#63b8ff" d="M166.81,-109.51C143.18,-100.93 107.33,-87.92 80.74,-78.27"/>
<polygon fill="#63b8ff" stroke="#63b8ff" points="82,-75 71.4,-74.87 79.61,-81.58 82,-75"/>
</g>
<!-- Node6&#45;&gt;Node5 -->
<g id="edge7" class="edge">
<title>Node6&#45;&gt;Node5</title>
<path fill="none" stroke="#63b8ff" d="M179.02,-109.51C168.11,-101.7 152.07,-90.21 139.12,-80.93"/>
<polygon fill="#63b8ff" stroke="#63b8ff" points="141.34,-78.22 131.18,-75.24 137.27,-83.91 141.34,-78.22"/>
</g>
<!-- Node6&#45;&gt;Node7 -->
<g id="edge9" class="edge">
<title>Node6&#45;&gt;Node7</title>
<path fill="none" stroke="#63b8ff" d="M203.45,-109.51C213.67,-101.77 228.65,-90.43 240.84,-81.2"/>
<polygon fill="#63b8ff" stroke="#63b8ff" points="242.81,-84.1 248.67,-75.27 238.59,-78.52 242.81,-84.1"/>
</g>
<!-- Node8 -->
<g id="node8" class="node">
<title>Node8</title>
<g id="a_node8"><a xlink:title=" ">
<polygon fill="#e0e0e0" stroke="#999999" points="249.08,-19 208.08,-19 208.08,0 249.08,0 249.08,-19"/>
<text text-anchor="middle" x="228.58" y="-7" font-family="Helvetica,sans-Serif" font-size="10.00">string</text>
</a>
</g>
</g>
<!-- Node7&#45;&gt;Node8 -->
<g id="edge10" class="edge">
<title>Node7&#45;&gt;Node8</title>
<path fill="none" stroke="#63b8ff" d="M256.13,-54.75C251.81,-47.81 245.62,-37.86 240.2,-29.16"/>
<polygon fill="#63b8ff" stroke="#63b8ff" points="243.2,-27.37 234.94,-20.73 237.26,-31.07 243.2,-27.37"/>
</g>
<!-- Node9 -->
<g id="node9" class="node">
<title>Node9</title>
<g id="a_node9"><a xlink:href="Point_8h.html" target="_top" xlink:title=" ">
<polygon fill="white" stroke="#666666" points="319.58,-19 267.58,-19 267.58,0 319.58,0 319.58,-19"/>
<text text-anchor="middle" x="293.58" y="-7" font-family="Helvetica,sans-Serif" font-size="10.00">./Point.h</text>
</a>
</g>
</g>
<!-- Node7&#45;&gt;Node9 -->
<g id="edge11" class="edge">
<title>Node7&#45;&gt;Node9</title>
<path fill="none" stroke="#63b8ff" d="M266.86,-54.75C271.05,-47.81 277.06,-37.86 282.31,-29.16"/>
<polygon fill="#63b8ff" stroke="#63b8ff" points="285.22,-31.11 287.4,-20.74 279.23,-27.49 285.22,-31.11"/>
</g>
<!-- Node10&#45;&gt;Node2 -->
<g id="edge14" class="edge">
<title>Node10&#45;&gt;Node2</title>
<path fill="none" stroke="#63b8ff" d="M77.33,-219.51C62.86,-203.05 33.4,-166.31 22.58,-129 18.09,-113.52 25.06,-96.35 32.47,-83.77"/>
<polygon fill="#63b8ff" stroke="#63b8ff" points="35.21,-85.98 37.73,-75.69 29.34,-82.16 35.21,-85.98"/>
</g>
<!-- Node10&#45;&gt;Node3 -->
<g id="edge15" class="edge">
<title>Node10&#45;&gt;Node3</title>
<path fill="none" stroke="#63b8ff" d="M101.52,-219.51C115.92,-211.39 137.37,-199.3 154.13,-189.85"/>
<polygon fill="#63b8ff" stroke="#63b8ff" points="155.56,-193.06 162.55,-185.1 152.12,-186.96 155.56,-193.06"/>
</g>
<!-- Node10&#45;&gt;Node4 -->
<g id="edge16" class="edge">
<title>Node10&#45;&gt;Node4</title>
<path fill="none" stroke="#63b8ff" d="M85.25,-219.66C84.62,-202.57 83.21,-164.61 82.33,-140.92"/>
<polygon fill="#63b8ff" stroke="#63b8ff" points="85.83,-140.84 81.97,-130.97 78.84,-141.1 85.83,-140.84"/>
</g>
</g>
</svg>
