<?xml version="1.0" encoding="UTF-8" standalone="no"?>
<!DOCTYPE svg PUBLIC "-//W3C//DTD SVG 1.1//EN"
 "http://www.w3.org/Graphics/SVG/1.1/DTD/svg11.dtd">
<!-- Generated by graphviz version 7.0.2 (20221119.0110)
 -->
<!-- Title: src/services/CanvasService.cpp Pages: 1 -->
<svg width="488pt" height="357pt"
 viewBox="0.00 0.00 488.00 357.00" xmlns="http://www.w3.org/2000/svg" xmlns:xlink="http://www.w3.org/1999/xlink">
<g id="graph0" class="graph" transform="scale(1 1) rotate(0) translate(4 353)">
<title>src/services/CanvasService.cpp</title>
<!-- Node1 -->
<g id="node1" class="node">
<title>Node1</title>
<g id="a_node1"><a xlink:title=" ">
<polygon fill="#999999" stroke="#666666" points="480,-349 323,-349 323,-330 480,-330 480,-349"/>
<text text-anchor="middle" x="401.5" y="-337" font-family="Helvetica,sans-Serif" font-size="10.00">src/services/CanvasService.cpp</text>
</a>
</g>
</g>
<!-- Node2 -->
<g id="node2" class="node">
<title>Node2</title>
<g id="a_node2"><a xlink:href="CanvasService_8h.html" target="_top" xlink:title=" ">
<polygon fill="white" stroke="#666666" points="401.5,-294 311.5,-294 311.5,-275 401.5,-275 401.5,-294"/>
<text text-anchor="middle" x="356.5" y="-282" font-family="Helvetica,sans-Serif" font-size="10.00">CanvasService.h</text>
</a>
</g>
</g>
<!-- Node1&#45;&gt;Node2 -->
<g id="edge1" class="edge">
<title>Node1&#45;&gt;Node2</title>
<path fill="none" stroke="#63b8ff" d="M394.07,-329.75C387.92,-322.5 378.99,-311.98 371.37,-303.02"/>
<polygon fill="#63b8ff" stroke="#63b8ff" points="374.21,-300.95 365.07,-295.6 368.88,-305.48 374.21,-300.95"/>
</g>
<!-- Node13 -->
<g id="node13" class="node">
<title>Node13</title>
<g id="a_node13"><a xlink:title=" ">
<polygon fill="#e0e0e0" stroke="#999999" points="473.5,-294 419.5,-294 419.5,-275 473.5,-275 473.5,-294"/>
<text text-anchor="middle" x="446.5" y="-282" font-family="Helvetica,sans-Serif" font-size="10.00">iostream</text>
</a>
</g>
</g>
<!-- Node1&#45;&gt;Node13 -->
<g id="edge22" class="edge">
<title>Node1&#45;&gt;Node13</title>
<path fill="none" stroke="#63b8ff" d="M408.93,-329.75C415.08,-322.5 424.01,-311.98 431.63,-303.02"/>
<polygon fill="#63b8ff" stroke="#63b8ff" points="434.12,-305.48 437.93,-295.6 428.79,-300.95 434.12,-305.48"/>
</g>
<!-- Node3 -->
<g id="node3" class="node">
<title>Node3</title>
<g id="a_node3"><a xlink:href="IDocumentsService_8h.html" target="_top" xlink:title=" ">
<polygon fill="white" stroke="#666666" points="259,-239 144,-239 144,-220 259,-220 259,-239"/>
<text text-anchor="middle" x="201.5" y="-227" font-family="Helvetica,sans-Serif" font-size="10.00">./IDocumentsService.h</text>
</a>
</g>
</g>
<!-- Node2&#45;&gt;Node3 -->
<g id="edge2" class="edge">
<title>Node2&#45;&gt;Node3</title>
<path fill="none" stroke="#63b8ff" d="M330.21,-274.51C304.97,-265.88 266.61,-252.76 238.34,-243.1"/>
<polygon fill="#63b8ff" stroke="#63b8ff" points="239.69,-239.86 229.1,-239.94 237.43,-246.48 239.69,-239.86"/>
</g>
<!-- Node9 -->
<g id="node9" class="node">
<title>Node9</title>
<g id="a_node9"><a xlink:href="Shape_8h.html" target="_top" xlink:title=" ">
<polygon fill="white" stroke="#666666" points="401,-74 344,-74 344,-55 401,-55 401,-74"/>
<text text-anchor="middle" x="372.5" y="-62" font-family="Helvetica,sans-Serif" font-size="10.00">./Shape.h</text>
</a>
</g>
</g>
<!-- Node2&#45;&gt;Node9 -->
<g id="edge21" class="edge">
<title>Node2&#45;&gt;Node9</title>
<path fill="none" stroke="#63b8ff" d="M363.89,-274.64C377.16,-258.11 404.54,-220.87 414.5,-184 424.32,-147.64 401.82,-106.45 386.11,-83.47"/>
<polygon fill="#63b8ff" stroke="#63b8ff" points="389.06,-81.58 380.39,-75.5 383.37,-85.67 389.06,-81.58"/>
</g>
<!-- Node12 -->
<g id="node12" class="node">
<title>Node12</title>
<g id="a_node12"><a xlink:href="ICanvasService_8h.html" target="_top" xlink:title=" ">
<polygon fill="white" stroke="#666666" points="405.5,-184 307.5,-184 307.5,-165 405.5,-165 405.5,-184"/>
<text text-anchor="middle" x="356.5" y="-172" font-family="Helvetica,sans-Serif" font-size="10.00">./ICanvasService.h</text>
</a>
</g>
</g>
<!-- Node2&#45;&gt;Node12 -->
<g id="edge17" class="edge">
<title>Node2&#45;&gt;Node12</title>
<path fill="none" stroke="#63b8ff" d="M356.5,-274.66C356.5,-257.57 356.5,-219.61 356.5,-195.92"/>
<polygon fill="#63b8ff" stroke="#63b8ff" points="360,-195.97 356.5,-185.97 353,-195.97 360,-195.97"/>
</g>
<!-- Node4 -->
<g id="node4" class="node">
<title>Node4</title>
<g id="a_node4"><a xlink:title=" ">
<polygon fill="#e0e0e0" stroke="#999999" points="301.5,-74 257.5,-74 257.5,-55 301.5,-55 301.5,-74"/>
<text text-anchor="middle" x="279.5" y="-62" font-family="Helvetica,sans-Serif" font-size="10.00">vector</text>
</a>
</g>
</g>
<!-- Node3&#45;&gt;Node4 -->
<g id="edge3" class="edge">
<title>Node3&#45;&gt;Node4</title>
<path fill="none" stroke="#63b8ff" d="M207.82,-219.58C219.57,-202.63 245.02,-164.32 260.5,-129 266.67,-114.93 271.57,-98.27 274.85,-85.54"/>
<polygon fill="#63b8ff" stroke="#63b8ff" points="278.24,-86.38 277.21,-75.84 271.44,-84.72 278.24,-86.38"/>
</g>
<!-- Node5 -->
<g id="node5" class="node">
<title>Node5</title>
<g id="a_node5"><a xlink:title=" ">
<polygon fill="#e0e0e0" stroke="#999999" points="188,-74 137,-74 137,-55 188,-55 188,-74"/>
<text text-anchor="middle" x="162.5" y="-62" font-family="Helvetica,sans-Serif" font-size="10.00">memory</text>
</a>
</g>
</g>
<!-- Node3&#45;&gt;Node5 -->
<g id="edge4" class="edge">
<title>Node3&#45;&gt;Node5</title>
<path fill="none" stroke="#63b8ff" d="M193.98,-219.67C180.49,-203.17 152.64,-165.99 142.5,-129 138.34,-113.83 144.26,-96.84 150.71,-84.25"/>
<polygon fill="#63b8ff" stroke="#63b8ff" points="153.62,-86.22 155.54,-75.8 147.54,-82.75 153.62,-86.22"/>
</g>
<!-- Node6 -->
<g id="node6" class="node">
<title>Node6</title>
<g id="a_node6"><a xlink:href="Document_8h.html" target="_top" xlink:title=" ">
<polygon fill="white" stroke="#666666" points="95,-184 0,-184 0,-165 95,-165 95,-184"/>
<text text-anchor="middle" x="47.5" y="-172" font-family="Helvetica,sans-Serif" font-size="10.00">types/Document.h</text>
</a>
</g>
</g>
<!-- Node3&#45;&gt;Node6 -->
<g id="edge5" class="edge">
<title>Node3&#45;&gt;Node6</title>
<path fill="none" stroke="#63b8ff" d="M175.38,-219.51C150.3,-210.88 112.19,-197.76 84.1,-188.1"/>
<polygon fill="#63b8ff" stroke="#63b8ff" points="85.52,-184.88 74.93,-184.94 83.24,-191.5 85.52,-184.88"/>
</g>
<!-- Node11 -->
<g id="node11" class="node">
<title>Node11</title>
<g id="a_node11"><a xlink:href="Observable_8h.html" target="_top" xlink:title=" ">
<polygon fill="white" stroke="#666666" points="251.5,-129 151.5,-129 151.5,-110 251.5,-110 251.5,-129"/>
<text text-anchor="middle" x="201.5" y="-117" font-family="Helvetica,sans-Serif" font-size="10.00">types/Observable.h</text>
</a>
</g>
</g>
<!-- Node3&#45;&gt;Node11 -->
<g id="edge14" class="edge">
<title>Node3&#45;&gt;Node11</title>
<path fill="none" stroke="#63b8ff" d="M201.5,-219.66C201.5,-202.57 201.5,-164.61 201.5,-140.92"/>
<polygon fill="#63b8ff" stroke="#63b8ff" points="205,-140.97 201.5,-130.97 198,-140.97 205,-140.97"/>
</g>
<!-- Node6&#45;&gt;Node5 -->
<g id="edge7" class="edge">
<title>Node6&#45;&gt;Node5</title>
<path fill="none" stroke="#63b8ff" d="M55.66,-164.6C67.27,-152.07 89.39,-128.65 109.5,-110 120.05,-100.22 132.32,-89.85 142.4,-81.59"/>
<polygon fill="#63b8ff" stroke="#63b8ff" points="144.53,-84.37 150.09,-75.35 140.12,-78.93 144.53,-84.37"/>
</g>
<!-- Node7 -->
<g id="node7" class="node">
<title>Node7</title>
<g id="a_node7"><a xlink:title=" ">
<polygon fill="#e0e0e0" stroke="#999999" points="198,-19 157,-19 157,0 198,0 198,-19"/>
<text text-anchor="middle" x="177.5" y="-7" font-family="Helvetica,sans-Serif" font-size="10.00">string</text>
</a>
</g>
</g>
<!-- Node6&#45;&gt;Node7 -->
<g id="edge6" class="edge">
<title>Node6&#45;&gt;Node7</title>
<path fill="none" stroke="#63b8ff" d="M52.32,-164.53C63.69,-143.85 93.78,-91.77 127.5,-55 136.69,-44.98 147.92,-34.82 157.41,-26.75"/>
<polygon fill="#63b8ff" stroke="#63b8ff" points="159.57,-29.5 165.02,-20.42 155.09,-24.12 159.57,-29.5"/>
</g>
<!-- Node8 -->
<g id="node8" class="node">
<title>Node8</title>
<g id="a_node8"><a xlink:href="Canvas_8h.html" target="_top" xlink:title=" ">
<polygon fill="white" stroke="#666666" points="369.5,-129 307.5,-129 307.5,-110 369.5,-110 369.5,-129"/>
<text text-anchor="middle" x="338.5" y="-117" font-family="Helvetica,sans-Serif" font-size="10.00">./Canvas.h</text>
</a>
</g>
</g>
<!-- Node6&#45;&gt;Node8 -->
<g id="edge8" class="edge">
<title>Node6&#45;&gt;Node8</title>
<path fill="none" stroke="#63b8ff" d="M95.23,-164.81C151.11,-154.63 242.8,-137.93 296.22,-128.2"/>
<polygon fill="#63b8ff" stroke="#63b8ff" points="296.63,-131.68 305.85,-126.45 295.38,-124.8 296.63,-131.68"/>
</g>
<!-- Node8&#45;&gt;Node4 -->
<g id="edge9" class="edge">
<title>Node8&#45;&gt;Node4</title>
<path fill="none" stroke="#63b8ff" d="M328.49,-109.51C320.13,-102 308,-91.1 297.9,-82.03"/>
<polygon fill="#63b8ff" stroke="#63b8ff" points="300.26,-79.45 290.49,-75.37 295.59,-84.66 300.26,-79.45"/>
</g>
<!-- Node8&#45;&gt;Node5 -->
<g id="edge10" class="edge">
<title>Node8&#45;&gt;Node5</title>
<path fill="none" stroke="#63b8ff" d="M308.64,-109.51C278.46,-100.42 231.77,-86.36 199.32,-76.59"/>
<polygon fill="#63b8ff" stroke="#63b8ff" points="200.51,-73.29 189.93,-73.76 198.5,-80 200.51,-73.29"/>
</g>
<!-- Node8&#45;&gt;Node9 -->
<g id="edge11" class="edge">
<title>Node8&#45;&gt;Node9</title>
<path fill="none" stroke="#63b8ff" d="M344.11,-109.75C348.62,-102.73 355.09,-92.64 360.71,-83.87"/>
<polygon fill="#63b8ff" stroke="#63b8ff" points="363.49,-86.02 365.95,-75.72 357.6,-82.24 363.49,-86.02"/>
</g>
<!-- Node9&#45;&gt;Node7 -->
<g id="edge12" class="edge">
<title>Node9&#45;&gt;Node7</title>
<path fill="none" stroke="#63b8ff" d="M343.73,-55.68C307.72,-45.89 246.28,-29.19 209.03,-19.07"/>
<polygon fill="#63b8ff" stroke="#63b8ff" points="210.33,-15.8 199.76,-16.55 208.49,-22.55 210.33,-15.8"/>
</g>
<!-- Node10 -->
<g id="node10" class="node">
<title>Node10</title>
<g id="a_node10"><a xlink:href="Point_8h.html" target="_top" xlink:title=" ">
<polygon fill="white" stroke="#666666" points="398.5,-19 346.5,-19 346.5,0 398.5,0 398.5,-19"/>
<text text-anchor="middle" x="372.5" y="-7" font-family="Helvetica,sans-Serif" font-size="10.00">./Point.h</text>
</a>
</g>
</g>
<!-- Node9&#45;&gt;Node10 -->
<g id="edge13" class="edge">
<title>Node9&#45;&gt;Node10</title>
<path fill="none" stroke="#63b8ff" d="M372.5,-54.75C372.5,-48.27 372.5,-39.16 372.5,-30.9"/>
<polygon fill="#63b8ff" stroke="#63b8ff" points="376,-30.96 372.5,-20.96 369,-30.96 376,-30.96"/>
</g>
<!-- Node11&#45;&gt;Node4 -->
<g id="edge15" class="edge">
<title>Node11&#45;&gt;Node4</title>
<path fill="none" stroke="#63b8ff" d="M214.73,-109.51C226.34,-101.62 243.47,-89.98 257.2,-80.65"/>
<polygon fill="#63b8ff" stroke="#63b8ff" points="258.91,-83.72 265.21,-75.21 254.97,-77.93 258.91,-83.72"/>
</g>
<!-- Node11&#45;&gt;Node5 -->
<g id="edge16" class="edge">
<title>Node11&#45;&gt;Node5</title>
<path fill="none" stroke="#63b8ff" d="M195.06,-109.75C189.84,-102.66 182.31,-92.42 175.81,-83.59"/>
<polygon fill="#63b8ff" stroke="#63b8ff" points="178.72,-81.64 169.98,-75.66 173.08,-85.79 178.72,-81.64"/>
</g>
<!-- Node12&#45;&gt;Node8 -->
<g id="edge19" class="edge">
<title>Node12&#45;&gt;Node8</title>
<path fill="none" stroke="#63b8ff" d="M353.53,-164.75C351.27,-158.11 348.09,-148.73 345.23,-140.31"/>
<polygon fill="#63b8ff" stroke="#63b8ff" points="348.55,-139.22 342.02,-130.88 341.93,-141.47 348.55,-139.22"/>
</g>
<!-- Node12&#45;&gt;Node9 -->
<g id="edge20" class="edge">
<title>Node12&#45;&gt;Node9</title>
<path fill="none" stroke="#63b8ff" d="M362.34,-164.76C367.75,-156.1 375.4,-142.26 378.5,-129 381.86,-114.6 380.09,-97.95 377.62,-85.32"/>
<polygon fill="#63b8ff" stroke="#63b8ff" points="381.06,-84.69 375.42,-75.72 374.24,-86.25 381.06,-84.69"/>
</g>
<!-- Node12&#45;&gt;Node11 -->
<g id="edge18" class="edge">
<title>Node12&#45;&gt;Node11</title>
<path fill="none" stroke="#63b8ff" d="M330.21,-164.51C304.97,-155.88 266.61,-142.76 238.34,-133.1"/>
<polygon fill="#63b8ff" stroke="#63b8ff" points="239.69,-129.86 229.1,-129.94 237.43,-136.48 239.69,-129.86"/>
</g>
</g>
</svg>
