<?xml version="1.0" encoding="UTF-8" standalone="no"?>
<!DOCTYPE svg PUBLIC "-//W3C//DTD SVG 1.1//EN"
 "http://www.w3.org/Graphics/SVG/1.1/DTD/svg11.dtd">
<!-- Generated by graphviz version 7.0.2 (20221119.0110)
 -->
<!-- Title: ICanvasService Pages: 1 -->
<svg width="200pt" height="214pt"
 viewBox="0.00 0.00 200.00 214.00" xmlns="http://www.w3.org/2000/svg" xmlns:xlink="http://www.w3.org/1999/xlink">
<g id="graph0" class="graph" transform="scale(1 1) rotate(0) translate(4 210)">
<title>ICanvasService</title>
<!-- Node1 -->
<g id="node1" class="node">
<title>Node1</title>
<g id="a_node1"><a xlink:title=" ">
<polygon fill="#999999" stroke="#666666" points="155.5,-118 39.5,-118 39.5,0 155.5,0 155.5,-118"/>
<text text-anchor="middle" x="97.5" y="-106" font-family="Helvetica,sans-Serif" font-size="10.00">{ICanvasService</text>
<text text-anchor="start" x="47.5" y="-95" font-family="Helvetica,sans-Serif" font-size="10.00">||+ getDrawedObjects()</text>
<text text-anchor="start" x="47.5" y="-84" font-family="Helvetica,sans-Serif" font-size="10.00">+ addObject()</text>
<text text-anchor="start" x="47.5" y="-73" font-family="Helvetica,sans-Serif" font-size="10.00">+ removeObject()</text>
<text text-anchor="start" x="47.5" y="-62" font-family="Helvetica,sans-Serif" font-size="10.00">+ getWidth()</text>
<text text-anchor="start" x="47.5" y="-51" font-family="Helvetica,sans-Serif" font-size="10.00">+ getHeight()</text>
<text text-anchor="start" x="47.5" y="-40" font-family="Helvetica,sans-Serif" font-size="10.00">+ resizeCanvas()</text>
<text text-anchor="start" x="47.5" y="-29" font-family="Helvetica,sans-Serif" font-size="10.00">+ clear()</text>
<text text-anchor="start" x="47.5" y="-18" font-family="Helvetica,sans-Serif" font-size="10.00">+ ~ICanvasService()</text>
<text text-anchor="middle" x="97.5" y="-7" font-family="Helvetica,sans-Serif" font-size="10.00">}</text>
</a>
</g>
</g>
<!-- Node2 -->
<g id="node2" class="node">
<title>Node2</title>
<g id="a_node2"><a xlink:href="classObservable.html" target="_top" xlink:title=" ">
<polygon fill="white" stroke="#666666" points="91,-206 0,-206 0,-154 91,-154 91,-206"/>
<text text-anchor="middle" x="45.5" y="-194" font-family="Helvetica,sans-Serif" font-size="10.00">{Observable</text>
<text text-anchor="start" x="8" y="-183" font-family="Helvetica,sans-Serif" font-size="10.00">||+ addObserver()</text>
<text text-anchor="start" x="8" y="-172" font-family="Helvetica,sans-Serif" font-size="10.00"># notifyUpdate()</text>
<text text-anchor="middle" x="45.5" y="-161" font-family="Helvetica,sans-Serif" font-size="10.00">}</text>
</a>
</g>
</g>
<!-- Node2&#45;&gt;Node1 -->
<g id="edge1" class="edge">
<title>Node2&#45;&gt;Node1</title>
<path fill="none" stroke="#63b8ff" d="M61.13,-143.22C64.55,-135.41 68.25,-126.94 71.94,-118.5"/>
<polygon fill="none" stroke="#63b8ff" points="57.93,-141.81 57.13,-152.38 64.35,-144.61 57.93,-141.81"/>
</g>
<!-- Node3 -->
<g id="node3" class="node">
<title>Node3</title>
<g id="a_node3"><a xlink:href="classIObserver.html" target="_top" xlink:title=" ">
<polygon fill="white" stroke="#666666" points="192,-206 109,-206 109,-154 192,-154 192,-206"/>
<text text-anchor="middle" x="150.5" y="-194" font-family="Helvetica,sans-Serif" font-size="10.00">{IObserver</text>
<text text-anchor="start" x="117" y="-183" font-family="Helvetica,sans-Serif" font-size="10.00">||+ ~IObserver()</text>
<text text-anchor="start" x="117" y="-172" font-family="Helvetica,sans-Serif" font-size="10.00">+ update()</text>
<text text-anchor="middle" x="150.5" y="-161" font-family="Helvetica,sans-Serif" font-size="10.00">}</text>
</a>
</g>
</g>
<!-- Node3&#45;&gt;Node1 -->
<g id="edge2" class="edge">
<title>Node3&#45;&gt;Node1</title>
<path fill="none" stroke="#63b8ff" d="M134.68,-143.49C131.17,-135.6 127.36,-127.04 123.55,-118.5"/>
<polygon fill="none" stroke="#63b8ff" points="131.38,-144.67 138.64,-152.38 137.77,-141.82 131.38,-144.67"/>
</g>
</g>
</svg>
