<?xml version="1.0" encoding="UTF-8" standalone="no"?>
<!DOCTYPE svg PUBLIC "-//W3C//DTD SVG 1.1//EN"
 "http://www.w3.org/Graphics/SVG/1.1/DTD/svg11.dtd">
<!-- Generated by graphviz version 7.0.2 (20221119.0110)
 -->
<!-- Title: Shape Pages: 1 -->
<svg width="186pt" height="258pt"
 viewBox="0.00 0.00 186.00 258.00" xmlns="http://www.w3.org/2000/svg" xmlns:xlink="http://www.w3.org/1999/xlink">
<g id="graph0" class="graph" transform="scale(1 1) rotate(0) translate(4 254)">
<title>Shape</title>
<!-- Node1 -->
<g id="node1" class="node">
<title>Node1</title>
<g id="a_node1"><a xlink:title=" ">
<polygon fill="#999999" stroke="#666666" points="138,-250 40,-250 40,-110 138,-110 138,-250"/>
<text text-anchor="middle" x="89" y="-238" font-family="Helvetica,sans-Serif" font-size="10.00">{Shape</text>
<text text-anchor="start" x="48" y="-227" font-family="Helvetica,sans-Serif" font-size="10.00">||+ getId()</text>
<text text-anchor="start" x="48" y="-216" font-family="Helvetica,sans-Serif" font-size="10.00">+ setId()</text>
<text text-anchor="start" x="48" y="-205" font-family="Helvetica,sans-Serif" font-size="10.00">+ getRotation()</text>
<text text-anchor="start" x="48" y="-194" font-family="Helvetica,sans-Serif" font-size="10.00">+ setRotation()</text>
<text text-anchor="start" x="48" y="-183" font-family="Helvetica,sans-Serif" font-size="10.00">+ getAnchorPoint()</text>
<text text-anchor="start" x="48" y="-172" font-family="Helvetica,sans-Serif" font-size="10.00">+ setAnchorPoint()</text>
<text text-anchor="start" x="48" y="-161" font-family="Helvetica,sans-Serif" font-size="10.00">+ getZIndex()</text>
<text text-anchor="start" x="48" y="-150" font-family="Helvetica,sans-Serif" font-size="10.00">+ setZIndex()</text>
<text text-anchor="start" x="48" y="-139" font-family="Helvetica,sans-Serif" font-size="10.00"># Shape()</text>
<text text-anchor="start" x="48" y="-128" font-family="Helvetica,sans-Serif" font-size="10.00"># ~Shape()</text>
<text text-anchor="middle" x="89" y="-117" font-family="Helvetica,sans-Serif" font-size="10.00">}</text>
</a>
</g>
</g>
<!-- Node2 -->
<g id="node2" class="node">
<title>Node2</title>
<g id="a_node2"><a xlink:href="classCircle.html" target="_top" xlink:title=" ">
<polygon fill="white" stroke="#666666" points="80,-68.5 0,-68.5 0,-5.5 80,-5.5 80,-68.5"/>
<text text-anchor="middle" x="40" y="-56.5" font-family="Helvetica,sans-Serif" font-size="10.00">{Circle</text>
<text text-anchor="start" x="8" y="-45.5" font-family="Helvetica,sans-Serif" font-size="10.00">||+ Circle()</text>
<text text-anchor="start" x="8" y="-34.5" font-family="Helvetica,sans-Serif" font-size="10.00">+ getPosition()</text>
<text text-anchor="start" x="8" y="-23.5" font-family="Helvetica,sans-Serif" font-size="10.00">+ getRadius()</text>
<text text-anchor="middle" x="40" y="-12.5" font-family="Helvetica,sans-Serif" font-size="10.00">}</text>
</a>
</g>
</g>
<!-- Node1&#45;&gt;Node2 -->
<g id="edge1" class="edge">
<title>Node1&#45;&gt;Node2</title>
<path fill="none" stroke="#63b8ff" d="M61.2,-99C57.49,-88.33 53.88,-77.95 50.73,-68.87"/>
<polygon fill="none" stroke="#63b8ff" points="57.85,-100.01 64.43,-108.31 64.46,-97.71 57.85,-100.01"/>
</g>
<!-- Node3 -->
<g id="node3" class="node">
<title>Node3</title>
<g id="a_node3"><a xlink:href="classRectangle.html" target="_top" xlink:title=" ">
<polygon fill="white" stroke="#666666" points="178,-74 98,-74 98,0 178,0 178,-74"/>
<text text-anchor="middle" x="138" y="-62" font-family="Helvetica,sans-Serif" font-size="10.00">{Rectangle</text>
<text text-anchor="start" x="106" y="-51" font-family="Helvetica,sans-Serif" font-size="10.00">||+ Rectangle()</text>
<text text-anchor="start" x="106" y="-40" font-family="Helvetica,sans-Serif" font-size="10.00">+ getPosition()</text>
<text text-anchor="start" x="106" y="-29" font-family="Helvetica,sans-Serif" font-size="10.00">+ getWidth()</text>
<text text-anchor="start" x="106" y="-18" font-family="Helvetica,sans-Serif" font-size="10.00">+ getHeight()</text>
<text text-anchor="middle" x="138" y="-7" font-family="Helvetica,sans-Serif" font-size="10.00">}</text>
</a>
</g>
</g>
<!-- Node1&#45;&gt;Node3 -->
<g id="edge2" class="edge">
<title>Node1&#45;&gt;Node3</title>
<path fill="none" stroke="#63b8ff" d="M116.76,-99.13C119.76,-90.49 122.7,-82.03 125.39,-74.3"/>
<polygon fill="none" stroke="#63b8ff" points="113.54,-97.71 113.57,-108.31 120.15,-100.01 113.54,-97.71"/>
</g>
</g>
</svg>
