<?xml version="1.0" encoding="UTF-8" standalone="no"?>
<!DOCTYPE svg PUBLIC "-//W3C//DTD SVG 1.1//EN"
 "http://www.w3.org/Graphics/SVG/1.1/DTD/svg11.dtd">
<!-- Generated by graphviz version 7.0.2 (20221119.0110)
 -->
<!-- Title: DocumentsService Pages: 1 -->
<svg width="140pt" height="291pt"
 viewBox="0.00 0.00 140.00 291.00" xmlns="http://www.w3.org/2000/svg" xmlns:xlink="http://www.w3.org/1999/xlink">
<g id="graph0" class="graph" transform="scale(1 1) rotate(0) translate(4 287)">
<title>DocumentsService</title>
<!-- Node1 -->
<g id="node1" class="node">
<title>Node1</title>
<g id="a_node1"><a xlink:title=" ">
<polygon fill="#999999" stroke="#666666" points="117,-30 15,-30 15,0 117,0 117,-30"/>
<text text-anchor="middle" x="66" y="-18" font-family="Helvetica,sans-Serif" font-size="10.00">{DocumentsService</text>
<text text-anchor="middle" x="66" y="-7" font-family="Helvetica,sans-Serif" font-size="10.00">||}</text>
</a>
</g>
</g>
<!-- Node2 -->
<g id="node2" class="node">
<title>Node2</title>
<g id="a_node2"><a xlink:href="classIDocumentsService.html" target="_top" xlink:title=" ">
<polygon fill="white" stroke="#666666" points="132,-195 0,-195 0,-66 132,-66 132,-195"/>
<text text-anchor="middle" x="66" y="-183" font-family="Helvetica,sans-Serif" font-size="10.00">{IDocumentsService</text>
<text text-anchor="start" x="8" y="-172" font-family="Helvetica,sans-Serif" font-size="10.00">||+ getOpenedDocuments()</text>
<text text-anchor="start" x="8" y="-161" font-family="Helvetica,sans-Serif" font-size="10.00">+ getActiveDocument()</text>
<text text-anchor="start" x="8" y="-150" font-family="Helvetica,sans-Serif" font-size="10.00">+ createDocument()</text>
<text text-anchor="start" x="8" y="-139" font-family="Helvetica,sans-Serif" font-size="10.00">+ saveDocument()</text>
<text text-anchor="start" x="8" y="-128" font-family="Helvetica,sans-Serif" font-size="10.00">+ saveAsDocument()</text>
<text text-anchor="start" x="8" y="-117" font-family="Helvetica,sans-Serif" font-size="10.00">+ openDocument()</text>
<text text-anchor="start" x="8" y="-106" font-family="Helvetica,sans-Serif" font-size="10.00">+ makeActiveDocument()</text>
<text text-anchor="start" x="8" y="-95" font-family="Helvetica,sans-Serif" font-size="10.00">+ closeDocument()</text>
<text text-anchor="start" x="8" y="-84" font-family="Helvetica,sans-Serif" font-size="10.00">+ ~IDocumentsService()</text>
<text text-anchor="middle" x="66" y="-73" font-family="Helvetica,sans-Serif" font-size="10.00">}</text>
</a>
</g>
</g>
<!-- Node2&#45;&gt;Node1 -->
<g id="edge1" class="edge">
<title>Node2&#45;&gt;Node1</title>
<path fill="none" stroke="#63b8ff" d="M66,-54.42C66,-45.33 66,-36.94 66,-30.34"/>
<polygon fill="none" stroke="#63b8ff" points="62.5,-54.27 66,-64.27 69.5,-54.27 62.5,-54.27"/>
</g>
<!-- Node3 -->
<g id="node3" class="node">
<title>Node3</title>
<g id="a_node3"><a xlink:href="classObservable.html" target="_top" xlink:title=" ">
<polygon fill="white" stroke="#666666" points="111.5,-283 20.5,-283 20.5,-231 111.5,-231 111.5,-283"/>
<text text-anchor="middle" x="66" y="-271" font-family="Helvetica,sans-Serif" font-size="10.00">{Observable</text>
<text text-anchor="start" x="28.5" y="-260" font-family="Helvetica,sans-Serif" font-size="10.00">||+ addObserver()</text>
<text text-anchor="start" x="28.5" y="-249" font-family="Helvetica,sans-Serif" font-size="10.00"># notifyUpdate()</text>
<text text-anchor="middle" x="66" y="-238" font-family="Helvetica,sans-Serif" font-size="10.00">}</text>
</a>
</g>
</g>
<!-- Node3&#45;&gt;Node2 -->
<g id="edge2" class="edge">
<title>Node3&#45;&gt;Node2</title>
<path fill="none" stroke="#63b8ff" d="M66,-219.21C66,-211.65 66,-203.48 66,-195.28"/>
<polygon fill="none" stroke="#63b8ff" points="62.5,-218.99 66,-228.99 69.5,-218.99 62.5,-218.99"/>
</g>
</g>
</svg>
