<?xml version="1.0" encoding="UTF-8" standalone="no"?>
<!DOCTYPE svg PUBLIC "-//W3C//DTD SVG 1.1//EN"
 "http://www.w3.org/Graphics/SVG/1.1/DTD/svg11.dtd">
<!-- Generated by graphviz version 7.0.2 (20221119.0110)
 -->
<!-- Title: Observable Pages: 1 -->
<svg width="274pt" height="390pt"
 viewBox="0.00 0.00 274.00 390.00" xmlns="http://www.w3.org/2000/svg" xmlns:xlink="http://www.w3.org/1999/xlink">
<g id="graph0" class="graph" transform="scale(1 1) rotate(0) translate(4 386)">
<title>Observable</title>
<!-- Node1 -->
<g id="node1" class="node">
<title>Node1</title>
<g id="a_node1"><a xlink:title=" ">
<polygon fill="#999999" stroke="#666666" points="174.5,-382 83.5,-382 83.5,-330 174.5,-330 174.5,-382"/>
<text text-anchor="middle" x="129" y="-370" font-family="Helvetica,sans-Serif" font-size="10.00">{Observable</text>
<text text-anchor="start" x="91.5" y="-359" font-family="Helvetica,sans-Serif" font-size="10.00">||+ addObserver()</text>
<text text-anchor="start" x="91.5" y="-348" font-family="Helvetica,sans-Serif" font-size="10.00"># notifyUpdate()</text>
<text text-anchor="middle" x="129" y="-337" font-family="Helvetica,sans-Serif" font-size="10.00">}</text>
</a>
</g>
</g>
<!-- Node2 -->
<g id="node2" class="node">
<title>Node2</title>
<g id="a_node2"><a xlink:href="classICanvasService.html" target="_top" xlink:title=" ">
<polygon fill="white" stroke="#666666" points="116,-288.5 0,-288.5 0,-170.5 116,-170.5 116,-288.5"/>
<text text-anchor="middle" x="58" y="-276.5" font-family="Helvetica,sans-Serif" font-size="10.00">{ICanvasService</text>
<text text-anchor="start" x="8" y="-265.5" font-family="Helvetica,sans-Serif" font-size="10.00">||+ getDrawedObjects()</text>
<text text-anchor="start" x="8" y="-254.5" font-family="Helvetica,sans-Serif" font-size="10.00">+ addObject()</text>
<text text-anchor="start" x="8" y="-243.5" font-family="Helvetica,sans-Serif" font-size="10.00">+ removeObject()</text>
<text text-anchor="start" x="8" y="-232.5" font-family="Helvetica,sans-Serif" font-size="10.00">+ getWidth()</text>
<text text-anchor="start" x="8" y="-221.5" font-family="Helvetica,sans-Serif" font-size="10.00">+ getHeight()</text>
<text text-anchor="start" x="8" y="-210.5" font-family="Helvetica,sans-Serif" font-size="10.00">+ resizeCanvas()</text>
<text text-anchor="start" x="8" y="-199.5" font-family="Helvetica,sans-Serif" font-size="10.00">+ clear()</text>
<text text-anchor="start" x="8" y="-188.5" font-family="Helvetica,sans-Serif" font-size="10.00">+ ~ICanvasService()</text>
<text text-anchor="middle" x="58" y="-177.5" font-family="Helvetica,sans-Serif" font-size="10.00">}</text>
</a>
</g>
</g>
<!-- Node1&#45;&gt;Node2 -->
<g id="edge1" class="edge">
<title>Node1&#45;&gt;Node2</title>
<path fill="none" stroke="#63b8ff" d="M108.79,-319.57C103.33,-309.98 97.26,-299.34 91.28,-288.85"/>
<polygon fill="none" stroke="#63b8ff" points="105.72,-321.24 113.71,-328.19 111.8,-317.77 105.72,-321.24"/>
</g>
<!-- Node4 -->
<g id="node4" class="node">
<title>Node4</title>
<g id="a_node4"><a xlink:href="classIDocumentsService.html" target="_top" xlink:title=" ">
<polygon fill="white" stroke="#666666" points="266,-294 134,-294 134,-165 266,-165 266,-294"/>
<text text-anchor="middle" x="200" y="-282" font-family="Helvetica,sans-Serif" font-size="10.00">{IDocumentsService</text>
<text text-anchor="start" x="142" y="-271" font-family="Helvetica,sans-Serif" font-size="10.00">||+ getOpenedDocuments()</text>
<text text-anchor="start" x="142" y="-260" font-family="Helvetica,sans-Serif" font-size="10.00">+ getActiveDocument()</text>
<text text-anchor="start" x="142" y="-249" font-family="Helvetica,sans-Serif" font-size="10.00">+ createDocument()</text>
<text text-anchor="start" x="142" y="-238" font-family="Helvetica,sans-Serif" font-size="10.00">+ saveDocument()</text>
<text text-anchor="start" x="142" y="-227" font-family="Helvetica,sans-Serif" font-size="10.00">+ saveAsDocument()</text>
<text text-anchor="start" x="142" y="-216" font-family="Helvetica,sans-Serif" font-size="10.00">+ openDocument()</text>
<text text-anchor="start" x="142" y="-205" font-family="Helvetica,sans-Serif" font-size="10.00">+ makeActiveDocument()</text>
<text text-anchor="start" x="142" y="-194" font-family="Helvetica,sans-Serif" font-size="10.00">+ closeDocument()</text>
<text text-anchor="start" x="142" y="-183" font-family="Helvetica,sans-Serif" font-size="10.00">+ ~IDocumentsService()</text>
<text text-anchor="middle" x="200" y="-172" font-family="Helvetica,sans-Serif" font-size="10.00">}</text>
</a>
</g>
</g>
<!-- Node1&#45;&gt;Node4 -->
<g id="edge3" class="edge">
<title>Node1&#45;&gt;Node4</title>
<path fill="none" stroke="#63b8ff" d="M149.22,-319.55C153.74,-311.62 158.67,-302.97 163.63,-294.28"/>
<polygon fill="none" stroke="#63b8ff" points="146.2,-317.77 144.29,-328.19 152.28,-321.24 146.2,-317.77"/>
</g>
<!-- Node3 -->
<g id="node3" class="node">
<title>Node3</title>
<g id="a_node3"><a xlink:href="classCanvasService.html" target="_top" xlink:title=" ">
<polygon fill="white" stroke="#666666" points="113.5,-129 2.5,-129 2.5,0 113.5,0 113.5,-129"/>
<text text-anchor="middle" x="58" y="-117" font-family="Helvetica,sans-Serif" font-size="10.00">{CanvasService</text>
<text text-anchor="start" x="10.5" y="-106" font-family="Helvetica,sans-Serif" font-size="10.00">||+ CanvasService()</text>
<text text-anchor="start" x="10.5" y="-95" font-family="Helvetica,sans-Serif" font-size="10.00">+ getDrawedObjects()</text>
<text text-anchor="start" x="10.5" y="-84" font-family="Helvetica,sans-Serif" font-size="10.00">+ addObject()</text>
<text text-anchor="start" x="10.5" y="-73" font-family="Helvetica,sans-Serif" font-size="10.00">+ removeObject()</text>
<text text-anchor="start" x="10.5" y="-62" font-family="Helvetica,sans-Serif" font-size="10.00">+ getWidth()</text>
<text text-anchor="start" x="10.5" y="-51" font-family="Helvetica,sans-Serif" font-size="10.00">+ getHeight()</text>
<text text-anchor="start" x="10.5" y="-40" font-family="Helvetica,sans-Serif" font-size="10.00">+ resizeCanvas()</text>
<text text-anchor="start" x="10.5" y="-29" font-family="Helvetica,sans-Serif" font-size="10.00">+ clear()</text>
<text text-anchor="start" x="10.5" y="-18" font-family="Helvetica,sans-Serif" font-size="10.00"># update()</text>
<text text-anchor="middle" x="58" y="-7" font-family="Helvetica,sans-Serif" font-size="10.00">}</text>
</a>
</g>
</g>
<!-- Node2&#45;&gt;Node3 -->
<g id="edge2" class="edge">
<title>Node2&#45;&gt;Node3</title>
<path fill="none" stroke="#63b8ff" d="M58,-158.76C58,-148.97 58,-138.95 58,-129.28"/>
<polygon fill="none" stroke="#63b8ff" points="54.5,-158.6 58,-168.6 61.5,-158.6 54.5,-158.6"/>
</g>
<!-- Node5 -->
<g id="node5" class="node">
<title>Node5</title>
<g id="a_node5"><a xlink:href="classDocumentsService.html" target="_top" xlink:title=" ">
<polygon fill="white" stroke="#666666" points="251,-79.5 149,-79.5 149,-49.5 251,-49.5 251,-79.5"/>
<text text-anchor="middle" x="200" y="-67.5" font-family="Helvetica,sans-Serif" font-size="10.00">{DocumentsService</text>
<text text-anchor="middle" x="200" y="-56.5" font-family="Helvetica,sans-Serif" font-size="10.00">||}</text>
</a>
</g>
</g>
<!-- Node4&#45;&gt;Node5 -->
<g id="edge4" class="edge">
<title>Node4&#45;&gt;Node5</title>
<path fill="none" stroke="#63b8ff" d="M200,-153.15C200,-125.36 200,-96.61 200,-79.92"/>
<polygon fill="none" stroke="#63b8ff" points="196.5,-153.03 200,-163.03 203.5,-153.03 196.5,-153.03"/>
</g>
</g>
</svg>
