<?xml version="1.0" encoding="UTF-8" standalone="no"?>
<!DOCTYPE svg PUBLIC "-//W3C//DTD SVG 1.1//EN"
 "http://www.w3.org/Graphics/SVG/1.1/DTD/svg11.dtd">
<!-- Generated by graphviz version 7.0.2 (20221119.0110)
 -->
<!-- Title: CanvasService Pages: 1 -->
<svg width="200pt" height="379pt"
 viewBox="0.00 0.00 200.00 379.00" xmlns="http://www.w3.org/2000/svg" xmlns:xlink="http://www.w3.org/1999/xlink">
<g id="graph0" class="graph" transform="scale(1 1) rotate(0) translate(4 375)">
<title>CanvasService</title>
<!-- Node1 -->
<g id="node1" class="node">
<title>Node1</title>
<g id="a_node1"><a xlink:title=" ">
<polygon fill="#999999" stroke="#666666" points="153,-129 42,-129 42,0 153,0 153,-129"/>
<text text-anchor="middle" x="97.5" y="-117" font-family="Helvetica,sans-Serif" font-size="10.00">{CanvasService</text>
<text text-anchor="start" x="50" y="-106" font-family="Helvetica,sans-Serif" font-size="10.00">||+ CanvasService()</text>
<text text-anchor="start" x="50" y="-95" font-family="Helvetica,sans-Serif" font-size="10.00">+ getDrawedObjects()</text>
<text text-anchor="start" x="50" y="-84" font-family="Helvetica,sans-Serif" font-size="10.00">+ addObject()</text>
<text text-anchor="start" x="50" y="-73" font-family="Helvetica,sans-Serif" font-size="10.00">+ removeObject()</text>
<text text-anchor="start" x="50" y="-62" font-family="Helvetica,sans-Serif" font-size="10.00">+ getWidth()</text>
<text text-anchor="start" x="50" y="-51" font-family="Helvetica,sans-Serif" font-size="10.00">+ getHeight()</text>
<text text-anchor="start" x="50" y="-40" font-family="Helvetica,sans-Serif" font-size="10.00">+ resizeCanvas()</text>
<text text-anchor="start" x="50" y="-29" font-family="Helvetica,sans-Serif" font-size="10.00">+ clear()</text>
<text text-anchor="start" x="50" y="-18" font-family="Helvetica,sans-Serif" font-size="10.00"># update()</text>
<text text-anchor="middle" x="97.5" y="-7" font-family="Helvetica,sans-Serif" font-size="10.00">}</text>
</a>
</g>
</g>
<!-- Node2 -->
<g id="node2" class="node">
<title>Node2</title>
<g id="a_node2"><a xlink:href="classICanvasService.html" target="_top" xlink:title=" ">
<polygon fill="white" stroke="#666666" points="155.5,-283 39.5,-283 39.5,-165 155.5,-165 155.5,-283"/>
<text text-anchor="middle" x="97.5" y="-271" font-family="Helvetica,sans-Serif" font-size="10.00">{ICanvasService</text>
<text text-anchor="start" x="47.5" y="-260" font-family="Helvetica,sans-Serif" font-size="10.00">||+ getDrawedObjects()</text>
<text text-anchor="start" x="47.5" y="-249" font-family="Helvetica,sans-Serif" font-size="10.00">+ addObject()</text>
<text text-anchor="start" x="47.5" y="-238" font-family="Helvetica,sans-Serif" font-size="10.00">+ removeObject()</text>
<text text-anchor="start" x="47.5" y="-227" font-family="Helvetica,sans-Serif" font-size="10.00">+ getWidth()</text>
<text text-anchor="start" x="47.5" y="-216" font-family="Helvetica,sans-Serif" font-size="10.00">+ getHeight()</text>
<text text-anchor="start" x="47.5" y="-205" font-family="Helvetica,sans-Serif" font-size="10.00">+ resizeCanvas()</text>
<text text-anchor="start" x="47.5" y="-194" font-family="Helvetica,sans-Serif" font-size="10.00">+ clear()</text>
<text text-anchor="start" x="47.5" y="-183" font-family="Helvetica,sans-Serif" font-size="10.00">+ ~ICanvasService()</text>
<text text-anchor="middle" x="97.5" y="-172" font-family="Helvetica,sans-Serif" font-size="10.00">}</text>
</a>
</g>
</g>
<!-- Node2&#45;&gt;Node1 -->
<g id="edge1" class="edge">
<title>Node2&#45;&gt;Node1</title>
<path fill="none" stroke="#63b8ff" d="M97.5,-153.53C97.5,-145.46 97.5,-137.27 97.5,-129.29"/>
<polygon fill="none" stroke="#63b8ff" points="94,-153.29 97.5,-163.29 101,-153.29 94,-153.29"/>
</g>
<!-- Node3 -->
<g id="node3" class="node">
<title>Node3</title>
<g id="a_node3"><a xlink:href="classObservable.html" target="_top" xlink:title=" ">
<polygon fill="white" stroke="#666666" points="91,-371 0,-371 0,-319 91,-319 91,-371"/>
<text text-anchor="middle" x="45.5" y="-359" font-family="Helvetica,sans-Serif" font-size="10.00">{Observable</text>
<text text-anchor="start" x="8" y="-348" font-family="Helvetica,sans-Serif" font-size="10.00">||+ addObserver()</text>
<text text-anchor="start" x="8" y="-337" font-family="Helvetica,sans-Serif" font-size="10.00"># notifyUpdate()</text>
<text text-anchor="middle" x="45.5" y="-326" font-family="Helvetica,sans-Serif" font-size="10.00">}</text>
</a>
</g>
</g>
<!-- Node3&#45;&gt;Node2 -->
<g id="edge2" class="edge">
<title>Node3&#45;&gt;Node2</title>
<path fill="none" stroke="#63b8ff" d="M61.13,-308.22C64.55,-300.41 68.25,-291.94 71.94,-283.5"/>
<polygon fill="none" stroke="#63b8ff" points="57.93,-306.81 57.13,-317.38 64.35,-309.61 57.93,-306.81"/>
</g>
<!-- Node4 -->
<g id="node4" class="node">
<title>Node4</title>
<g id="a_node4"><a xlink:href="classIObserver.html" target="_top" xlink:title=" ">
<polygon fill="white" stroke="#666666" points="192,-371 109,-371 109,-319 192,-319 192,-371"/>
<text text-anchor="middle" x="150.5" y="-359" font-family="Helvetica,sans-Serif" font-size="10.00">{IObserver</text>
<text text-anchor="start" x="117" y="-348" font-family="Helvetica,sans-Serif" font-size="10.00">||+ ~IObserver()</text>
<text text-anchor="start" x="117" y="-337" font-family="Helvetica,sans-Serif" font-size="10.00">+ update()</text>
<text text-anchor="middle" x="150.5" y="-326" font-family="Helvetica,sans-Serif" font-size="10.00">}</text>
</a>
</g>
</g>
<!-- Node4&#45;&gt;Node2 -->
<g id="edge3" class="edge">
<title>Node4&#45;&gt;Node2</title>
<path fill="none" stroke="#63b8ff" d="M134.68,-308.49C131.17,-300.6 127.36,-292.04 123.55,-283.5"/>
<polygon fill="none" stroke="#63b8ff" points="131.38,-309.67 138.64,-317.38 137.77,-306.82 131.38,-309.67"/>
</g>
</g>
</svg>
