<?xml version="1.0" encoding="UTF-8" standalone="no"?>
<!DOCTYPE svg PUBLIC "-//W3C//DTD SVG 1.1//EN"
 "http://www.w3.org/Graphics/SVG/1.1/DTD/svg11.dtd">
<!-- Generated by graphviz version 7.0.2 (20221119.0110)
 -->
<!-- Title: IObserver Pages: 1 -->
<svg width="358pt" height="379pt"
 viewBox="0.00 0.00 358.00 379.00" xmlns="http://www.w3.org/2000/svg" xmlns:xlink="http://www.w3.org/1999/xlink">
<g id="graph0" class="graph" transform="scale(1 1) rotate(0) translate(4 375)">
<title>IObserver</title>
<!-- Node1 -->
<g id="node1" class="node">
<title>Node1</title>
<g id="a_node1"><a xlink:title=" ">
<polygon fill="#999999" stroke="#666666" points="203.5,-371 120.5,-371 120.5,-319 203.5,-319 203.5,-371"/>
<text text-anchor="middle" x="162" y="-359" font-family="Helvetica,sans-Serif" font-size="10.00">{IObserver</text>
<text text-anchor="start" x="128.5" y="-348" font-family="Helvetica,sans-Serif" font-size="10.00">||+ ~IObserver()</text>
<text text-anchor="start" x="128.5" y="-337" font-family="Helvetica,sans-Serif" font-size="10.00">+ update()</text>
<text text-anchor="middle" x="162" y="-326" font-family="Helvetica,sans-Serif" font-size="10.00">}</text>
</a>
</g>
</g>
<!-- Node2 -->
<g id="node2" class="node">
<title>Node2</title>
<g id="a_node2"><a xlink:href="classCanvasView.html" target="_top" xlink:title=" ">
<polygon fill="white" stroke="#666666" points="90,-250 0,-250 0,-198 90,-198 90,-250"/>
<text text-anchor="middle" x="45" y="-238" font-family="Helvetica,sans-Serif" font-size="10.00">{CanvasView</text>
<text text-anchor="start" x="8" y="-227" font-family="Helvetica,sans-Serif" font-size="10.00">||+ CanvasView()</text>
<text text-anchor="start" x="8" y="-216" font-family="Helvetica,sans-Serif" font-size="10.00">+ update()</text>
<text text-anchor="middle" x="45" y="-205" font-family="Helvetica,sans-Serif" font-size="10.00">}</text>
</a>
</g>
</g>
<!-- Node1&#45;&gt;Node2 -->
<g id="edge1" class="edge">
<title>Node1&#45;&gt;Node2</title>
<path fill="none" stroke="#63b8ff" d="M127.75,-310.72C118.67,-301.78 108.91,-292.07 100,-283 89.6,-272.4 78.28,-260.53 68.64,-250.3"/>
<polygon fill="none" stroke="#63b8ff" points="125.19,-313.11 134.78,-317.61 130.09,-308.11 125.19,-313.11"/>
</g>
<!-- Node3 -->
<g id="node3" class="node">
<title>Node3</title>
<g id="a_node3"><a xlink:href="classDocumentsView.html" target="_top" xlink:title=" ">
<polygon fill="white" stroke="#666666" points="215.5,-250 108.5,-250 108.5,-198 215.5,-198 215.5,-250"/>
<text text-anchor="middle" x="162" y="-238" font-family="Helvetica,sans-Serif" font-size="10.00">{DocumentsView</text>
<text text-anchor="start" x="116.5" y="-227" font-family="Helvetica,sans-Serif" font-size="10.00">||+ DocumentsView()</text>
<text text-anchor="start" x="116.5" y="-216" font-family="Helvetica,sans-Serif" font-size="10.00">+ update()</text>
<text text-anchor="middle" x="162" y="-205" font-family="Helvetica,sans-Serif" font-size="10.00">}</text>
</a>
</g>
</g>
<!-- Node1&#45;&gt;Node3 -->
<g id="edge2" class="edge">
<title>Node1&#45;&gt;Node3</title>
<path fill="none" stroke="#63b8ff" d="M162,-307.46C162,-288.91 162,-266.84 162,-250.2"/>
<polygon fill="none" stroke="#63b8ff" points="158.5,-307.25 162,-317.25 165.5,-307.25 158.5,-307.25"/>
</g>
<!-- Node4 -->
<g id="node4" class="node">
<title>Node4</title>
<g id="a_node4"><a xlink:href="classICanvasService.html" target="_top" xlink:title=" ">
<polygon fill="white" stroke="#666666" points="350,-283 234,-283 234,-165 350,-165 350,-283"/>
<text text-anchor="middle" x="292" y="-271" font-family="Helvetica,sans-Serif" font-size="10.00">{ICanvasService</text>
<text text-anchor="start" x="242" y="-260" font-family="Helvetica,sans-Serif" font-size="10.00">||+ getDrawedObjects()</text>
<text text-anchor="start" x="242" y="-249" font-family="Helvetica,sans-Serif" font-size="10.00">+ addObject()</text>
<text text-anchor="start" x="242" y="-238" font-family="Helvetica,sans-Serif" font-size="10.00">+ removeObject()</text>
<text text-anchor="start" x="242" y="-227" font-family="Helvetica,sans-Serif" font-size="10.00">+ getWidth()</text>
<text text-anchor="start" x="242" y="-216" font-family="Helvetica,sans-Serif" font-size="10.00">+ getHeight()</text>
<text text-anchor="start" x="242" y="-205" font-family="Helvetica,sans-Serif" font-size="10.00">+ resizeCanvas()</text>
<text text-anchor="start" x="242" y="-194" font-family="Helvetica,sans-Serif" font-size="10.00">+ clear()</text>
<text text-anchor="start" x="242" y="-183" font-family="Helvetica,sans-Serif" font-size="10.00">+ ~ICanvasService()</text>
<text text-anchor="middle" x="292" y="-172" font-family="Helvetica,sans-Serif" font-size="10.00">}</text>
</a>
</g>
</g>
<!-- Node1&#45;&gt;Node4 -->
<g id="edge3" class="edge">
<title>Node1&#45;&gt;Node4</title>
<path fill="none" stroke="#63b8ff" d="M197.77,-311.26C208.89,-301.08 221.46,-289.57 233.71,-278.36"/>
<polygon fill="none" stroke="#63b8ff" points="195.7,-308.41 190.69,-317.74 200.43,-313.57 195.7,-308.41"/>
</g>
<!-- Node5 -->
<g id="node5" class="node">
<title>Node5</title>
<g id="a_node5"><a xlink:href="classCanvasService.html" target="_top" xlink:title=" ">
<polygon fill="white" stroke="#666666" points="347.5,-129 236.5,-129 236.5,0 347.5,0 347.5,-129"/>
<text text-anchor="middle" x="292" y="-117" font-family="Helvetica,sans-Serif" font-size="10.00">{CanvasService</text>
<text text-anchor="start" x="244.5" y="-106" font-family="Helvetica,sans-Serif" font-size="10.00">||+ CanvasService()</text>
<text text-anchor="start" x="244.5" y="-95" font-family="Helvetica,sans-Serif" font-size="10.00">+ getDrawedObjects()</text>
<text text-anchor="start" x="244.5" y="-84" font-family="Helvetica,sans-Serif" font-size="10.00">+ addObject()</text>
<text text-anchor="start" x="244.5" y="-73" font-family="Helvetica,sans-Serif" font-size="10.00">+ removeObject()</text>
<text text-anchor="start" x="244.5" y="-62" font-family="Helvetica,sans-Serif" font-size="10.00">+ getWidth()</text>
<text text-anchor="start" x="244.5" y="-51" font-family="Helvetica,sans-Serif" font-size="10.00">+ getHeight()</text>
<text text-anchor="start" x="244.5" y="-40" font-family="Helvetica,sans-Serif" font-size="10.00">+ resizeCanvas()</text>
<text text-anchor="start" x="244.5" y="-29" font-family="Helvetica,sans-Serif" font-size="10.00">+ clear()</text>
<text text-anchor="start" x="244.5" y="-18" font-family="Helvetica,sans-Serif" font-size="10.00"># update()</text>
<text text-anchor="middle" x="292" y="-7" font-family="Helvetica,sans-Serif" font-size="10.00">}</text>
</a>
</g>
</g>
<!-- Node4&#45;&gt;Node5 -->
<g id="edge4" class="edge">
<title>Node4&#45;&gt;Node5</title>
<path fill="none" stroke="#63b8ff" d="M292,-153.53C292,-145.46 292,-137.27 292,-129.29"/>
<polygon fill="none" stroke="#63b8ff" points="288.5,-153.29 292,-163.29 295.5,-153.29 288.5,-153.29"/>
</g>
</g>
</svg>
