<?xml version="1.0" encoding="UTF-8" standalone="no"?>
<!DOCTYPE svg PUBLIC "-//W3C//DTD SVG 1.1//EN"
 "http://www.w3.org/Graphics/SVG/1.1/DTD/svg11.dtd">
<!-- Generated by graphviz version 7.0.2 (20221119.0110)
 -->
<!-- Title: src Pages: 1 -->
<svg width="138pt" height="279pt"
 viewBox="0.00 0.00 138.00 279.00" xmlns="http://www.w3.org/2000/svg" xmlns:xlink="http://www.w3.org/1999/xlink">
<g id="graph0" class="graph" transform="scale(1 1) rotate(0) translate(4 275)">
<title>src</title>
<g id="clust1" class="cluster">
<title>clusterdir_68267d1309a1af8e8297ef4c3efbcdba</title>
<g id="a_clust1"><a xlink:href="dir_68267d1309a1af8e8297ef4c3efbcdba.html" target="_top">
<polygon fill="#edf0f7" stroke="#404040" stroke-width="2" points="8,-8 8,-263 122,-263 122,-8 8,-8"/>
</a>
</g>
</g>
<!-- dir_68267d1309a1af8e8297ef4c3efbcdba -->
<g id="node1" class="node">
<title>dir_68267d1309a1af8e8297ef4c3efbcdba</title>
<text text-anchor="middle" x="66" y="-243" font-family="Helvetica,sans-Serif" font-size="10.00">src</text>
</g>
<!-- dir_41ef5d8a90b9cc03a02949a5c062e6f0 -->
<g id="node2" class="node">
<title>dir_41ef5d8a90b9cc03a02949a5c062e6f0</title>
<g id="a_node2"><a xlink:href="dir_41ef5d8a90b9cc03a02949a5c062e6f0.html" target="_top" xlink:title="controller">
<polygon fill="#a2b4d6" stroke="#404040" points="94,-200 38,-200 38,-181 94,-181 94,-200"/>
<text text-anchor="middle" x="66" y="-188" font-family="Helvetica,sans-Serif" font-size="10.00">controller</text>
</a>
</g>
</g>
<!-- dir_68267d1309a1af8e8297ef4c3efbcdba&#45;&gt;dir_41ef5d8a90b9cc03a02949a5c062e6f0 -->
<g id="edge2" class="edge">
<title>dir_68267d1309a1af8e8297ef4c3efbcdba&#45;&gt;dir_41ef5d8a90b9cc03a02949a5c062e6f0</title>
<path fill="none" stroke="#63b8ff" d="M66,-236.22C66,-229.65 66,-220.18 66,-211.64"/>
<polygon fill="#63b8ff" stroke="#63b8ff" points="69.5,-211.77 66,-201.77 62.5,-211.77 69.5,-211.77"/>
<g id="a_edge2&#45;headlabel"><a xlink:href="dir_000002_000000.html" target="_top" xlink:title="2">
<text text-anchor="middle" x="72.34" y="-211.35" font-family="Helvetica,sans-Serif" font-size="10.00" fill="#63b8ff">2</text>
</a>
</g>
</g>
<!-- dir_1826a32a9d780ddbaf96ec88be56c4cd -->
<g id="node3" class="node">
<title>dir_1826a32a9d780ddbaf96ec88be56c4cd</title>
<g id="a_node3"><a xlink:href="dir_1826a32a9d780ddbaf96ec88be56c4cd.html" target="_top" xlink:title="services">
<polygon fill="#a2b4d6" stroke="#404040" points="113.5,-90 60.5,-90 60.5,-71 113.5,-71 113.5,-90"/>
<text text-anchor="middle" x="87" y="-78" font-family="Helvetica,sans-Serif" font-size="10.00">services</text>
</a>
</g>
</g>
<!-- dir_68267d1309a1af8e8297ef4c3efbcdba&#45;&gt;dir_1826a32a9d780ddbaf96ec88be56c4cd -->
<g id="edge1" class="edge">
<title>dir_68267d1309a1af8e8297ef4c3efbcdba&#45;&gt;dir_1826a32a9d780ddbaf96ec88be56c4cd</title>
<path fill="none" stroke="#63b8ff" d="M76.09,-236.18C85.1,-228.04 97.67,-214.74 103,-200 115.07,-166.6 103.86,-124.91 95.1,-100.94"/>
<polygon fill="#63b8ff" stroke="#63b8ff" points="98.44,-99.87 91.54,-91.83 91.92,-102.42 98.44,-99.87"/>
<g id="a_edge1&#45;headlabel"><a xlink:href="dir_000002_000001.html" target="_top" xlink:title="6">
<text text-anchor="middle" x="101.84" y="-98.28" font-family="Helvetica,sans-Serif" font-size="10.00" fill="#63b8ff">6</text>
</a>
</g>
</g>
<!-- dir_b39b5091e8d1d2be4b7fc59d57749634 -->
<g id="node5" class="node">
<title>dir_b39b5091e8d1d2be4b7fc59d57749634</title>
<g id="a_node5"><a xlink:href="dir_b39b5091e8d1d2be4b7fc59d57749634.html" target="_top" xlink:title="view">
<polygon fill="#a2b4d6" stroke="#404040" points="53.5,-145 16.5,-145 16.5,-126 53.5,-126 53.5,-145"/>
<text text-anchor="middle" x="35" y="-133" font-family="Helvetica,sans-Serif" font-size="10.00">view</text>
</a>
</g>
</g>
<!-- dir_68267d1309a1af8e8297ef4c3efbcdba&#45;&gt;dir_b39b5091e8d1d2be4b7fc59d57749634 -->
<g id="edge3" class="edge">
<title>dir_68267d1309a1af8e8297ef4c3efbcdba&#45;&gt;dir_b39b5091e8d1d2be4b7fc59d57749634</title>
<path fill="none" stroke="#63b8ff" d="M55.91,-236.18C46.9,-228.04 34.33,-214.74 29,-200 23.92,-185.95 25.86,-169.08 28.83,-156.26"/>
<polygon fill="#63b8ff" stroke="#63b8ff" points="32.13,-157.46 31.4,-146.89 25.38,-155.61 32.13,-157.46"/>
<g id="a_edge3&#45;headlabel"><a xlink:href="dir_000002_000004.html" target="_top" xlink:title="4">
<text text-anchor="middle" x="34.32" y="-157.72" font-family="Helvetica,sans-Serif" font-size="10.00" fill="#63b8ff">4</text>
</a>
</g>
</g>
<!-- dir_41ef5d8a90b9cc03a02949a5c062e6f0&#45;&gt;dir_1826a32a9d780ddbaf96ec88be56c4cd -->
<g id="edge5" class="edge">
<title>dir_41ef5d8a90b9cc03a02949a5c062e6f0&#45;&gt;dir_1826a32a9d780ddbaf96ec88be56c4cd</title>
<path fill="none" stroke="#63b8ff" d="M68.71,-180.71C71.39,-171.79 75.43,-157.54 78,-145 80.95,-130.59 83.25,-114.14 84.79,-101.6"/>
<polygon fill="#63b8ff" stroke="#63b8ff" points="88.26,-102.02 85.94,-91.69 81.31,-101.22 88.26,-102.02"/>
<g id="a_edge5&#45;headlabel"><a xlink:href="dir_000000_000001.html" target="_top" xlink:title="2">
<text text-anchor="middle" x="90.85" y="-101.92" font-family="Helvetica,sans-Serif" font-size="10.00" fill="#63b8ff">2</text>
</a>
</g>
</g>
<!-- dir_0c0c9fa8a58db41e576adc3ce68c5ee9 -->
<g id="node4" class="node">
<title>dir_0c0c9fa8a58db41e576adc3ce68c5ee9</title>
<g id="a_node4"><a xlink:href="dir_0c0c9fa8a58db41e576adc3ce68c5ee9.html" target="_top" xlink:title="types">
<polygon fill="#a2b4d6" stroke="#404040" points="61,-35 21,-35 21,-16 61,-16 61,-35"/>
<text text-anchor="middle" x="41" y="-23" font-family="Helvetica,sans-Serif" font-size="10.00">types</text>
</a>
</g>
</g>
<!-- dir_41ef5d8a90b9cc03a02949a5c062e6f0&#45;&gt;dir_0c0c9fa8a58db41e576adc3ce68c5ee9 -->
<g id="edge4" class="edge">
<title>dir_41ef5d8a90b9cc03a02949a5c062e6f0&#45;&gt;dir_0c0c9fa8a58db41e576adc3ce68c5ee9</title>
<path fill="none" stroke="#63b8ff" d="M66.27,-180.8C66.5,-168.49 66.36,-145.36 63,-126 60.14,-109.52 55.88,-106.27 52,-90 48.54,-75.47 45.69,-58.83 43.77,-46.22"/>
<polygon fill="#63b8ff" stroke="#63b8ff" points="47.28,-46.08 42.37,-36.7 40.36,-47.1 47.28,-46.08"/>
<g id="a_edge4&#45;headlabel"><a xlink:href="dir_000000_000003.html" target="_top" xlink:title="1">
<text text-anchor="middle" x="50.39" y="-45.23" font-family="Helvetica,sans-Serif" font-size="10.00" fill="#63b8ff">1</text>
</a>
</g>
</g>
<!-- dir_41ef5d8a90b9cc03a02949a5c062e6f0&#45;&gt;dir_b39b5091e8d1d2be4b7fc59d57749634 -->
<g id="edge6" class="edge">
<title>dir_41ef5d8a90b9cc03a02949a5c062e6f0&#45;&gt;dir_b39b5091e8d1d2be4b7fc59d57749634</title>
<path fill="none" stroke="#63b8ff" d="M60.88,-180.75C56.82,-173.81 51.01,-163.86 45.91,-155.16"/>
<polygon fill="#63b8ff" stroke="#63b8ff" points="49.06,-153.61 40.99,-146.75 43.02,-157.15 49.06,-153.61"/>
<g id="a_edge6&#45;headlabel"><a xlink:href="dir_000000_000004.html" target="_top" xlink:title="2">
<text text-anchor="middle" x="52.57" y="-151.48" font-family="Helvetica,sans-Serif" font-size="10.00" fill="#63b8ff">2</text>
</a>
</g>
</g>
<!-- dir_1826a32a9d780ddbaf96ec88be56c4cd&#45;&gt;dir_0c0c9fa8a58db41e576adc3ce68c5ee9 -->
<g id="edge7" class="edge">
<title>dir_1826a32a9d780ddbaf96ec88be56c4cd&#45;&gt;dir_0c0c9fa8a58db41e576adc3ce68c5ee9</title>
<path fill="none" stroke="#63b8ff" d="M79.4,-70.75C73.12,-63.5 63.99,-52.98 56.2,-44.02"/>
<polygon fill="#63b8ff" stroke="#63b8ff" points="58.95,-41.84 49.75,-36.59 53.66,-46.43 58.95,-41.84"/>
<g id="a_edge7&#45;headlabel"><a xlink:href="dir_000001_000003.html" target="_top" xlink:title="7">
<text text-anchor="middle" x="62.46" y="-39.05" font-family="Helvetica,sans-Serif" font-size="10.00" fill="#63b8ff">7</text>
</a>
</g>
</g>
<!-- dir_b39b5091e8d1d2be4b7fc59d57749634&#45;&gt;dir_1826a32a9d780ddbaf96ec88be56c4cd -->
<g id="edge9" class="edge">
<title>dir_b39b5091e8d1d2be4b7fc59d57749634&#45;&gt;dir_1826a32a9d780ddbaf96ec88be56c4cd</title>
<path fill="none" stroke="#63b8ff" d="M43.59,-125.75C50.84,-118.35 61.45,-107.54 70.37,-98.45"/>
<polygon fill="#63b8ff" stroke="#63b8ff" points="72.66,-101.11 77.17,-91.52 67.66,-96.21 72.66,-101.11"/>
<g id="a_edge9&#45;headlabel"><a xlink:href="dir_000004_000001.html" target="_top" xlink:title="2">
<text text-anchor="middle" x="73.23" y="-102.09" font-family="Helvetica,sans-Serif" font-size="10.00" fill="#63b8ff">2</text>
</a>
</g>
</g>
<!-- dir_b39b5091e8d1d2be4b7fc59d57749634&#45;&gt;dir_0c0c9fa8a58db41e576adc3ce68c5ee9 -->
<g id="edge8" class="edge">
<title>dir_b39b5091e8d1d2be4b7fc59d57749634&#45;&gt;dir_0c0c9fa8a58db41e576adc3ce68c5ee9</title>
<path fill="none" stroke="#63b8ff" d="M34.87,-125.86C34.75,-113.63 34.75,-90.59 36,-71 36.51,-63.05 37.41,-54.33 38.31,-46.73"/>
<polygon fill="#63b8ff" stroke="#63b8ff" points="41.78,-47.21 39.56,-36.84 34.83,-46.33 41.78,-47.21"/>
<g id="a_edge8&#45;headlabel"><a xlink:href="dir_000004_000003.html" target="_top" xlink:title="2">
<text text-anchor="middle" x="44.33" y="-47.13" font-family="Helvetica,sans-Serif" font-size="10.00" fill="#63b8ff">2</text>
</a>
</g>
</g>
</g>
</svg>
