<?xml version="1.0" encoding="UTF-8" standalone="no"?>
<!DOCTYPE svg PUBLIC "-//W3C//DTD SVG 1.1//EN"
 "http://www.w3.org/Graphics/SVG/1.1/DTD/svg11.dtd">
<!-- Generated by graphviz version 7.0.2 (20221119.0110)
 -->
<!-- Title: src/types/Document.h Pages: 1 -->
<svg width="779pt" height="269pt"
 viewBox="0.00 0.00 779.00 269.00" xmlns="http://www.w3.org/2000/svg" xmlns:xlink="http://www.w3.org/1999/xlink">
<g id="graph0" class="graph" transform="scale(1 1) rotate(0) translate(4 265)">
<title>src/types/Document.h</title>
<!-- Node1 -->
<g id="node1" class="node">
<title>Node1</title>
<g id="a_node1"><a xlink:title=" ">
<polygon fill="#999999" stroke="#666666" points="440,-261 329,-261 329,-242 440,-242 440,-261"/>
<text text-anchor="middle" x="384.5" y="-249" font-family="Helvetica,sans-Serif" font-size="10.00">src/types/Document.h</text>
</a>
</g>
</g>
<!-- Node2 -->
<g id="node2" class="node">
<title>Node2</title>
<g id="a_node2"><a xlink:href="DocumentsService_8cpp.html" target="_top" xlink:title=" ">
<polygon fill="white" stroke="#666666" points="173,-90.5 0,-90.5 0,-71.5 173,-71.5 173,-90.5"/>
<text text-anchor="middle" x="86.5" y="-78.5" font-family="Helvetica,sans-Serif" font-size="10.00">src/services/DocumentsService.cpp</text>
</a>
</g>
</g>
<!-- Node1&#45;&gt;Node2 -->
<g id="edge1" class="edge">
<title>Node1&#45;&gt;Node2</title>
<path fill="none" stroke="#63b8ff" d="M317.44,-242.6C255.88,-231.94 166.04,-207.3 110.5,-151 93.93,-134.21 88.77,-105.39 87.19,-90.89"/>
<polygon fill="#63b8ff" stroke="#63b8ff" points="316.66,-246.02 327.1,-244.18 317.8,-239.11 316.66,-246.02"/>
</g>
<!-- Node3 -->
<g id="node3" class="node">
<title>Node3</title>
<g id="a_node3"><a xlink:href="IDocumentsService_8h.html" target="_top" xlink:title=" ">
<polygon fill="white" stroke="#666666" points="467.5,-206 301.5,-206 301.5,-187 467.5,-187 467.5,-206"/>
<text text-anchor="middle" x="384.5" y="-194" font-family="Helvetica,sans-Serif" font-size="10.00">src/services/IDocumentsService.h</text>
</a>
</g>
</g>
<!-- Node1&#45;&gt;Node3 -->
<g id="edge2" class="edge">
<title>Node1&#45;&gt;Node3</title>
<path fill="none" stroke="#63b8ff" d="M384.5,-230.35C384.5,-222.1 384.5,-212.97 384.5,-206.44"/>
<polygon fill="#63b8ff" stroke="#63b8ff" points="381,-230.23 384.5,-240.23 388,-230.23 381,-230.23"/>
</g>
<!-- Node12 -->
<g id="node12" class="node">
<title>Node12</title>
<g id="a_node12"><a xlink:href="Document_8cpp.html" target="_top" xlink:title=" ">
<polygon fill="white" stroke="#666666" points="607.5,-206 485.5,-206 485.5,-187 607.5,-187 607.5,-206"/>
<text text-anchor="middle" x="546.5" y="-194" font-family="Helvetica,sans-Serif" font-size="10.00">src/types/Document.cpp</text>
</a>
</g>
</g>
<!-- Node1&#45;&gt;Node12 -->
<g id="edge16" class="edge">
<title>Node1&#45;&gt;Node12</title>
<path fill="none" stroke="#63b8ff" d="M422.76,-237.98C452.39,-228.29 492.71,-215.1 519.15,-206.45"/>
<polygon fill="#63b8ff" stroke="#63b8ff" points="421.84,-234.6 413.42,-241.04 424.01,-241.26 421.84,-234.6"/>
</g>
<!-- Node4 -->
<g id="node4" class="node">
<title>Node4</title>
<g id="a_node4"><a xlink:href="DocumentsController_8h.html" target="_top" xlink:title=" ">
<polygon fill="white" stroke="#666666" points="771,-96 646,-96 646,-66 771,-66 771,-96"/>
<text text-anchor="start" x="654" y="-84" font-family="Helvetica,sans-Serif" font-size="10.00">src/controller/Documents</text>
<text text-anchor="middle" x="708.5" y="-73" font-family="Helvetica,sans-Serif" font-size="10.00">Controller.h</text>
</a>
</g>
</g>
<!-- Node3&#45;&gt;Node4 -->
<g id="edge3" class="edge">
<title>Node3&#45;&gt;Node4</title>
<path fill="none" stroke="#63b8ff" d="M465.13,-184.95C523.44,-176.5 596.66,-163.95 624.5,-151 653.08,-137.7 680.12,-112.39 695.46,-96.4"/>
<polygon fill="#63b8ff" stroke="#63b8ff" points="464.96,-181.44 455.56,-186.32 465.95,-188.37 464.96,-181.44"/>
</g>
<!-- Node7 -->
<g id="node7" class="node">
<title>Node7</title>
<g id="a_node7"><a xlink:href="CanvasService_8h.html" target="_top" xlink:title=" ">
<polygon fill="white" stroke="#666666" points="457.5,-151 311.5,-151 311.5,-132 457.5,-132 457.5,-151"/>
<text text-anchor="middle" x="384.5" y="-139" font-family="Helvetica,sans-Serif" font-size="10.00">src/services/CanvasService.h</text>
</a>
</g>
</g>
<!-- Node3&#45;&gt;Node7 -->
<g id="edge6" class="edge">
<title>Node3&#45;&gt;Node7</title>
<path fill="none" stroke="#63b8ff" d="M384.5,-175.35C384.5,-167.1 384.5,-157.97 384.5,-151.44"/>
<polygon fill="#63b8ff" stroke="#63b8ff" points="381,-175.23 384.5,-185.23 388,-175.23 381,-175.23"/>
</g>
<!-- Node9 -->
<g id="node9" class="node">
<title>Node9</title>
<g id="a_node9"><a xlink:href="DocumentsService_8h.html" target="_top" xlink:title=" ">
<polygon fill="white" stroke="#666666" points="283,-151 120,-151 120,-132 283,-132 283,-151"/>
<text text-anchor="middle" x="201.5" y="-139" font-family="Helvetica,sans-Serif" font-size="10.00">src/services/DocumentsService.h</text>
</a>
</g>
</g>
<!-- Node3&#45;&gt;Node9 -->
<g id="edge9" class="edge">
<title>Node3&#45;&gt;Node9</title>
<path fill="none" stroke="#63b8ff" d="M342.6,-183.36C309.02,-173.64 262.66,-160.21 232.39,-151.45"/>
<polygon fill="#63b8ff" stroke="#63b8ff" points="341.42,-186.67 352,-186.09 343.37,-179.94 341.42,-186.67"/>
</g>
<!-- Node10 -->
<g id="node10" class="node">
<title>Node10</title>
<g id="a_node10"><a xlink:href="DocumentsView_8h.html" target="_top" xlink:title=" ">
<polygon fill="white" stroke="#666666" points="616,-151 481,-151 481,-132 616,-132 616,-151"/>
<text text-anchor="middle" x="548.5" y="-139" font-family="Helvetica,sans-Serif" font-size="10.00">src/view/DocumentsView.h</text>
</a>
</g>
</g>
<!-- Node3&#45;&gt;Node10 -->
<g id="edge12" class="edge">
<title>Node3&#45;&gt;Node10</title>
<path fill="none" stroke="#63b8ff" d="M423.23,-182.98C453.23,-173.29 494.04,-160.1 520.82,-151.45"/>
<polygon fill="#63b8ff" stroke="#63b8ff" points="422.2,-179.64 413.76,-186.04 424.35,-186.3 422.2,-179.64"/>
</g>
<!-- Node5 -->
<g id="node5" class="node">
<title>Node5</title>
<g id="a_node5"><a xlink:href="DocumentsController_8cpp.html" target="_top" xlink:title=" ">
<polygon fill="white" stroke="#666666" points="771,-30 646,-30 646,0 771,0 771,-30"/>
<text text-anchor="start" x="654" y="-18" font-family="Helvetica,sans-Serif" font-size="10.00">src/controller/Documents</text>
<text text-anchor="middle" x="708.5" y="-7" font-family="Helvetica,sans-Serif" font-size="10.00">Controller.cpp</text>
</a>
</g>
</g>
<!-- Node4&#45;&gt;Node5 -->
<g id="edge4" class="edge">
<title>Node4&#45;&gt;Node5</title>
<path fill="none" stroke="#63b8ff" d="M708.5,-54.39C708.5,-46.13 708.5,-37.28 708.5,-30.16"/>
<polygon fill="#63b8ff" stroke="#63b8ff" points="705,-54.28 708.5,-64.28 712,-54.28 705,-54.28"/>
</g>
<!-- Node6 -->
<g id="node6" class="node">
<title>Node6</title>
<g id="a_node6"><a xlink:href="main_8cpp.html" target="_top" xlink:title=" ">
<polygon fill="white" stroke="#666666" points="470.5,-24.5 398.5,-24.5 398.5,-5.5 470.5,-5.5 470.5,-24.5"/>
<text text-anchor="middle" x="434.5" y="-12.5" font-family="Helvetica,sans-Serif" font-size="10.00">src/main.cpp</text>
</a>
</g>
</g>
<!-- Node4&#45;&gt;Node6 -->
<g id="edge5" class="edge">
<title>Node4&#45;&gt;Node6</title>
<path fill="none" stroke="#63b8ff" d="M635.6,-62.97C582.47,-50.56 512.73,-34.27 470.89,-24.5"/>
<polygon fill="#63b8ff" stroke="#63b8ff" points="634.66,-66.35 645.19,-65.21 636.25,-59.53 634.66,-66.35"/>
</g>
<!-- Node7&#45;&gt;Node6 -->
<g id="edge7" class="edge">
<title>Node7&#45;&gt;Node6</title>
<path fill="none" stroke="#63b8ff" d="M392.36,-120.94C403.37,-93.53 422.93,-44.8 430.94,-24.87"/>
<polygon fill="#63b8ff" stroke="#63b8ff" points="389.14,-119.56 388.66,-130.14 395.63,-122.17 389.14,-119.56"/>
</g>
<!-- Node8 -->
<g id="node8" class="node">
<title>Node8</title>
<g id="a_node8"><a xlink:href="CanvasService_8cpp.html" target="_top" xlink:title=" ">
<polygon fill="white" stroke="#666666" points="387,-90.5 230,-90.5 230,-71.5 387,-71.5 387,-90.5"/>
<text text-anchor="middle" x="308.5" y="-78.5" font-family="Helvetica,sans-Serif" font-size="10.00">src/services/CanvasService.cpp</text>
</a>
</g>
</g>
<!-- Node7&#45;&gt;Node8 -->
<g id="edge8" class="edge">
<title>Node7&#45;&gt;Node8</title>
<path fill="none" stroke="#63b8ff" d="M364.01,-124.73C349.95,-113.9 331.8,-99.93 320.15,-90.97"/>
<polygon fill="#63b8ff" stroke="#63b8ff" points="361.7,-127.37 371.76,-130.69 365.97,-121.82 361.7,-127.37"/>
</g>
<!-- Node9&#45;&gt;Node2 -->
<g id="edge11" class="edge">
<title>Node9&#45;&gt;Node2</title>
<path fill="none" stroke="#63b8ff" d="M173.81,-126.42C152.15,-115.4 122.69,-100.41 104.13,-90.97"/>
<polygon fill="#63b8ff" stroke="#63b8ff" points="172.18,-129.51 182.68,-130.93 175.36,-123.28 172.18,-129.51"/>
</g>
<!-- Node9&#45;&gt;Node6 -->
<g id="edge10" class="edge">
<title>Node9&#45;&gt;Node6</title>
<path fill="none" stroke="#63b8ff" d="M201.19,-120.44C202.06,-103.62 206.07,-80.15 220.5,-66 245.43,-41.57 344.07,-26.51 398.3,-19.92"/>
<polygon fill="#63b8ff" stroke="#63b8ff" points="197.7,-120.17 201.05,-130.22 204.7,-120.28 197.7,-120.17"/>
</g>
<!-- Node10&#45;&gt;Node4 -->
<g id="edge13" class="edge">
<title>Node10&#45;&gt;Node4</title>
<path fill="none" stroke="#63b8ff" d="M583.37,-127.75C608.61,-118.52 642.76,-106.04 669.01,-96.44"/>
<polygon fill="#63b8ff" stroke="#63b8ff" points="582.41,-124.37 574.22,-131.1 584.82,-130.95 582.41,-124.37"/>
</g>
<!-- Node10&#45;&gt;Node6 -->
<g id="edge14" class="edge">
<title>Node10&#45;&gt;Node6</title>
<path fill="none" stroke="#63b8ff" d="M515.57,-126.68C500.95,-119.27 484.39,-108.97 472.5,-96 452.75,-74.47 441.39,-40.83 436.84,-24.92"/>
<polygon fill="#63b8ff" stroke="#63b8ff" points="513.89,-129.75 524.42,-130.91 516.91,-123.44 513.89,-129.75"/>
</g>
<!-- Node11 -->
<g id="node11" class="node">
<title>Node11</title>
<g id="a_node11"><a xlink:href="DocumentsView_8cpp.html" target="_top" xlink:title=" ">
<polygon fill="white" stroke="#666666" points="627.5,-90.5 481.5,-90.5 481.5,-71.5 627.5,-71.5 627.5,-90.5"/>
<text text-anchor="middle" x="554.5" y="-78.5" font-family="Helvetica,sans-Serif" font-size="10.00">src/view/DocumentsView.cpp</text>
</a>
</g>
</g>
<!-- Node10&#45;&gt;Node11 -->
<g id="edge15" class="edge">
<title>Node10&#45;&gt;Node11</title>
<path fill="none" stroke="#63b8ff" d="M550.54,-120.66C551.58,-110.45 552.8,-98.54 553.61,-90.67"/>
<polygon fill="#63b8ff" stroke="#63b8ff" points="547.08,-120.06 549.54,-130.36 554.04,-120.77 547.08,-120.06"/>
</g>
</g>
</svg>
