<?xml version="1.0" encoding="UTF-8" standalone="no"?>
<!DOCTYPE svg PUBLIC "-//W3C//DTD SVG 1.1//EN"
 "http://www.w3.org/Graphics/SVG/1.1/DTD/svg11.dtd">
<!-- Generated by graphviz version 7.0.2 (20221119.0110)
 -->
<!-- Title: src/types/Document.cpp Pages: 1 -->
<svg width="233pt" height="247pt"
 viewBox="0.00 0.00 232.50 247.00" xmlns="http://www.w3.org/2000/svg" xmlns:xlink="http://www.w3.org/1999/xlink">
<g id="graph0" class="graph" transform="scale(1 1) rotate(0) translate(4 243)">
<title>src/types/Document.cpp</title>
<!-- Node1 -->
<g id="node1" class="node">
<title>Node1</title>
<g id="a_node1"><a xlink:title=" ">
<polygon fill="#999999" stroke="#666666" points="122,-239 0,-239 0,-220 122,-220 122,-239"/>
<text text-anchor="middle" x="61" y="-227" font-family="Helvetica,sans-Serif" font-size="10.00">src/types/Document.cpp</text>
</a>
</g>
</g>
<!-- Node2 -->
<g id="node2" class="node">
<title>Node2</title>
<g id="a_node2"><a xlink:href="Document_8h.html" target="_top" xlink:title=" ">
<polygon fill="white" stroke="#666666" points="95,-184 27,-184 27,-165 95,-165 95,-184"/>
<text text-anchor="middle" x="61" y="-172" font-family="Helvetica,sans-Serif" font-size="10.00">Document.h</text>
</a>
</g>
</g>
<!-- Node1&#45;&gt;Node2 -->
<g id="edge1" class="edge">
<title>Node1&#45;&gt;Node2</title>
<path fill="none" stroke="#63b8ff" d="M61,-219.75C61,-213.27 61,-204.16 61,-195.9"/>
<polygon fill="#63b8ff" stroke="#63b8ff" points="64.5,-195.96 61,-185.96 57.5,-195.96 64.5,-195.96"/>
</g>
<!-- Node3 -->
<g id="node3" class="node">
<title>Node3</title>
<g id="a_node3"><a xlink:title=" ">
<polygon fill="#e0e0e0" stroke="#999999" points="89.5,-19 48.5,-19 48.5,0 89.5,0 89.5,-19"/>
<text text-anchor="middle" x="69" y="-7" font-family="Helvetica,sans-Serif" font-size="10.00">string</text>
</a>
</g>
</g>
<!-- Node2&#45;&gt;Node3 -->
<g id="edge2" class="edge">
<title>Node2&#45;&gt;Node3</title>
<path fill="none" stroke="#63b8ff" d="M54.4,-164.68C40.33,-144.73 9.92,-94.78 26,-55 30.43,-44.03 39.01,-34.26 47.35,-26.69"/>
<polygon fill="#63b8ff" stroke="#63b8ff" points="49.5,-29.45 54.93,-20.36 45.01,-24.08 49.5,-29.45"/>
</g>
<!-- Node4 -->
<g id="node4" class="node">
<title>Node4</title>
<g id="a_node4"><a xlink:title=" ">
<polygon fill="#e0e0e0" stroke="#999999" points="86.5,-74 35.5,-74 35.5,-55 86.5,-55 86.5,-74"/>
<text text-anchor="middle" x="61" y="-62" font-family="Helvetica,sans-Serif" font-size="10.00">memory</text>
</a>
</g>
</g>
<!-- Node2&#45;&gt;Node4 -->
<g id="edge3" class="edge">
<title>Node2&#45;&gt;Node4</title>
<path fill="none" stroke="#63b8ff" d="M61,-164.66C61,-147.57 61,-109.61 61,-85.92"/>
<polygon fill="#63b8ff" stroke="#63b8ff" points="64.5,-85.97 61,-75.97 57.5,-85.97 64.5,-85.97"/>
</g>
<!-- Node5 -->
<g id="node5" class="node">
<title>Node5</title>
<g id="a_node5"><a xlink:href="Canvas_8h.html" target="_top" xlink:title=" ">
<polygon fill="white" stroke="#666666" points="154,-129 92,-129 92,-110 154,-110 154,-129"/>
<text text-anchor="middle" x="123" y="-117" font-family="Helvetica,sans-Serif" font-size="10.00">./Canvas.h</text>
</a>
</g>
</g>
<!-- Node2&#45;&gt;Node5 -->
<g id="edge4" class="edge">
<title>Node2&#45;&gt;Node5</title>
<path fill="none" stroke="#63b8ff" d="M71.52,-164.51C80.39,-156.93 93.31,-145.88 103.99,-136.75"/>
<polygon fill="#63b8ff" stroke="#63b8ff" points="106.16,-139.5 111.49,-130.34 101.61,-134.18 106.16,-139.5"/>
</g>
<!-- Node5&#45;&gt;Node4 -->
<g id="edge6" class="edge">
<title>Node5&#45;&gt;Node4</title>
<path fill="none" stroke="#63b8ff" d="M112.48,-109.51C103.61,-101.93 90.69,-90.88 80.01,-81.75"/>
<polygon fill="#63b8ff" stroke="#63b8ff" points="82.39,-79.18 72.51,-75.34 77.84,-84.5 82.39,-79.18"/>
</g>
<!-- Node6 -->
<g id="node6" class="node">
<title>Node6</title>
<g id="a_node6"><a xlink:title=" ">
<polygon fill="#e0e0e0" stroke="#999999" points="149,-74 105,-74 105,-55 149,-55 149,-74"/>
<text text-anchor="middle" x="127" y="-62" font-family="Helvetica,sans-Serif" font-size="10.00">vector</text>
</a>
</g>
</g>
<!-- Node5&#45;&gt;Node6 -->
<g id="edge5" class="edge">
<title>Node5&#45;&gt;Node6</title>
<path fill="none" stroke="#63b8ff" d="M123.66,-109.75C124.15,-103.27 124.84,-94.16 125.46,-85.9"/>
<polygon fill="#63b8ff" stroke="#63b8ff" points="128.95,-86.19 126.21,-75.95 121.97,-85.66 128.95,-86.19"/>
</g>
<!-- Node7 -->
<g id="node7" class="node">
<title>Node7</title>
<g id="a_node7"><a xlink:href="Shape_8h.html" target="_top" xlink:title=" ">
<polygon fill="white" stroke="#666666" points="224.5,-74 167.5,-74 167.5,-55 224.5,-55 224.5,-74"/>
<text text-anchor="middle" x="196" y="-62" font-family="Helvetica,sans-Serif" font-size="10.00">./Shape.h</text>
</a>
</g>
</g>
<!-- Node5&#45;&gt;Node7 -->
<g id="edge7" class="edge">
<title>Node5&#45;&gt;Node7</title>
<path fill="none" stroke="#63b8ff" d="M135.38,-109.51C146.15,-101.7 161.97,-90.21 174.75,-80.93"/>
<polygon fill="#63b8ff" stroke="#63b8ff" points="176.54,-83.95 182.57,-75.25 172.43,-78.29 176.54,-83.95"/>
</g>
<!-- Node7&#45;&gt;Node3 -->
<g id="edge8" class="edge">
<title>Node7&#45;&gt;Node3</title>
<path fill="none" stroke="#63b8ff" d="M174.46,-54.51C154.14,-46.03 123.46,-33.23 100.42,-23.61"/>
<polygon fill="#63b8ff" stroke="#63b8ff" points="101.78,-20.39 91.2,-19.77 99.08,-26.85 101.78,-20.39"/>
</g>
<!-- Node8 -->
<g id="node8" class="node">
<title>Node8</title>
<g id="a_node8"><a xlink:href="Point_8h.html" target="_top" xlink:title=" ">
<polygon fill="white" stroke="#666666" points="222,-19 170,-19 170,0 222,0 222,-19"/>
<text text-anchor="middle" x="196" y="-7" font-family="Helvetica,sans-Serif" font-size="10.00">./Point.h</text>
</a>
</g>
</g>
<!-- Node7&#45;&gt;Node8 -->
<g id="edge9" class="edge">
<title>Node7&#45;&gt;Node8</title>
<path fill="none" stroke="#63b8ff" d="M196,-54.75C196,-48.27 196,-39.16 196,-30.9"/>
<polygon fill="#63b8ff" stroke="#63b8ff" points="199.5,-30.96 196,-20.96 192.5,-30.96 199.5,-30.96"/>
</g>
</g>
</svg>
