<?xml version="1.0" encoding="UTF-8" standalone="no"?>
<!DOCTYPE svg PUBLIC "-//W3C//DTD SVG 1.1//EN"
 "http://www.w3.org/Graphics/SVG/1.1/DTD/svg11.dtd">
<!-- Generated by graphviz version 7.0.2 (20221119.0110)
 -->
<!-- Title: src/controller/DocumentsController.cpp Pages: 1 -->
<svg width="393pt" height="423pt"
 viewBox="0.00 0.00 393.27 423.00" xmlns="http://www.w3.org/2000/svg" xmlns:xlink="http://www.w3.org/1999/xlink">
<g id="graph0" class="graph" transform="scale(1 1) rotate(0) translate(4 419)">
<title>src/controller/DocumentsController.cpp</title>
<!-- Node1 -->
<g id="node1" class="node">
<title>Node1</title>
<g id="a_node1"><a xlink:title=" ">
<polygon fill="#999999" stroke="#666666" points="157.5,-415 32.5,-415 32.5,-385 157.5,-385 157.5,-415"/>
<text text-anchor="start" x="40.5" y="-403" font-family="Helvetica,sans-Serif" font-size="10.00">src/controller/Documents</text>
<text text-anchor="middle" x="95" y="-392" font-family="Helvetica,sans-Serif" font-size="10.00">Controller.cpp</text>
</a>
</g>
</g>
<!-- Node2 -->
<g id="node2" class="node">
<title>Node2</title>
<g id="a_node2"><a xlink:href="DocumentsController_8h.html" target="_top" xlink:title=" ">
<polygon fill="white" stroke="#666666" points="152.5,-349 37.5,-349 37.5,-330 152.5,-330 152.5,-349"/>
<text text-anchor="middle" x="95" y="-337" font-family="Helvetica,sans-Serif" font-size="10.00">DocumentsController.h</text>
</a>
</g>
</g>
<!-- Node1&#45;&gt;Node2 -->
<g id="edge1" class="edge">
<title>Node1&#45;&gt;Node2</title>
<path fill="none" stroke="#63b8ff" d="M95,-384.54C95,-377.34 95,-368.53 95,-360.68"/>
<polygon fill="#63b8ff" stroke="#63b8ff" points="98.5,-360.69 95,-350.69 91.5,-360.69 98.5,-360.69"/>
</g>
<!-- Node3 -->
<g id="node3" class="node">
<title>Node3</title>
<g id="a_node3"><a xlink:title=" ">
<polygon fill="#e0e0e0" stroke="#999999" points="335.5,-19 294.5,-19 294.5,0 335.5,0 335.5,-19"/>
<text text-anchor="middle" x="315" y="-7" font-family="Helvetica,sans-Serif" font-size="10.00">string</text>
</a>
</g>
</g>
<!-- Node2&#45;&gt;Node3 -->
<g id="edge2" class="edge">
<title>Node2&#45;&gt;Node3</title>
<path fill="none" stroke="#63b8ff" d="M78.45,-329.63C51.23,-313.69 0,-277.45 0,-230.5 0,-230.5 0,-230.5 0,-118.5 0,-52.38 228.06,-25.72 282.94,-18.34"/>
<polygon fill="#63b8ff" stroke="#63b8ff" points="283.22,-21.84 292.57,-16.85 282.15,-14.92 283.22,-21.84"/>
</g>
<!-- Node4 -->
<g id="node4" class="node">
<title>Node4</title>
<g id="a_node4"><a xlink:title=" ">
<polygon fill="#e0e0e0" stroke="#999999" points="176.5,-74 125.5,-74 125.5,-55 176.5,-55 176.5,-74"/>
<text text-anchor="middle" x="151" y="-62" font-family="Helvetica,sans-Serif" font-size="10.00">memory</text>
</a>
</g>
</g>
<!-- Node2&#45;&gt;Node4 -->
<g id="edge3" class="edge">
<title>Node2&#45;&gt;Node4</title>
<path fill="none" stroke="#63b8ff" d="M86.34,-329.53C70.4,-312.02 38,-271.42 38,-230.5 38,-230.5 38,-230.5 38,-173.5 38,-128.44 85.53,-96.4 118.94,-79.45"/>
<polygon fill="#63b8ff" stroke="#63b8ff" points="120.37,-82.64 127.85,-75.13 117.32,-76.34 120.37,-82.64"/>
</g>
<!-- Node5 -->
<g id="node5" class="node">
<title>Node5</title>
<g id="a_node5"><a xlink:href="IDocumentsService_8h.html" target="_top" xlink:title=" ">
<polygon fill="white" stroke="#666666" points="337.5,-239 180.5,-239 180.5,-220 337.5,-220 337.5,-239"/>
<text text-anchor="middle" x="259" y="-227" font-family="Helvetica,sans-Serif" font-size="10.00">../services/IDocumentsService.h</text>
</a>
</g>
</g>
<!-- Node2&#45;&gt;Node5 -->
<g id="edge4" class="edge">
<title>Node2&#45;&gt;Node5</title>
<path fill="none" stroke="#63b8ff" d="M135.35,-329.56C159.61,-322.74 190.12,-311.48 213,-294 228.71,-282 241.39,-263.19 249.43,-249.15"/>
<polygon fill="#63b8ff" stroke="#63b8ff" points="252.45,-250.93 254.13,-240.47 246.3,-247.59 252.45,-250.93"/>
</g>
<!-- Node12 -->
<g id="node12" class="node">
<title>Node12</title>
<g id="a_node12"><a xlink:href="DocumentsView_8h.html" target="_top" xlink:title=" ">
<polygon fill="white" stroke="#666666" points="204,-294 78,-294 78,-275 204,-275 204,-294"/>
<text text-anchor="middle" x="141" y="-282" font-family="Helvetica,sans-Serif" font-size="10.00">../view/DocumentsView.h</text>
</a>
</g>
</g>
<!-- Node2&#45;&gt;Node12 -->
<g id="edge19" class="edge">
<title>Node2&#45;&gt;Node12</title>
<path fill="none" stroke="#63b8ff" d="M102.6,-329.75C108.88,-322.5 118.01,-311.98 125.8,-303.02"/>
<polygon fill="#63b8ff" stroke="#63b8ff" points="128.34,-305.43 132.25,-295.59 123.05,-300.84 128.34,-305.43"/>
</g>
<!-- Node5&#45;&gt;Node4 -->
<g id="edge6" class="edge">
<title>Node5&#45;&gt;Node4</title>
<path fill="none" stroke="#63b8ff" d="M238.56,-219.57C208.88,-205.34 155,-174.4 133,-129 126.05,-114.66 131.96,-97.16 138.81,-84.17"/>
<polygon fill="#63b8ff" stroke="#63b8ff" points="141.69,-86.18 143.76,-75.78 135.66,-82.62 141.69,-86.18"/>
</g>
<!-- Node6 -->
<g id="node6" class="node">
<title>Node6</title>
<g id="a_node6"><a xlink:title=" ">
<polygon fill="#e0e0e0" stroke="#999999" points="374,-74 330,-74 330,-55 374,-55 374,-74"/>
<text text-anchor="middle" x="352" y="-62" font-family="Helvetica,sans-Serif" font-size="10.00">vector</text>
</a>
</g>
</g>
<!-- Node5&#45;&gt;Node6 -->
<g id="edge5" class="edge">
<title>Node5&#45;&gt;Node6</title>
<path fill="none" stroke="#63b8ff" d="M289.79,-219.5C308.8,-212.55 332.46,-201.16 348,-184 370.95,-158.66 375.2,-143.62 369,-110 367.43,-101.47 364.29,-92.45 361.13,-84.79"/>
<polygon fill="#63b8ff" stroke="#63b8ff" points="364.4,-83.52 357.14,-75.8 358,-86.36 364.4,-83.52"/>
</g>
<!-- Node7 -->
<g id="node7" class="node">
<title>Node7</title>
<g id="a_node7"><a xlink:href="Document_8h.html" target="_top" xlink:title=" ">
<polygon fill="white" stroke="#666666" points="338.5,-184 243.5,-184 243.5,-165 338.5,-165 338.5,-184"/>
<text text-anchor="middle" x="291" y="-172" font-family="Helvetica,sans-Serif" font-size="10.00">types/Document.h</text>
</a>
</g>
</g>
<!-- Node5&#45;&gt;Node7 -->
<g id="edge7" class="edge">
<title>Node5&#45;&gt;Node7</title>
<path fill="none" stroke="#63b8ff" d="M264.28,-219.75C268.47,-212.81 274.48,-202.86 279.73,-194.16"/>
<polygon fill="#63b8ff" stroke="#63b8ff" points="282.65,-196.11 284.82,-185.74 276.65,-192.49 282.65,-196.11"/>
</g>
<!-- Node11 -->
<g id="node11" class="node">
<title>Node11</title>
<g id="a_node11"><a xlink:href="Observable_8h.html" target="_top" xlink:title=" ">
<polygon fill="white" stroke="#666666" points="242,-129 142,-129 142,-110 242,-110 242,-129"/>
<text text-anchor="middle" x="192" y="-117" font-family="Helvetica,sans-Serif" font-size="10.00">types/Observable.h</text>
</a>
</g>
</g>
<!-- Node5&#45;&gt;Node11 -->
<g id="edge16" class="edge">
<title>Node5&#45;&gt;Node11</title>
<path fill="none" stroke="#63b8ff" d="M253.52,-219.66C242.62,-202.1 218.04,-162.48 203.47,-138.98"/>
<polygon fill="#63b8ff" stroke="#63b8ff" points="206.6,-137.4 198.36,-130.75 200.65,-141.09 206.6,-137.4"/>
</g>
<!-- Node7&#45;&gt;Node3 -->
<g id="edge8" class="edge">
<title>Node7&#45;&gt;Node3</title>
<path fill="none" stroke="#63b8ff" d="M317.51,-164.61C334.63,-157.54 356.06,-145.99 369,-129 384.28,-108.93 379.86,-99.03 383,-74 384.05,-65.62 387.02,-62.43 383,-55 375.09,-40.36 360.03,-29.77 346.1,-22.6"/>
<polygon fill="#63b8ff" stroke="#63b8ff" points="347.7,-19.49 337.16,-18.41 344.73,-25.82 347.7,-19.49"/>
</g>
<!-- Node7&#45;&gt;Node4 -->
<g id="edge9" class="edge">
<title>Node7&#45;&gt;Node4</title>
<path fill="none" stroke="#63b8ff" d="M287.4,-164.54C281.58,-151.07 268.93,-125.52 251,-110 232.7,-94.15 207.84,-83.06 187.49,-75.91"/>
<polygon fill="#63b8ff" stroke="#63b8ff" points="188.75,-72.64 178.16,-72.81 186.55,-79.28 188.75,-72.64"/>
</g>
<!-- Node8 -->
<g id="node8" class="node">
<title>Node8</title>
<g id="a_node8"><a xlink:href="Canvas_8h.html" target="_top" xlink:title=" ">
<polygon fill="white" stroke="#666666" points="360,-129 298,-129 298,-110 360,-110 360,-129"/>
<text text-anchor="middle" x="329" y="-117" font-family="Helvetica,sans-Serif" font-size="10.00">./Canvas.h</text>
</a>
</g>
</g>
<!-- Node7&#45;&gt;Node8 -->
<g id="edge10" class="edge">
<title>Node7&#45;&gt;Node8</title>
<path fill="none" stroke="#63b8ff" d="M297.27,-164.75C302.36,-157.66 309.7,-147.42 316.03,-138.59"/>
<polygon fill="#63b8ff" stroke="#63b8ff" points="318.72,-140.84 321.71,-130.67 313.04,-136.76 318.72,-140.84"/>
</g>
<!-- Node8&#45;&gt;Node4 -->
<g id="edge12" class="edge">
<title>Node8&#45;&gt;Node4</title>
<path fill="none" stroke="#63b8ff" d="M298.8,-109.51C268.19,-100.39 220.78,-86.28 187.95,-76.5"/>
<polygon fill="#63b8ff" stroke="#63b8ff" points="189.03,-73.17 178.44,-73.67 187.03,-79.88 189.03,-73.17"/>
</g>
<!-- Node8&#45;&gt;Node6 -->
<g id="edge11" class="edge">
<title>Node8&#45;&gt;Node6</title>
<path fill="none" stroke="#63b8ff" d="M332.8,-109.75C335.74,-102.96 339.94,-93.3 343.65,-84.73"/>
<polygon fill="#63b8ff" stroke="#63b8ff" points="346.75,-86.4 347.52,-75.83 340.33,-83.61 346.75,-86.4"/>
</g>
<!-- Node9 -->
<g id="node9" class="node">
<title>Node9</title>
<g id="a_node9"><a xlink:href="Shape_8h.html" target="_top" xlink:title=" ">
<polygon fill="white" stroke="#666666" points="311.5,-74 254.5,-74 254.5,-55 311.5,-55 311.5,-74"/>
<text text-anchor="middle" x="283" y="-62" font-family="Helvetica,sans-Serif" font-size="10.00">./Shape.h</text>
</a>
</g>
</g>
<!-- Node8&#45;&gt;Node9 -->
<g id="edge13" class="edge">
<title>Node8&#45;&gt;Node9</title>
<path fill="none" stroke="#63b8ff" d="M321.4,-109.75C315.12,-102.5 305.99,-91.98 298.2,-83.02"/>
<polygon fill="#63b8ff" stroke="#63b8ff" points="300.95,-80.84 291.75,-75.59 295.66,-85.43 300.95,-80.84"/>
</g>
<!-- Node9&#45;&gt;Node3 -->
<g id="edge14" class="edge">
<title>Node9&#45;&gt;Node3</title>
<path fill="none" stroke="#63b8ff" d="M288.28,-54.75C292.47,-47.81 298.48,-37.86 303.73,-29.16"/>
<polygon fill="#63b8ff" stroke="#63b8ff" points="306.65,-31.11 308.82,-20.74 300.65,-27.49 306.65,-31.11"/>
</g>
<!-- Node10 -->
<g id="node10" class="node">
<title>Node10</title>
<g id="a_node10"><a xlink:href="Point_8h.html" target="_top" xlink:title=" ">
<polygon fill="white" stroke="#666666" points="276,-19 224,-19 224,0 276,0 276,-19"/>
<text text-anchor="middle" x="250" y="-7" font-family="Helvetica,sans-Serif" font-size="10.00">./Point.h</text>
</a>
</g>
</g>
<!-- Node9&#45;&gt;Node10 -->
<g id="edge15" class="edge">
<title>Node9&#45;&gt;Node10</title>
<path fill="none" stroke="#63b8ff" d="M277.55,-54.75C273.23,-47.81 267.04,-37.86 261.62,-29.16"/>
<polygon fill="#63b8ff" stroke="#63b8ff" points="264.62,-27.37 256.37,-20.73 258.68,-31.07 264.62,-27.37"/>
</g>
<!-- Node11&#45;&gt;Node4 -->
<g id="edge18" class="edge">
<title>Node11&#45;&gt;Node4</title>
<path fill="none" stroke="#63b8ff" d="M185.23,-109.75C179.68,-102.58 171.66,-92.2 164.77,-83.3"/>
<polygon fill="#63b8ff" stroke="#63b8ff" points="167.73,-81.41 158.84,-75.64 162.19,-85.69 167.73,-81.41"/>
</g>
<!-- Node11&#45;&gt;Node6 -->
<g id="edge17" class="edge">
<title>Node11&#45;&gt;Node6</title>
<path fill="none" stroke="#63b8ff" d="M219.14,-109.51C246.81,-100.34 289.75,-86.12 319.28,-76.34"/>
<polygon fill="#63b8ff" stroke="#63b8ff" points="320.06,-79.77 328.45,-73.3 317.86,-73.12 320.06,-79.77"/>
</g>
<!-- Node12&#45;&gt;Node4 -->
<g id="edge20" class="edge">
<title>Node12&#45;&gt;Node4</title>
<path fill="none" stroke="#63b8ff" d="M138.03,-274.65C129.8,-248.79 108.4,-171.32 125,-110 127.51,-100.74 132.48,-91.42 137.41,-83.73"/>
<polygon fill="#63b8ff" stroke="#63b8ff" points="140.19,-85.86 143.01,-75.64 134.44,-81.87 140.19,-85.86"/>
</g>
<!-- Node12&#45;&gt;Node5 -->
<g id="edge21" class="edge">
<title>Node12&#45;&gt;Node5</title>
<path fill="none" stroke="#63b8ff" d="M161.02,-274.51C179.61,-266.16 207.54,-253.61 228.83,-244.05"/>
<polygon fill="#63b8ff" stroke="#63b8ff" points="230.21,-247.27 237.9,-239.98 227.34,-240.88 230.21,-247.27"/>
</g>
<!-- Node12&#45;&gt;Node11 -->
<g id="edge22" class="edge">
<title>Node12&#45;&gt;Node11</title>
<path fill="none" stroke="#63b8ff" d="M143.74,-274.74C151.66,-249.42 174.72,-175.72 185.85,-140.16"/>
<polygon fill="#63b8ff" stroke="#63b8ff" points="189.15,-141.34 188.79,-130.75 182.47,-139.25 189.15,-141.34"/>
</g>
</g>
</svg>
