<?xml version="1.0" encoding="UTF-8" standalone="no"?>
<!DOCTYPE svg PUBLIC "-//W3C//DTD SVG 1.1//EN"
 "http://www.w3.org/Graphics/SVG/1.1/DTD/svg11.dtd">
<!-- Generated by graphviz version 7.0.2 (20221119.0110)
 -->
<!-- Title: src/view/DocumentsView.h Pages: 1 -->
<svg width="342pt" height="302pt"
 viewBox="0.00 0.00 342.00 302.00" xmlns="http://www.w3.org/2000/svg" xmlns:xlink="http://www.w3.org/1999/xlink">
<g id="graph0" class="graph" transform="scale(1 1) rotate(0) translate(4 298)">
<title>src/view/DocumentsView.h</title>
<!-- Node1 -->
<g id="node1" class="node">
<title>Node1</title>
<g id="a_node1"><a xlink:title=" ">
<polygon fill="#999999" stroke="#666666" points="135,-294 0,-294 0,-275 135,-275 135,-294"/>
<text text-anchor="middle" x="67.5" y="-282" font-family="Helvetica,sans-Serif" font-size="10.00">src/view/DocumentsView.h</text>
</a>
</g>
</g>
<!-- Node2 -->
<g id="node2" class="node">
<title>Node2</title>
<g id="a_node2"><a xlink:title=" ">
<polygon fill="#e0e0e0" stroke="#999999" points="132,-74 81,-74 81,-55 132,-55 132,-74"/>
<text text-anchor="middle" x="106.5" y="-62" font-family="Helvetica,sans-Serif" font-size="10.00">memory</text>
</a>
</g>
</g>
<!-- Node1&#45;&gt;Node2 -->
<g id="edge1" class="edge">
<title>Node1&#45;&gt;Node2</title>
<path fill="none" stroke="#63b8ff" d="M62.49,-274.57C48.22,-247.83 10.3,-166.79 40.5,-110 47.57,-96.71 60.56,-86.68 73.16,-79.53"/>
<polygon fill="#63b8ff" stroke="#63b8ff" points="74.45,-82.81 81.72,-75.11 71.23,-76.59 74.45,-82.81"/>
</g>
<!-- Node3 -->
<g id="node3" class="node">
<title>Node3</title>
<g id="a_node3"><a xlink:href="IDocumentsService_8h.html" target="_top" xlink:title=" ">
<polygon fill="white" stroke="#666666" points="253,-239 96,-239 96,-220 253,-220 253,-239"/>
<text text-anchor="middle" x="174.5" y="-227" font-family="Helvetica,sans-Serif" font-size="10.00">../services/IDocumentsService.h</text>
</a>
</g>
</g>
<!-- Node1&#45;&gt;Node3 -->
<g id="edge2" class="edge">
<title>Node1&#45;&gt;Node3</title>
<path fill="none" stroke="#63b8ff" d="M85.65,-274.51C102.28,-266.27 127.14,-253.96 146.35,-244.45"/>
<polygon fill="#63b8ff" stroke="#63b8ff" points="147.85,-247.6 155.26,-240.03 144.75,-241.33 147.85,-247.6"/>
</g>
<!-- Node10 -->
<g id="node10" class="node">
<title>Node10</title>
<g id="a_node10"><a xlink:href="Observable_8h.html" target="_top" xlink:title=" ">
<polygon fill="white" stroke="#666666" points="156.5,-129 56.5,-129 56.5,-110 156.5,-110 156.5,-129"/>
<text text-anchor="middle" x="106.5" y="-117" font-family="Helvetica,sans-Serif" font-size="10.00">types/Observable.h</text>
</a>
</g>
</g>
<!-- Node1&#45;&gt;Node10 -->
<g id="edge17" class="edge">
<title>Node1&#45;&gt;Node10</title>
<path fill="none" stroke="#63b8ff" d="M69.6,-274.74C75.65,-249.42 93.29,-175.72 101.8,-140.16"/>
<polygon fill="#63b8ff" stroke="#63b8ff" points="105.12,-141.32 104.04,-130.78 98.31,-139.69 105.12,-141.32"/>
</g>
<!-- Node3&#45;&gt;Node2 -->
<g id="edge4" class="edge">
<title>Node3&#45;&gt;Node2</title>
<path fill="none" stroke="#63b8ff" d="M153.9,-219.62C123.99,-205.45 69.69,-174.58 47.5,-129 37.96,-109.41 58.08,-91.67 77.36,-79.95"/>
<polygon fill="#63b8ff" stroke="#63b8ff" points="78.9,-83.1 85.89,-75.14 75.46,-77.01 78.9,-83.1"/>
</g>
<!-- Node4 -->
<g id="node4" class="node">
<title>Node4</title>
<g id="a_node4"><a xlink:title=" ">
<polygon fill="#e0e0e0" stroke="#999999" points="312.5,-74 268.5,-74 268.5,-55 312.5,-55 312.5,-74"/>
<text text-anchor="middle" x="290.5" y="-62" font-family="Helvetica,sans-Serif" font-size="10.00">vector</text>
</a>
</g>
</g>
<!-- Node3&#45;&gt;Node4 -->
<g id="edge3" class="edge">
<title>Node3&#45;&gt;Node4</title>
<path fill="none" stroke="#63b8ff" d="M204.52,-219.58C223.4,-212.6 247.02,-201.17 262.5,-184 287.2,-156.6 291.24,-111.49 291.3,-85.55"/>
<polygon fill="#63b8ff" stroke="#63b8ff" points="294.81,-85.66 291.11,-75.73 287.81,-85.8 294.81,-85.66"/>
</g>
<!-- Node5 -->
<g id="node5" class="node">
<title>Node5</title>
<g id="a_node5"><a xlink:href="Document_8h.html" target="_top" xlink:title=" ">
<polygon fill="white" stroke="#666666" points="253,-184 158,-184 158,-165 253,-165 253,-184"/>
<text text-anchor="middle" x="205.5" y="-172" font-family="Helvetica,sans-Serif" font-size="10.00">types/Document.h</text>
</a>
</g>
</g>
<!-- Node3&#45;&gt;Node5 -->
<g id="edge5" class="edge">
<title>Node3&#45;&gt;Node5</title>
<path fill="none" stroke="#63b8ff" d="M179.62,-219.75C183.68,-212.81 189.49,-202.86 194.59,-194.16"/>
<polygon fill="#63b8ff" stroke="#63b8ff" points="197.48,-196.15 199.51,-185.75 191.44,-192.61 197.48,-196.15"/>
</g>
<!-- Node3&#45;&gt;Node10 -->
<g id="edge14" class="edge">
<title>Node3&#45;&gt;Node10</title>
<path fill="none" stroke="#63b8ff" d="M168.94,-219.66C157.88,-202.1 132.93,-162.48 118.14,-138.98"/>
<polygon fill="#63b8ff" stroke="#63b8ff" points="121.24,-137.34 112.95,-130.74 115.31,-141.07 121.24,-137.34"/>
</g>
<!-- Node5&#45;&gt;Node2 -->
<g id="edge7" class="edge">
<title>Node5&#45;&gt;Node2</title>
<path fill="none" stroke="#63b8ff" d="M201.21,-164.6C194.7,-151.64 181.37,-127.27 165.5,-110 155.29,-98.9 142.02,-88.61 130.65,-80.72"/>
<polygon fill="#63b8ff" stroke="#63b8ff" points="132.78,-77.94 122.52,-75.3 128.89,-83.76 132.78,-77.94"/>
</g>
<!-- Node6 -->
<g id="node6" class="node">
<title>Node6</title>
<g id="a_node6"><a xlink:title=" ">
<polygon fill="#e0e0e0" stroke="#999999" points="334,-19 293,-19 293,0 334,0 334,-19"/>
<text text-anchor="middle" x="313.5" y="-7" font-family="Helvetica,sans-Serif" font-size="10.00">string</text>
</a>
</g>
</g>
<!-- Node5&#45;&gt;Node6 -->
<g id="edge6" class="edge">
<title>Node5&#45;&gt;Node6</title>
<path fill="none" stroke="#63b8ff" d="M226.7,-164.59C243.4,-156.87 266.61,-144.49 283.5,-129 305.39,-108.91 312.65,-102.36 321.5,-74 325.96,-59.69 323.5,-42.83 320.17,-30.08"/>
<polygon fill="#63b8ff" stroke="#63b8ff" points="323.61,-29.34 317.35,-20.78 316.91,-31.37 323.61,-29.34"/>
</g>
<!-- Node7 -->
<g id="node7" class="node">
<title>Node7</title>
<g id="a_node7"><a xlink:href="Canvas_8h.html" target="_top" xlink:title=" ">
<polygon fill="white" stroke="#666666" points="274.5,-129 212.5,-129 212.5,-110 274.5,-110 274.5,-129"/>
<text text-anchor="middle" x="243.5" y="-117" font-family="Helvetica,sans-Serif" font-size="10.00">./Canvas.h</text>
</a>
</g>
</g>
<!-- Node5&#45;&gt;Node7 -->
<g id="edge8" class="edge">
<title>Node5&#45;&gt;Node7</title>
<path fill="none" stroke="#63b8ff" d="M211.77,-164.75C216.86,-157.66 224.2,-147.42 230.53,-138.59"/>
<polygon fill="#63b8ff" stroke="#63b8ff" points="233.22,-140.84 236.21,-130.67 227.54,-136.76 233.22,-140.84"/>
</g>
<!-- Node7&#45;&gt;Node2 -->
<g id="edge10" class="edge">
<title>Node7&#45;&gt;Node2</title>
<path fill="none" stroke="#63b8ff" d="M220.26,-109.51C198.18,-100.97 164.75,-88.03 139.83,-78.4"/>
<polygon fill="#63b8ff" stroke="#63b8ff" points="141.4,-75.25 130.81,-74.9 138.87,-81.78 141.4,-75.25"/>
</g>
<!-- Node7&#45;&gt;Node4 -->
<g id="edge9" class="edge">
<title>Node7&#45;&gt;Node4</title>
<path fill="none" stroke="#63b8ff" d="M251.26,-109.75C257.69,-102.5 267.01,-91.98 274.96,-83.02"/>
<polygon fill="#63b8ff" stroke="#63b8ff" points="277.55,-85.38 281.57,-75.57 272.31,-80.73 277.55,-85.38"/>
</g>
<!-- Node8 -->
<g id="node8" class="node">
<title>Node8</title>
<g id="a_node8"><a xlink:href="Shape_8h.html" target="_top" xlink:title=" ">
<polygon fill="white" stroke="#666666" points="250,-74 193,-74 193,-55 250,-55 250,-74"/>
<text text-anchor="middle" x="221.5" y="-62" font-family="Helvetica,sans-Serif" font-size="10.00">./Shape.h</text>
</a>
</g>
</g>
<!-- Node7&#45;&gt;Node8 -->
<g id="edge11" class="edge">
<title>Node7&#45;&gt;Node8</title>
<path fill="none" stroke="#63b8ff" d="M239.87,-109.75C237.08,-103.04 233.13,-93.52 229.6,-85.02"/>
<polygon fill="#63b8ff" stroke="#63b8ff" points="232.86,-83.73 225.79,-75.84 226.39,-86.42 232.86,-83.73"/>
</g>
<!-- Node8&#45;&gt;Node6 -->
<g id="edge12" class="edge">
<title>Node8&#45;&gt;Node6</title>
<path fill="none" stroke="#63b8ff" d="M237.11,-54.51C251.2,-46.39 272.19,-34.3 288.6,-24.85"/>
<polygon fill="#63b8ff" stroke="#63b8ff" points="289.89,-28.14 296.81,-20.11 286.4,-22.07 289.89,-28.14"/>
</g>
<!-- Node9 -->
<g id="node9" class="node">
<title>Node9</title>
<g id="a_node9"><a xlink:href="Point_8h.html" target="_top" xlink:title=" ">
<polygon fill="white" stroke="#666666" points="247.5,-19 195.5,-19 195.5,0 247.5,0 247.5,-19"/>
<text text-anchor="middle" x="221.5" y="-7" font-family="Helvetica,sans-Serif" font-size="10.00">./Point.h</text>
</a>
</g>
</g>
<!-- Node8&#45;&gt;Node9 -->
<g id="edge13" class="edge">
<title>Node8&#45;&gt;Node9</title>
<path fill="none" stroke="#63b8ff" d="M221.5,-54.75C221.5,-48.27 221.5,-39.16 221.5,-30.9"/>
<polygon fill="#63b8ff" stroke="#63b8ff" points="225,-30.96 221.5,-20.96 218,-30.96 225,-30.96"/>
</g>
<!-- Node10&#45;&gt;Node2 -->
<g id="edge16" class="edge">
<title>Node10&#45;&gt;Node2</title>
<path fill="none" stroke="#63b8ff" d="M106.5,-109.75C106.5,-103.27 106.5,-94.16 106.5,-85.9"/>
<polygon fill="#63b8ff" stroke="#63b8ff" points="110,-85.96 106.5,-75.96 103,-85.96 110,-85.96"/>
</g>
<!-- Node10&#45;&gt;Node4 -->
<g id="edge15" class="edge">
<title>Node10&#45;&gt;Node4</title>
<path fill="none" stroke="#63b8ff" d="M137.71,-109.51C170.97,-99.93 223.4,-84.83 257.37,-75.04"/>
<polygon fill="#63b8ff" stroke="#63b8ff" points="258.03,-78.49 266.67,-72.36 256.1,-71.77 258.03,-78.49"/>
</g>
</g>
</svg>
