<?xml version="1.0" encoding="UTF-8" standalone="no"?>
<!DOCTYPE svg PUBLIC "-//W3C//DTD SVG 1.1//EN"
 "http://www.w3.org/Graphics/SVG/1.1/DTD/svg11.dtd">
<!-- Generated by graphviz version 7.0.2 (20221119.0110)
 -->
<!-- Title: src/services/DocumentsService.cpp Pages: 1 -->
<svg width="322pt" height="357pt"
 viewBox="0.00 0.00 322.49 357.00" xmlns="http://www.w3.org/2000/svg" xmlns:xlink="http://www.w3.org/1999/xlink">
<g id="graph0" class="graph" transform="scale(1 1) rotate(0) translate(4 353)">
<title>src/services/DocumentsService.cpp</title>
<!-- Node1 -->
<g id="node1" class="node">
<title>Node1</title>
<g id="a_node1"><a xlink:title=" ">
<polygon fill="#999999" stroke="#666666" points="307.49,-349 134.49,-349 134.49,-330 307.49,-330 307.49,-349"/>
<text text-anchor="middle" x="220.99" y="-337" font-family="Helvetica,sans-Serif" font-size="10.00">src/services/DocumentsService.cpp</text>
</a>
</g>
</g>
<!-- Node2 -->
<g id="node2" class="node">
<title>Node2</title>
<g id="a_node2"><a xlink:href="DocumentsService_8h.html" target="_top" xlink:title=" ">
<polygon fill="white" stroke="#666666" points="190.49,-294 83.49,-294 83.49,-275 190.49,-275 190.49,-294"/>
<text text-anchor="middle" x="136.99" y="-282" font-family="Helvetica,sans-Serif" font-size="10.00">DocumentsService.h</text>
</a>
</g>
</g>
<!-- Node1&#45;&gt;Node2 -->
<g id="edge1" class="edge">
<title>Node1&#45;&gt;Node2</title>
<path fill="none" stroke="#63b8ff" d="M206.74,-329.51C194.12,-321.54 175.43,-309.75 160.58,-300.38"/>
<polygon fill="#63b8ff" stroke="#63b8ff" points="162.64,-297.54 152.31,-295.17 158.9,-303.46 162.64,-297.54"/>
</g>
<!-- Node6 -->
<g id="node6" class="node">
<title>Node6</title>
<g id="a_node6"><a xlink:href="Document_8h.html" target="_top" xlink:title=" ">
<polygon fill="white" stroke="#666666" points="268.49,-184 173.49,-184 173.49,-165 268.49,-165 268.49,-184"/>
<text text-anchor="middle" x="220.99" y="-172" font-family="Helvetica,sans-Serif" font-size="10.00">types/Document.h</text>
</a>
</g>
</g>
<!-- Node1&#45;&gt;Node6 -->
<g id="edge18" class="edge">
<title>Node1&#45;&gt;Node6</title>
<path fill="none" stroke="#63b8ff" d="M220.99,-329.74C220.99,-304.53 220.99,-231.36 220.99,-195.62"/>
<polygon fill="#63b8ff" stroke="#63b8ff" points="224.49,-195.82 220.99,-185.82 217.49,-195.82 224.49,-195.82"/>
</g>
<!-- Node12 -->
<g id="node12" class="node">
<title>Node12</title>
<g id="a_node12"><a xlink:title=" ">
<polygon fill="#e0e0e0" stroke="#999999" points="302.99,-294 248.99,-294 248.99,-275 302.99,-275 302.99,-294"/>
<text text-anchor="middle" x="275.99" y="-282" font-family="Helvetica,sans-Serif" font-size="10.00">iostream</text>
</a>
</g>
</g>
<!-- Node1&#45;&gt;Node12 -->
<g id="edge17" class="edge">
<title>Node1&#45;&gt;Node12</title>
<path fill="none" stroke="#63b8ff" d="M230.08,-329.75C237.83,-322.27 249.2,-311.32 258.69,-302.17"/>
<polygon fill="#63b8ff" stroke="#63b8ff" points="260.85,-304.95 265.62,-295.49 255.99,-299.91 260.85,-304.95"/>
</g>
<!-- Node3 -->
<g id="node3" class="node">
<title>Node3</title>
<g id="a_node3"><a xlink:href="IDocumentsService_8h.html" target="_top" xlink:title=" ">
<polygon fill="white" stroke="#666666" points="192.49,-239 77.49,-239 77.49,-220 192.49,-220 192.49,-239"/>
<text text-anchor="middle" x="134.99" y="-227" font-family="Helvetica,sans-Serif" font-size="10.00">./IDocumentsService.h</text>
</a>
</g>
</g>
<!-- Node2&#45;&gt;Node3 -->
<g id="edge2" class="edge">
<title>Node2&#45;&gt;Node3</title>
<path fill="none" stroke="#63b8ff" d="M136.66,-274.75C136.42,-268.27 136.07,-259.16 135.76,-250.9"/>
<polygon fill="#63b8ff" stroke="#63b8ff" points="139.26,-250.82 135.39,-240.95 132.27,-251.08 139.26,-250.82"/>
</g>
<!-- Node4 -->
<g id="node4" class="node">
<title>Node4</title>
<g id="a_node4"><a xlink:title=" ">
<polygon fill="#e0e0e0" stroke="#999999" points="83.99,-74 39.99,-74 39.99,-55 83.99,-55 83.99,-74"/>
<text text-anchor="middle" x="61.99" y="-62" font-family="Helvetica,sans-Serif" font-size="10.00">vector</text>
</a>
</g>
</g>
<!-- Node3&#45;&gt;Node4 -->
<g id="edge3" class="edge">
<title>Node3&#45;&gt;Node4</title>
<path fill="none" stroke="#63b8ff" d="M112.83,-219.51C81.63,-205.47 25.97,-175.1 2.99,-129 -6.73,-109.5 13.41,-91.75 32.75,-80"/>
<polygon fill="#63b8ff" stroke="#63b8ff" points="34.32,-83.14 41.31,-75.18 30.88,-77.04 34.32,-83.14"/>
</g>
<!-- Node5 -->
<g id="node5" class="node">
<title>Node5</title>
<g id="a_node5"><a xlink:title=" ">
<polygon fill="#e0e0e0" stroke="#999999" points="170.49,-74 119.49,-74 119.49,-55 170.49,-55 170.49,-74"/>
<text text-anchor="middle" x="144.99" y="-62" font-family="Helvetica,sans-Serif" font-size="10.00">memory</text>
</a>
</g>
</g>
<!-- Node3&#45;&gt;Node5 -->
<g id="edge4" class="edge">
<title>Node3&#45;&gt;Node5</title>
<path fill="none" stroke="#63b8ff" d="M135.53,-219.74C137.08,-194.53 141.57,-121.36 143.76,-85.62"/>
<polygon fill="#63b8ff" stroke="#63b8ff" points="147.24,-86.01 144.36,-75.82 140.25,-85.58 147.24,-86.01"/>
</g>
<!-- Node3&#45;&gt;Node6 -->
<g id="edge5" class="edge">
<title>Node3&#45;&gt;Node6</title>
<path fill="none" stroke="#63b8ff" d="M149.58,-219.51C162.51,-211.54 181.64,-199.75 196.84,-190.38"/>
<polygon fill="#63b8ff" stroke="#63b8ff" points="198.65,-193.38 205.33,-185.15 194.98,-187.42 198.65,-193.38"/>
</g>
<!-- Node11 -->
<g id="node11" class="node">
<title>Node11</title>
<g id="a_node11"><a xlink:href="Observable_8h.html" target="_top" xlink:title=" ">
<polygon fill="white" stroke="#666666" points="111.99,-129 11.99,-129 11.99,-110 111.99,-110 111.99,-129"/>
<text text-anchor="middle" x="61.99" y="-117" font-family="Helvetica,sans-Serif" font-size="10.00">types/Observable.h</text>
</a>
</g>
</g>
<!-- Node3&#45;&gt;Node11 -->
<g id="edge14" class="edge">
<title>Node3&#45;&gt;Node11</title>
<path fill="none" stroke="#63b8ff" d="M129.02,-219.66C117.15,-202.1 90.37,-162.48 74.49,-138.98"/>
<polygon fill="#63b8ff" stroke="#63b8ff" points="77.4,-137.04 68.9,-130.71 71.6,-140.96 77.4,-137.04"/>
</g>
<!-- Node6&#45;&gt;Node5 -->
<g id="edge7" class="edge">
<title>Node6&#45;&gt;Node5</title>
<path fill="none" stroke="#63b8ff" d="M227.73,-164.64C236.64,-151.74 250.02,-127.43 238.99,-110 232.24,-99.33 204.81,-87.04 181.31,-78.08"/>
<polygon fill="#63b8ff" stroke="#63b8ff" points="182.56,-74.81 171.96,-74.62 180.13,-81.37 182.56,-74.81"/>
</g>
<!-- Node7 -->
<g id="node7" class="node">
<title>Node7</title>
<g id="a_node7"><a xlink:title=" ">
<polygon fill="#e0e0e0" stroke="#999999" points="314.49,-19 273.49,-19 273.49,0 314.49,0 314.49,-19"/>
<text text-anchor="middle" x="293.99" y="-7" font-family="Helvetica,sans-Serif" font-size="10.00">string</text>
</a>
</g>
</g>
<!-- Node6&#45;&gt;Node7 -->
<g id="edge6" class="edge">
<title>Node6&#45;&gt;Node7</title>
<path fill="none" stroke="#63b8ff" d="M229.27,-164.58C236.84,-156.01 247.92,-142.42 254.99,-129 272.2,-96.36 283.78,-54.68 289.6,-30.45"/>
<polygon fill="#63b8ff" stroke="#63b8ff" points="293.01,-31.23 291.84,-20.7 286.19,-29.66 293.01,-31.23"/>
</g>
<!-- Node8 -->
<g id="node8" class="node">
<title>Node8</title>
<g id="a_node8"><a xlink:href="Canvas_8h.html" target="_top" xlink:title=" ">
<polygon fill="white" stroke="#666666" points="229.99,-129 167.99,-129 167.99,-110 229.99,-110 229.99,-129"/>
<text text-anchor="middle" x="198.99" y="-117" font-family="Helvetica,sans-Serif" font-size="10.00">./Canvas.h</text>
</a>
</g>
</g>
<!-- Node6&#45;&gt;Node8 -->
<g id="edge8" class="edge">
<title>Node6&#45;&gt;Node8</title>
<path fill="none" stroke="#63b8ff" d="M217.36,-164.75C214.57,-158.04 210.62,-148.52 207.1,-140.02"/>
<polygon fill="#63b8ff" stroke="#63b8ff" points="210.35,-138.73 203.29,-130.84 203.89,-141.42 210.35,-138.73"/>
</g>
<!-- Node8&#45;&gt;Node4 -->
<g id="edge9" class="edge">
<title>Node8&#45;&gt;Node4</title>
<path fill="none" stroke="#63b8ff" d="M175.75,-109.51C153.54,-100.92 119.84,-87.88 94.88,-78.22"/>
<polygon fill="#63b8ff" stroke="#63b8ff" points="96.44,-75.07 85.85,-74.73 93.91,-81.6 96.44,-75.07"/>
</g>
<!-- Node8&#45;&gt;Node5 -->
<g id="edge10" class="edge">
<title>Node8&#45;&gt;Node5</title>
<path fill="none" stroke="#63b8ff" d="M190.08,-109.75C182.54,-102.35 171.52,-91.54 162.27,-82.45"/>
<polygon fill="#63b8ff" stroke="#63b8ff" points="164.77,-80.01 155.18,-75.5 159.87,-85 164.77,-80.01"/>
</g>
<!-- Node9 -->
<g id="node9" class="node">
<title>Node9</title>
<g id="a_node9"><a xlink:href="Shape_8h.html" target="_top" xlink:title=" ">
<polygon fill="white" stroke="#666666" points="248.49,-74 191.49,-74 191.49,-55 248.49,-55 248.49,-74"/>
<text text-anchor="middle" x="219.99" y="-62" font-family="Helvetica,sans-Serif" font-size="10.00">./Shape.h</text>
</a>
</g>
</g>
<!-- Node8&#45;&gt;Node9 -->
<g id="edge11" class="edge">
<title>Node8&#45;&gt;Node9</title>
<path fill="none" stroke="#63b8ff" d="M202.46,-109.75C205.12,-103.04 208.89,-93.52 212.26,-85.02"/>
<polygon fill="#63b8ff" stroke="#63b8ff" points="215.46,-86.44 215.89,-75.85 208.96,-83.86 215.46,-86.44"/>
</g>
<!-- Node9&#45;&gt;Node7 -->
<g id="edge12" class="edge">
<title>Node9&#45;&gt;Node7</title>
<path fill="none" stroke="#63b8ff" d="M232.55,-54.51C243.46,-46.7 259.5,-35.21 272.45,-25.93"/>
<polygon fill="#63b8ff" stroke="#63b8ff" points="274.3,-28.91 280.4,-20.24 270.23,-23.22 274.3,-28.91"/>
</g>
<!-- Node10 -->
<g id="node10" class="node">
<title>Node10</title>
<g id="a_node10"><a xlink:href="Point_8h.html" target="_top" xlink:title=" ">
<polygon fill="white" stroke="#666666" points="245.99,-19 193.99,-19 193.99,0 245.99,0 245.99,-19"/>
<text text-anchor="middle" x="219.99" y="-7" font-family="Helvetica,sans-Serif" font-size="10.00">./Point.h</text>
</a>
</g>
</g>
<!-- Node9&#45;&gt;Node10 -->
<g id="edge13" class="edge">
<title>Node9&#45;&gt;Node10</title>
<path fill="none" stroke="#63b8ff" d="M219.99,-54.75C219.99,-48.27 219.99,-39.16 219.99,-30.9"/>
<polygon fill="#63b8ff" stroke="#63b8ff" points="223.49,-30.96 219.99,-20.96 216.49,-30.96 223.49,-30.96"/>
</g>
<!-- Node11&#45;&gt;Node4 -->
<g id="edge15" class="edge">
<title>Node11&#45;&gt;Node4</title>
<path fill="none" stroke="#63b8ff" d="M61.99,-109.75C61.99,-103.27 61.99,-94.16 61.99,-85.9"/>
<polygon fill="#63b8ff" stroke="#63b8ff" points="65.49,-85.96 61.99,-75.96 58.49,-85.96 65.49,-85.96"/>
</g>
<!-- Node11&#45;&gt;Node5 -->
<g id="edge16" class="edge">
<title>Node11&#45;&gt;Node5</title>
<path fill="none" stroke="#63b8ff" d="M76.07,-109.51C88.55,-101.54 107.01,-89.75 121.69,-80.38"/>
<polygon fill="#63b8ff" stroke="#63b8ff" points="123.3,-83.5 129.85,-75.17 119.53,-77.6 123.3,-83.5"/>
</g>
</g>
</svg>
