<?xml version="1.0" encoding="UTF-8" standalone="no"?>
<!DOCTYPE svg PUBLIC "-//W3C//DTD SVG 1.1//EN"
 "http://www.w3.org/Graphics/SVG/1.1/DTD/svg11.dtd">
<!-- Generated by graphviz version 7.0.2 (20221119.0110)
 -->
<!-- Title: src/view/DocumentsView.cpp Pages: 1 -->
<svg width="322pt" height="357pt"
 viewBox="0.00 0.00 322.00 357.00" xmlns="http://www.w3.org/2000/svg" xmlns:xlink="http://www.w3.org/1999/xlink">
<g id="graph0" class="graph" transform="scale(1 1) rotate(0) translate(4 353)">
<title>src/view/DocumentsView.cpp</title>
<!-- Node1 -->
<g id="node1" class="node">
<title>Node1</title>
<g id="a_node1"><a xlink:title=" ">
<polygon fill="#999999" stroke="#666666" points="166.5,-349 20.5,-349 20.5,-330 166.5,-330 166.5,-349"/>
<text text-anchor="middle" x="93.5" y="-337" font-family="Helvetica,sans-Serif" font-size="10.00">src/view/DocumentsView.cpp</text>
</a>
</g>
</g>
<!-- Node2 -->
<g id="node2" class="node">
<title>Node2</title>
<g id="a_node2"><a xlink:href="DocumentsView_8h.html" target="_top" xlink:title=" ">
<polygon fill="white" stroke="#666666" points="95,-294 0,-294 0,-275 95,-275 95,-294"/>
<text text-anchor="middle" x="47.5" y="-282" font-family="Helvetica,sans-Serif" font-size="10.00">DocumentsView.h</text>
</a>
</g>
</g>
<!-- Node1&#45;&gt;Node2 -->
<g id="edge1" class="edge">
<title>Node1&#45;&gt;Node2</title>
<path fill="none" stroke="#63b8ff" d="M85.9,-329.75C79.62,-322.5 70.49,-311.98 62.7,-303.02"/>
<polygon fill="#63b8ff" stroke="#63b8ff" points="65.45,-300.84 56.25,-295.59 60.16,-305.43 65.45,-300.84"/>
</g>
<!-- Node12 -->
<g id="node12" class="node">
<title>Node12</title>
<g id="a_node12"><a xlink:title=" ">
<polygon fill="#e0e0e0" stroke="#999999" points="167.5,-294 113.5,-294 113.5,-275 167.5,-275 167.5,-294"/>
<text text-anchor="middle" x="140.5" y="-282" font-family="Helvetica,sans-Serif" font-size="10.00">iostream</text>
</a>
</g>
</g>
<!-- Node1&#45;&gt;Node12 -->
<g id="edge19" class="edge">
<title>Node1&#45;&gt;Node12</title>
<path fill="none" stroke="#63b8ff" d="M101.26,-329.75C107.69,-322.5 117.01,-311.98 124.96,-303.02"/>
<polygon fill="#63b8ff" stroke="#63b8ff" points="127.55,-305.38 131.57,-295.57 122.31,-300.73 127.55,-305.38"/>
</g>
<!-- Node3 -->
<g id="node3" class="node">
<title>Node3</title>
<g id="a_node3"><a xlink:title=" ">
<polygon fill="#e0e0e0" stroke="#999999" points="112,-74 61,-74 61,-55 112,-55 112,-74"/>
<text text-anchor="middle" x="86.5" y="-62" font-family="Helvetica,sans-Serif" font-size="10.00">memory</text>
</a>
</g>
</g>
<!-- Node2&#45;&gt;Node3 -->
<g id="edge2" class="edge">
<title>Node2&#45;&gt;Node3</title>
<path fill="none" stroke="#63b8ff" d="M42.49,-274.57C28.22,-247.83 -9.7,-166.79 20.5,-110 27.57,-96.71 40.56,-86.68 53.16,-79.53"/>
<polygon fill="#63b8ff" stroke="#63b8ff" points="54.45,-82.81 61.72,-75.11 51.23,-76.59 54.45,-82.81"/>
</g>
<!-- Node4 -->
<g id="node4" class="node">
<title>Node4</title>
<g id="a_node4"><a xlink:href="IDocumentsService_8h.html" target="_top" xlink:title=" ">
<polygon fill="white" stroke="#666666" points="233,-239 76,-239 76,-220 233,-220 233,-239"/>
<text text-anchor="middle" x="154.5" y="-227" font-family="Helvetica,sans-Serif" font-size="10.00">../services/IDocumentsService.h</text>
</a>
</g>
</g>
<!-- Node2&#45;&gt;Node4 -->
<g id="edge3" class="edge">
<title>Node2&#45;&gt;Node4</title>
<path fill="none" stroke="#63b8ff" d="M65.65,-274.51C82.28,-266.27 107.14,-253.96 126.35,-244.45"/>
<polygon fill="#63b8ff" stroke="#63b8ff" points="127.85,-247.6 135.26,-240.03 124.75,-241.33 127.85,-247.6"/>
</g>
<!-- Node11 -->
<g id="node11" class="node">
<title>Node11</title>
<g id="a_node11"><a xlink:href="Observable_8h.html" target="_top" xlink:title=" ">
<polygon fill="white" stroke="#666666" points="136.5,-129 36.5,-129 36.5,-110 136.5,-110 136.5,-129"/>
<text text-anchor="middle" x="86.5" y="-117" font-family="Helvetica,sans-Serif" font-size="10.00">types/Observable.h</text>
</a>
</g>
</g>
<!-- Node2&#45;&gt;Node11 -->
<g id="edge18" class="edge">
<title>Node2&#45;&gt;Node11</title>
<path fill="none" stroke="#63b8ff" d="M49.6,-274.74C55.65,-249.42 73.29,-175.72 81.8,-140.16"/>
<polygon fill="#63b8ff" stroke="#63b8ff" points="85.12,-141.32 84.04,-130.78 78.31,-139.69 85.12,-141.32"/>
</g>
<!-- Node4&#45;&gt;Node3 -->
<g id="edge5" class="edge">
<title>Node4&#45;&gt;Node3</title>
<path fill="none" stroke="#63b8ff" d="M133.9,-219.62C103.99,-205.45 49.69,-174.58 27.5,-129 17.96,-109.41 38.08,-91.67 57.36,-79.95"/>
<polygon fill="#63b8ff" stroke="#63b8ff" points="58.9,-83.1 65.89,-75.14 55.46,-77.01 58.9,-83.1"/>
</g>
<!-- Node5 -->
<g id="node5" class="node">
<title>Node5</title>
<g id="a_node5"><a xlink:title=" ">
<polygon fill="#e0e0e0" stroke="#999999" points="292.5,-74 248.5,-74 248.5,-55 292.5,-55 292.5,-74"/>
<text text-anchor="middle" x="270.5" y="-62" font-family="Helvetica,sans-Serif" font-size="10.00">vector</text>
</a>
</g>
</g>
<!-- Node4&#45;&gt;Node5 -->
<g id="edge4" class="edge">
<title>Node4&#45;&gt;Node5</title>
<path fill="none" stroke="#63b8ff" d="M184.52,-219.58C203.4,-212.6 227.02,-201.17 242.5,-184 267.2,-156.6 271.24,-111.49 271.3,-85.55"/>
<polygon fill="#63b8ff" stroke="#63b8ff" points="274.81,-85.66 271.11,-75.73 267.81,-85.8 274.81,-85.66"/>
</g>
<!-- Node6 -->
<g id="node6" class="node">
<title>Node6</title>
<g id="a_node6"><a xlink:href="Document_8h.html" target="_top" xlink:title=" ">
<polygon fill="white" stroke="#666666" points="233,-184 138,-184 138,-165 233,-165 233,-184"/>
<text text-anchor="middle" x="185.5" y="-172" font-family="Helvetica,sans-Serif" font-size="10.00">types/Document.h</text>
</a>
</g>
</g>
<!-- Node4&#45;&gt;Node6 -->
<g id="edge6" class="edge">
<title>Node4&#45;&gt;Node6</title>
<path fill="none" stroke="#63b8ff" d="M159.62,-219.75C163.68,-212.81 169.49,-202.86 174.59,-194.16"/>
<polygon fill="#63b8ff" stroke="#63b8ff" points="177.48,-196.15 179.51,-185.75 171.44,-192.61 177.48,-196.15"/>
</g>
<!-- Node4&#45;&gt;Node11 -->
<g id="edge15" class="edge">
<title>Node4&#45;&gt;Node11</title>
<path fill="none" stroke="#63b8ff" d="M148.94,-219.66C137.88,-202.1 112.93,-162.48 98.14,-138.98"/>
<polygon fill="#63b8ff" stroke="#63b8ff" points="101.24,-137.34 92.95,-130.74 95.31,-141.07 101.24,-137.34"/>
</g>
<!-- Node6&#45;&gt;Node3 -->
<g id="edge8" class="edge">
<title>Node6&#45;&gt;Node3</title>
<path fill="none" stroke="#63b8ff" d="M181.21,-164.6C174.7,-151.64 161.37,-127.27 145.5,-110 135.29,-98.9 122.02,-88.61 110.65,-80.72"/>
<polygon fill="#63b8ff" stroke="#63b8ff" points="112.78,-77.94 102.52,-75.3 108.89,-83.76 112.78,-77.94"/>
</g>
<!-- Node7 -->
<g id="node7" class="node">
<title>Node7</title>
<g id="a_node7"><a xlink:title=" ">
<polygon fill="#e0e0e0" stroke="#999999" points="314,-19 273,-19 273,0 314,0 314,-19"/>
<text text-anchor="middle" x="293.5" y="-7" font-family="Helvetica,sans-Serif" font-size="10.00">string</text>
</a>
</g>
</g>
<!-- Node6&#45;&gt;Node7 -->
<g id="edge7" class="edge">
<title>Node6&#45;&gt;Node7</title>
<path fill="none" stroke="#63b8ff" d="M206.7,-164.59C223.4,-156.87 246.61,-144.49 263.5,-129 285.39,-108.91 292.65,-102.36 301.5,-74 305.96,-59.69 303.5,-42.83 300.17,-30.08"/>
<polygon fill="#63b8ff" stroke="#63b8ff" points="303.61,-29.34 297.35,-20.78 296.91,-31.37 303.61,-29.34"/>
</g>
<!-- Node8 -->
<g id="node8" class="node">
<title>Node8</title>
<g id="a_node8"><a xlink:href="Canvas_8h.html" target="_top" xlink:title=" ">
<polygon fill="white" stroke="#666666" points="254.5,-129 192.5,-129 192.5,-110 254.5,-110 254.5,-129"/>
<text text-anchor="middle" x="223.5" y="-117" font-family="Helvetica,sans-Serif" font-size="10.00">./Canvas.h</text>
</a>
</g>
</g>
<!-- Node6&#45;&gt;Node8 -->
<g id="edge9" class="edge">
<title>Node6&#45;&gt;Node8</title>
<path fill="none" stroke="#63b8ff" d="M191.77,-164.75C196.86,-157.66 204.2,-147.42 210.53,-138.59"/>
<polygon fill="#63b8ff" stroke="#63b8ff" points="213.22,-140.84 216.21,-130.67 207.54,-136.76 213.22,-140.84"/>
</g>
<!-- Node8&#45;&gt;Node3 -->
<g id="edge11" class="edge">
<title>Node8&#45;&gt;Node3</title>
<path fill="none" stroke="#63b8ff" d="M200.26,-109.51C178.18,-100.97 144.75,-88.03 119.83,-78.4"/>
<polygon fill="#63b8ff" stroke="#63b8ff" points="121.4,-75.25 110.81,-74.9 118.87,-81.78 121.4,-75.25"/>
</g>
<!-- Node8&#45;&gt;Node5 -->
<g id="edge10" class="edge">
<title>Node8&#45;&gt;Node5</title>
<path fill="none" stroke="#63b8ff" d="M231.26,-109.75C237.69,-102.5 247.01,-91.98 254.96,-83.02"/>
<polygon fill="#63b8ff" stroke="#63b8ff" points="257.55,-85.38 261.57,-75.57 252.31,-80.73 257.55,-85.38"/>
</g>
<!-- Node9 -->
<g id="node9" class="node">
<title>Node9</title>
<g id="a_node9"><a xlink:href="Shape_8h.html" target="_top" xlink:title=" ">
<polygon fill="white" stroke="#666666" points="230,-74 173,-74 173,-55 230,-55 230,-74"/>
<text text-anchor="middle" x="201.5" y="-62" font-family="Helvetica,sans-Serif" font-size="10.00">./Shape.h</text>
</a>
</g>
</g>
<!-- Node8&#45;&gt;Node9 -->
<g id="edge12" class="edge">
<title>Node8&#45;&gt;Node9</title>
<path fill="none" stroke="#63b8ff" d="M219.87,-109.75C217.08,-103.04 213.13,-93.52 209.6,-85.02"/>
<polygon fill="#63b8ff" stroke="#63b8ff" points="212.86,-83.73 205.79,-75.84 206.39,-86.42 212.86,-83.73"/>
</g>
<!-- Node9&#45;&gt;Node7 -->
<g id="edge13" class="edge">
<title>Node9&#45;&gt;Node7</title>
<path fill="none" stroke="#63b8ff" d="M217.11,-54.51C231.2,-46.39 252.19,-34.3 268.6,-24.85"/>
<polygon fill="#63b8ff" stroke="#63b8ff" points="269.89,-28.14 276.81,-20.11 266.4,-22.07 269.89,-28.14"/>
</g>
<!-- Node10 -->
<g id="node10" class="node">
<title>Node10</title>
<g id="a_node10"><a xlink:href="Point_8h.html" target="_top" xlink:title=" ">
<polygon fill="white" stroke="#666666" points="227.5,-19 175.5,-19 175.5,0 227.5,0 227.5,-19"/>
<text text-anchor="middle" x="201.5" y="-7" font-family="Helvetica,sans-Serif" font-size="10.00">./Point.h</text>
</a>
</g>
</g>
<!-- Node9&#45;&gt;Node10 -->
<g id="edge14" class="edge">
<title>Node9&#45;&gt;Node10</title>
<path fill="none" stroke="#63b8ff" d="M201.5,-54.75C201.5,-48.27 201.5,-39.16 201.5,-30.9"/>
<polygon fill="#63b8ff" stroke="#63b8ff" points="205,-30.96 201.5,-20.96 198,-30.96 205,-30.96"/>
</g>
<!-- Node11&#45;&gt;Node3 -->
<g id="edge17" class="edge">
<title>Node11&#45;&gt;Node3</title>
<path fill="none" stroke="#63b8ff" d="M86.5,-109.75C86.5,-103.27 86.5,-94.16 86.5,-85.9"/>
<polygon fill="#63b8ff" stroke="#63b8ff" points="90,-85.96 86.5,-75.96 83,-85.96 90,-85.96"/>
</g>
<!-- Node11&#45;&gt;Node5 -->
<g id="edge16" class="edge">
<title>Node11&#45;&gt;Node5</title>
<path fill="none" stroke="#63b8ff" d="M117.71,-109.51C150.97,-99.93 203.4,-84.83 237.37,-75.04"/>
<polygon fill="#63b8ff" stroke="#63b8ff" points="238.03,-78.49 246.67,-72.36 236.1,-71.77 238.03,-78.49"/>
</g>
</g>
</svg>
