<?xml version="1.0" encoding="UTF-8" standalone="no"?>
<!DOCTYPE svg PUBLIC "-//W3C//DTD SVG 1.1//EN"
 "http://www.w3.org/Graphics/SVG/1.1/DTD/svg11.dtd">
<!-- Generated by graphviz version 7.0.2 (20221119.0110)
 -->
<!-- Title: src/types/Document.h Pages: 1 -->
<svg width="227pt" height="192pt"
 viewBox="0.00 0.00 227.00 192.00" xmlns="http://www.w3.org/2000/svg" xmlns:xlink="http://www.w3.org/1999/xlink">
<g id="graph0" class="graph" transform="scale(1 1) rotate(0) translate(4 188)">
<title>src/types/Document.h</title>
<!-- Node1 -->
<g id="node1" class="node">
<title>Node1</title>
<g id="a_node1"><a xlink:title=" ">
<polygon fill="#999999" stroke="#666666" points="111,-184 0,-184 0,-165 111,-165 111,-184"/>
<text text-anchor="middle" x="55.5" y="-172" font-family="Helvetica,sans-Serif" font-size="10.00">src/types/Document.h</text>
</a>
</g>
</g>
<!-- Node2 -->
<g id="node2" class="node">
<title>Node2</title>
<g id="a_node2"><a xlink:title=" ">
<polygon fill="#e0e0e0" stroke="#999999" points="84,-19 43,-19 43,0 84,0 84,-19"/>
<text text-anchor="middle" x="63.5" y="-7" font-family="Helvetica,sans-Serif" font-size="10.00">string</text>
</a>
</g>
</g>
<!-- Node1&#45;&gt;Node2 -->
<g id="edge1" class="edge">
<title>Node1&#45;&gt;Node2</title>
<path fill="none" stroke="#63b8ff" d="M48.9,-164.68C34.83,-144.73 4.42,-94.78 20.5,-55 24.93,-44.03 33.51,-34.26 41.85,-26.69"/>
<polygon fill="#63b8ff" stroke="#63b8ff" points="44,-29.45 49.43,-20.36 39.51,-24.08 44,-29.45"/>
</g>
<!-- Node3 -->
<g id="node3" class="node">
<title>Node3</title>
<g id="a_node3"><a xlink:title=" ">
<polygon fill="#e0e0e0" stroke="#999999" points="81,-74 30,-74 30,-55 81,-55 81,-74"/>
<text text-anchor="middle" x="55.5" y="-62" font-family="Helvetica,sans-Serif" font-size="10.00">memory</text>
</a>
</g>
</g>
<!-- Node1&#45;&gt;Node3 -->
<g id="edge2" class="edge">
<title>Node1&#45;&gt;Node3</title>
<path fill="none" stroke="#63b8ff" d="M55.5,-164.66C55.5,-147.57 55.5,-109.61 55.5,-85.92"/>
<polygon fill="#63b8ff" stroke="#63b8ff" points="59,-85.97 55.5,-75.97 52,-85.97 59,-85.97"/>
</g>
<!-- Node4 -->
<g id="node4" class="node">
<title>Node4</title>
<g id="a_node4"><a xlink:href="Canvas_8h.html" target="_top" xlink:title=" ">
<polygon fill="white" stroke="#666666" points="148.5,-129 86.5,-129 86.5,-110 148.5,-110 148.5,-129"/>
<text text-anchor="middle" x="117.5" y="-117" font-family="Helvetica,sans-Serif" font-size="10.00">./Canvas.h</text>
</a>
</g>
</g>
<!-- Node1&#45;&gt;Node4 -->
<g id="edge3" class="edge">
<title>Node1&#45;&gt;Node4</title>
<path fill="none" stroke="#63b8ff" d="M66.02,-164.51C74.89,-156.93 87.81,-145.88 98.49,-136.75"/>
<polygon fill="#63b8ff" stroke="#63b8ff" points="100.66,-139.5 105.99,-130.34 96.11,-134.18 100.66,-139.5"/>
</g>
<!-- Node4&#45;&gt;Node3 -->
<g id="edge5" class="edge">
<title>Node4&#45;&gt;Node3</title>
<path fill="none" stroke="#63b8ff" d="M106.98,-109.51C98.11,-101.93 85.19,-90.88 74.51,-81.75"/>
<polygon fill="#63b8ff" stroke="#63b8ff" points="76.89,-79.18 67.01,-75.34 72.34,-84.5 76.89,-79.18"/>
</g>
<!-- Node5 -->
<g id="node5" class="node">
<title>Node5</title>
<g id="a_node5"><a xlink:title=" ">
<polygon fill="#e0e0e0" stroke="#999999" points="143.5,-74 99.5,-74 99.5,-55 143.5,-55 143.5,-74"/>
<text text-anchor="middle" x="121.5" y="-62" font-family="Helvetica,sans-Serif" font-size="10.00">vector</text>
</a>
</g>
</g>
<!-- Node4&#45;&gt;Node5 -->
<g id="edge4" class="edge">
<title>Node4&#45;&gt;Node5</title>
<path fill="none" stroke="#63b8ff" d="M118.16,-109.75C118.65,-103.27 119.34,-94.16 119.96,-85.9"/>
<polygon fill="#63b8ff" stroke="#63b8ff" points="123.45,-86.19 120.71,-75.95 116.47,-85.66 123.45,-86.19"/>
</g>
<!-- Node6 -->
<g id="node6" class="node">
<title>Node6</title>
<g id="a_node6"><a xlink:href="Shape_8h.html" target="_top" xlink:title=" ">
<polygon fill="white" stroke="#666666" points="219,-74 162,-74 162,-55 219,-55 219,-74"/>
<text text-anchor="middle" x="190.5" y="-62" font-family="Helvetica,sans-Serif" font-size="10.00">./Shape.h</text>
</a>
</g>
</g>
<!-- Node4&#45;&gt;Node6 -->
<g id="edge6" class="edge">
<title>Node4&#45;&gt;Node6</title>
<path fill="none" stroke="#63b8ff" d="M129.88,-109.51C140.65,-101.7 156.47,-90.21 169.25,-80.93"/>
<polygon fill="#63b8ff" stroke="#63b8ff" points="171.04,-83.95 177.07,-75.25 166.93,-78.29 171.04,-83.95"/>
</g>
<!-- Node6&#45;&gt;Node2 -->
<g id="edge7" class="edge">
<title>Node6&#45;&gt;Node2</title>
<path fill="none" stroke="#63b8ff" d="M168.96,-54.51C148.64,-46.03 117.96,-33.23 94.92,-23.61"/>
<polygon fill="#63b8ff" stroke="#63b8ff" points="96.28,-20.39 85.7,-19.77 93.58,-26.85 96.28,-20.39"/>
</g>
<!-- Node7 -->
<g id="node7" class="node">
<title>Node7</title>
<g id="a_node7"><a xlink:href="Point_8h.html" target="_top" xlink:title=" ">
<polygon fill="white" stroke="#666666" points="216.5,-19 164.5,-19 164.5,0 216.5,0 216.5,-19"/>
<text text-anchor="middle" x="190.5" y="-7" font-family="Helvetica,sans-Serif" font-size="10.00">./Point.h</text>
</a>
</g>
</g>
<!-- Node6&#45;&gt;Node7 -->
<g id="edge8" class="edge">
<title>Node6&#45;&gt;Node7</title>
<path fill="none" stroke="#63b8ff" d="M190.5,-54.75C190.5,-48.27 190.5,-39.16 190.5,-30.9"/>
<polygon fill="#63b8ff" stroke="#63b8ff" points="194,-30.96 190.5,-20.96 187,-30.96 194,-30.96"/>
</g>
</g>
</svg>
