<?xml version="1.0" encoding="UTF-8" standalone="no"?>
<!DOCTYPE svg PUBLIC "-//W3C//DTD SVG 1.1//EN"
 "http://www.w3.org/Graphics/SVG/1.1/DTD/svg11.dtd">
<!-- Generated by graphviz version 7.0.2 (20221119.0110)
 -->
<!-- Title: src/services/ICanvasService.h Pages: 1 -->
<svg width="291pt" height="192pt"
 viewBox="0.00 0.00 291.00 192.00" xmlns="http://www.w3.org/2000/svg" xmlns:xlink="http://www.w3.org/1999/xlink">
<g id="graph0" class="graph" transform="scale(1 1) rotate(0) translate(4 188)">
<title>src/services/ICanvasService.h</title>
<!-- Node1 -->
<g id="node1" class="node">
<title>Node1</title>
<g id="a_node1"><a xlink:title=" ">
<polygon fill="#999999" stroke="#666666" points="234.5,-184 85.5,-184 85.5,-165 234.5,-165 234.5,-184"/>
<text text-anchor="middle" x="160" y="-172" font-family="Helvetica,sans-Serif" font-size="10.00">src/services/ICanvasService.h</text>
</a>
</g>
</g>
<!-- Node2 -->
<g id="node2" class="node">
<title>Node2</title>
<g id="a_node2"><a xlink:href="Observable_8h.html" target="_top" xlink:title=" ">
<polygon fill="white" stroke="#666666" points="100,-129 0,-129 0,-110 100,-110 100,-129"/>
<text text-anchor="middle" x="50" y="-117" font-family="Helvetica,sans-Serif" font-size="10.00">types/Observable.h</text>
</a>
</g>
</g>
<!-- Node1&#45;&gt;Node2 -->
<g id="edge1" class="edge">
<title>Node1&#45;&gt;Node2</title>
<path fill="none" stroke="#63b8ff" d="M141.34,-164.51C124.17,-156.24 98.45,-143.84 78.67,-134.31"/>
<polygon fill="#63b8ff" stroke="#63b8ff" points="80.28,-131.2 69.75,-130.01 77.24,-137.51 80.28,-131.2"/>
</g>
<!-- Node5 -->
<g id="node5" class="node">
<title>Node5</title>
<g id="a_node5"><a xlink:href="Canvas_8h.html" target="_top" xlink:title=" ">
<polygon fill="white" stroke="#666666" points="201.5,-129 118.5,-129 118.5,-110 201.5,-110 201.5,-129"/>
<text text-anchor="middle" x="160" y="-117" font-family="Helvetica,sans-Serif" font-size="10.00">types/Canvas.h</text>
</a>
</g>
</g>
<!-- Node1&#45;&gt;Node5 -->
<g id="edge4" class="edge">
<title>Node1&#45;&gt;Node5</title>
<path fill="none" stroke="#63b8ff" d="M160,-164.75C160,-158.27 160,-149.16 160,-140.9"/>
<polygon fill="#63b8ff" stroke="#63b8ff" points="163.5,-140.96 160,-130.96 156.5,-140.96 163.5,-140.96"/>
</g>
<!-- Node6 -->
<g id="node6" class="node">
<title>Node6</title>
<g id="a_node6"><a xlink:href="Shape_8h.html" target="_top" xlink:title=" ">
<polygon fill="white" stroke="#666666" points="252.5,-74 195.5,-74 195.5,-55 252.5,-55 252.5,-74"/>
<text text-anchor="middle" x="224" y="-62" font-family="Helvetica,sans-Serif" font-size="10.00">./Shape.h</text>
</a>
</g>
</g>
<!-- Node1&#45;&gt;Node6 -->
<g id="edge10" class="edge">
<title>Node1&#45;&gt;Node6</title>
<path fill="none" stroke="#63b8ff" d="M174.08,-164.66C185.53,-156.73 201.18,-144.04 210,-129 217.79,-115.72 221.25,-98.56 222.79,-85.43"/>
<polygon fill="#63b8ff" stroke="#63b8ff" points="226.24,-86.1 223.62,-75.84 219.27,-85.5 226.24,-86.1"/>
</g>
<!-- Node3 -->
<g id="node3" class="node">
<title>Node3</title>
<g id="a_node3"><a xlink:title=" ">
<polygon fill="#e0e0e0" stroke="#999999" points="171,-74 127,-74 127,-55 171,-55 171,-74"/>
<text text-anchor="middle" x="149" y="-62" font-family="Helvetica,sans-Serif" font-size="10.00">vector</text>
</a>
</g>
</g>
<!-- Node2&#45;&gt;Node3 -->
<g id="edge2" class="edge">
<title>Node2&#45;&gt;Node3</title>
<path fill="none" stroke="#63b8ff" d="M66.79,-109.51C82.1,-101.31 104.97,-89.07 122.7,-79.58"/>
<polygon fill="#63b8ff" stroke="#63b8ff" points="123.96,-82.88 131.12,-75.07 120.65,-76.71 123.96,-82.88"/>
</g>
<!-- Node4 -->
<g id="node4" class="node">
<title>Node4</title>
<g id="a_node4"><a xlink:title=" ">
<polygon fill="#e0e0e0" stroke="#999999" points="97.5,-74 46.5,-74 46.5,-55 97.5,-55 97.5,-74"/>
<text text-anchor="middle" x="72" y="-62" font-family="Helvetica,sans-Serif" font-size="10.00">memory</text>
</a>
</g>
</g>
<!-- Node2&#45;&gt;Node4 -->
<g id="edge3" class="edge">
<title>Node2&#45;&gt;Node4</title>
<path fill="none" stroke="#63b8ff" d="M53.63,-109.75C56.42,-103.04 60.37,-93.52 63.9,-85.02"/>
<polygon fill="#63b8ff" stroke="#63b8ff" points="67.11,-86.42 67.71,-75.84 60.64,-83.73 67.11,-86.42"/>
</g>
<!-- Node5&#45;&gt;Node3 -->
<g id="edge5" class="edge">
<title>Node5&#45;&gt;Node3</title>
<path fill="none" stroke="#63b8ff" d="M158.18,-109.75C156.82,-103.19 154.9,-93.95 153.17,-85.6"/>
<polygon fill="#63b8ff" stroke="#63b8ff" points="156.62,-85 151.16,-75.92 149.77,-86.43 156.62,-85"/>
</g>
<!-- Node5&#45;&gt;Node4 -->
<g id="edge6" class="edge">
<title>Node5&#45;&gt;Node4</title>
<path fill="none" stroke="#63b8ff" d="M145.07,-109.51C131.72,-101.47 111.89,-89.53 96.26,-80.11"/>
<polygon fill="#63b8ff" stroke="#63b8ff" points="98.38,-77.3 88,-75.14 94.76,-83.3 98.38,-77.3"/>
</g>
<!-- Node5&#45;&gt;Node6 -->
<g id="edge7" class="edge">
<title>Node5&#45;&gt;Node6</title>
<path fill="none" stroke="#63b8ff" d="M170.86,-109.51C180.11,-101.85 193.62,-90.66 204.71,-81.47"/>
<polygon fill="#63b8ff" stroke="#63b8ff" points="206.67,-84.4 212.14,-75.32 202.2,-79.01 206.67,-84.4"/>
</g>
<!-- Node7 -->
<g id="node7" class="node">
<title>Node7</title>
<g id="a_node7"><a xlink:title=" ">
<polygon fill="#e0e0e0" stroke="#999999" points="212.5,-19 171.5,-19 171.5,0 212.5,0 212.5,-19"/>
<text text-anchor="middle" x="192" y="-7" font-family="Helvetica,sans-Serif" font-size="10.00">string</text>
</a>
</g>
</g>
<!-- Node6&#45;&gt;Node7 -->
<g id="edge8" class="edge">
<title>Node6&#45;&gt;Node7</title>
<path fill="none" stroke="#63b8ff" d="M218.72,-54.75C214.53,-47.81 208.52,-37.86 203.27,-29.16"/>
<polygon fill="#63b8ff" stroke="#63b8ff" points="206.35,-27.49 198.18,-20.74 200.35,-31.11 206.35,-27.49"/>
</g>
<!-- Node8 -->
<g id="node8" class="node">
<title>Node8</title>
<g id="a_node8"><a xlink:href="Point_8h.html" target="_top" xlink:title=" ">
<polygon fill="white" stroke="#666666" points="283,-19 231,-19 231,0 283,0 283,-19"/>
<text text-anchor="middle" x="257" y="-7" font-family="Helvetica,sans-Serif" font-size="10.00">./Point.h</text>
</a>
</g>
</g>
<!-- Node6&#45;&gt;Node8 -->
<g id="edge9" class="edge">
<title>Node6&#45;&gt;Node8</title>
<path fill="none" stroke="#63b8ff" d="M229.45,-54.75C233.77,-47.81 239.96,-37.86 245.38,-29.16"/>
<polygon fill="#63b8ff" stroke="#63b8ff" points="248.32,-31.07 250.63,-20.73 242.38,-27.37 248.32,-31.07"/>
</g>
</g>
</svg>
