<?xml version="1.0" encoding="UTF-8" standalone="no"?>
<!DOCTYPE svg PUBLIC "-//W3C//DTD SVG 1.1//EN"
 "http://www.w3.org/Graphics/SVG/1.1/DTD/svg11.dtd">
<!-- Generated by graphviz version 7.0.2 (20221119.0110)
 -->
<!-- Title: src/services/ICanvasService.h Pages: 1 -->
<svg width="562pt" height="192pt"
 viewBox="0.00 0.00 561.54 192.00" xmlns="http://www.w3.org/2000/svg" xmlns:xlink="http://www.w3.org/1999/xlink">
<g id="graph0" class="graph" transform="scale(1 1) rotate(0) translate(4 188)">
<title>src/services/ICanvasService.h</title>
<!-- Node1 -->
<g id="node1" class="node">
<title>Node1</title>
<g id="a_node1"><a xlink:title=" ">
<polygon fill="#999999" stroke="#666666" points="280.5,-184 131.5,-184 131.5,-165 280.5,-165 280.5,-184"/>
<text text-anchor="middle" x="206" y="-172" font-family="Helvetica,sans-Serif" font-size="10.00">src/services/ICanvasService.h</text>
</a>
</g>
</g>
<!-- Node2 -->
<g id="node2" class="node">
<title>Node2</title>
<g id="a_node2"><a xlink:href="CanvasController_8h.html" target="_top" xlink:title=" ">
<polygon fill="white" stroke="#666666" points="178,-74 20,-74 20,-55 178,-55 178,-74"/>
<text text-anchor="middle" x="99" y="-62" font-family="Helvetica,sans-Serif" font-size="10.00">src/controller/CanvasController.h</text>
</a>
</g>
</g>
<!-- Node1&#45;&gt;Node2 -->
<g id="edge1" class="edge">
<title>Node1&#45;&gt;Node2</title>
<path fill="none" stroke="#63b8ff" d="M177.64,-159.18C164.25,-151.48 148.69,-141.09 137,-129 120.75,-112.19 108.4,-87.19 102.62,-74.14"/>
<polygon fill="#63b8ff" stroke="#63b8ff" points="175.58,-162.04 186.02,-163.79 178.95,-155.9 175.58,-162.04"/>
</g>
<!-- Node5 -->
<g id="node5" class="node">
<title>Node5</title>
<g id="a_node5"><a xlink:href="CanvasService_8h.html" target="_top" xlink:title=" ">
<polygon fill="white" stroke="#666666" points="533,-129 387,-129 387,-110 533,-110 533,-129"/>
<text text-anchor="middle" x="460" y="-117" font-family="Helvetica,sans-Serif" font-size="10.00">src/services/CanvasService.h</text>
</a>
</g>
</g>
<!-- Node1&#45;&gt;Node5 -->
<g id="edge4" class="edge">
<title>Node1&#45;&gt;Node5</title>
<path fill="none" stroke="#63b8ff" d="M260.25,-162.18C307.11,-152.4 373.92,-138.46 417.13,-129.45"/>
<polygon fill="#63b8ff" stroke="#63b8ff" points="259.64,-158.73 250.57,-164.2 261.07,-165.58 259.64,-158.73"/>
</g>
<!-- Node7 -->
<g id="node7" class="node">
<title>Node7</title>
<g id="a_node7"><a xlink:href="CanvasView_8h.html" target="_top" xlink:title=" ">
<polygon fill="white" stroke="#666666" points="265.5,-129 146.5,-129 146.5,-110 265.5,-110 265.5,-129"/>
<text text-anchor="middle" x="206" y="-117" font-family="Helvetica,sans-Serif" font-size="10.00">src/view/CanvasView.h</text>
</a>
</g>
</g>
<!-- Node1&#45;&gt;Node7 -->
<g id="edge7" class="edge">
<title>Node1&#45;&gt;Node7</title>
<path fill="none" stroke="#63b8ff" d="M206,-153.35C206,-145.1 206,-135.97 206,-129.44"/>
<polygon fill="#63b8ff" stroke="#63b8ff" points="202.5,-153.23 206,-163.23 209.5,-153.23 202.5,-153.23"/>
</g>
<!-- Node3 -->
<g id="node3" class="node">
<title>Node3</title>
<g id="a_node3"><a xlink:href="CanvasController_8cpp.html" target="_top" xlink:title=" ">
<polygon fill="white" stroke="#666666" points="168,-19 0,-19 0,0 168,0 168,-19"/>
<text text-anchor="middle" x="84" y="-7" font-family="Helvetica,sans-Serif" font-size="10.00">src/controller/CanvasController.cpp</text>
</a>
</g>
</g>
<!-- Node2&#45;&gt;Node3 -->
<g id="edge2" class="edge">
<title>Node2&#45;&gt;Node3</title>
<path fill="none" stroke="#63b8ff" d="M93.46,-43.93C91.08,-35.53 88.42,-26.13 86.53,-19.44"/>
<polygon fill="#63b8ff" stroke="#63b8ff" points="90.02,-44.62 96.11,-53.29 96.76,-42.72 90.02,-44.62"/>
</g>
<!-- Node4 -->
<g id="node4" class="node">
<title>Node4</title>
<g id="a_node4"><a xlink:href="main_8cpp.html" target="_top" xlink:title=" ">
<polygon fill="white" stroke="#666666" points="258,-19 186,-19 186,0 258,0 258,-19"/>
<text text-anchor="middle" x="222" y="-7" font-family="Helvetica,sans-Serif" font-size="10.00">src/main.cpp</text>
</a>
</g>
</g>
<!-- Node2&#45;&gt;Node4 -->
<g id="edge3" class="edge">
<title>Node2&#45;&gt;Node4</title>
<path fill="none" stroke="#63b8ff" d="M130.19,-50.06C152.53,-40.43 181.99,-27.74 201.44,-19.36"/>
<polygon fill="#63b8ff" stroke="#63b8ff" points="129.05,-46.74 121.26,-53.91 131.82,-53.17 129.05,-46.74"/>
</g>
<!-- Node5&#45;&gt;Node4 -->
<g id="edge5" class="edge">
<title>Node5&#45;&gt;Node4</title>
<path fill="none" stroke="#63b8ff" d="M502.43,-105.77C533.25,-94.39 566.56,-76.27 548,-55 510.72,-12.29 335.25,-9.06 258.31,-9.76"/>
<polygon fill="#63b8ff" stroke="#63b8ff" points="501.44,-102.41 493.15,-109.01 503.74,-109.02 501.44,-102.41"/>
</g>
<!-- Node6 -->
<g id="node6" class="node">
<title>Node6</title>
<g id="a_node6"><a xlink:href="CanvasService_8cpp.html" target="_top" xlink:title=" ">
<polygon fill="white" stroke="#666666" points="538.5,-74 381.5,-74 381.5,-55 538.5,-55 538.5,-74"/>
<text text-anchor="middle" x="460" y="-62" font-family="Helvetica,sans-Serif" font-size="10.00">src/services/CanvasService.cpp</text>
</a>
</g>
</g>
<!-- Node5&#45;&gt;Node6 -->
<g id="edge6" class="edge">
<title>Node5&#45;&gt;Node6</title>
<path fill="none" stroke="#63b8ff" d="M460,-98.35C460,-90.1 460,-80.97 460,-74.44"/>
<polygon fill="#63b8ff" stroke="#63b8ff" points="456.5,-98.23 460,-108.23 463.5,-98.23 456.5,-98.23"/>
</g>
<!-- Node7&#45;&gt;Node2 -->
<g id="edge8" class="edge">
<title>Node7&#45;&gt;Node2</title>
<path fill="none" stroke="#63b8ff" d="M177.54,-104.4C158.27,-94.86 133.42,-82.55 116.88,-74.36"/>
<polygon fill="#63b8ff" stroke="#63b8ff" points="175.98,-107.54 186.49,-108.84 179.09,-101.26 175.98,-107.54"/>
</g>
<!-- Node7&#45;&gt;Node4 -->
<g id="edge9" class="edge">
<title>Node7&#45;&gt;Node4</title>
<path fill="none" stroke="#63b8ff" d="M208.95,-98.57C212.45,-74.98 218.11,-36.73 220.67,-19.46"/>
<polygon fill="#63b8ff" stroke="#63b8ff" points="205.53,-97.76 207.53,-108.16 212.46,-98.79 205.53,-97.76"/>
</g>
<!-- Node8 -->
<g id="node8" class="node">
<title>Node8</title>
<g id="a_node8"><a xlink:href="CanvasView_8cpp.html" target="_top" xlink:title=" ">
<polygon fill="white" stroke="#666666" points="363.5,-74 234.5,-74 234.5,-55 363.5,-55 363.5,-74"/>
<text text-anchor="middle" x="299" y="-62" font-family="Helvetica,sans-Serif" font-size="10.00">src/view/CanvasView.cpp</text>
</a>
</g>
</g>
<!-- Node7&#45;&gt;Node8 -->
<g id="edge10" class="edge">
<title>Node7&#45;&gt;Node8</title>
<path fill="none" stroke="#63b8ff" d="M231.44,-104C248.08,-94.52 269.29,-82.43 283.46,-74.36"/>
<polygon fill="#63b8ff" stroke="#63b8ff" points="230.05,-100.77 223.09,-108.76 233.51,-106.85 230.05,-100.77"/>
</g>
</g>
</svg>
