<?xml version="1.0" encoding="UTF-8" standalone="no"?>
<!DOCTYPE svg PUBLIC "-//W3C//DTD SVG 1.1//EN"
 "http://www.w3.org/Graphics/SVG/1.1/DTD/svg11.dtd">
<!-- Generated by graphviz version 7.0.2 (20221119.0110)
 -->
<!-- Title: src/services/IDocumentsService.h Pages: 1 -->
<svg width="779pt" height="214pt"
 viewBox="0.00 0.00 779.00 214.00" xmlns="http://www.w3.org/2000/svg" xmlns:xlink="http://www.w3.org/1999/xlink">
<g id="graph0" class="graph" transform="scale(1 1) rotate(0) translate(4 210)">
<title>src/services/IDocumentsService.h</title>
<!-- Node1 -->
<g id="node1" class="node">
<title>Node1</title>
<g id="a_node1"><a xlink:title=" ">
<polygon fill="#999999" stroke="#666666" points="349.5,-206 183.5,-206 183.5,-187 349.5,-187 349.5,-206"/>
<text text-anchor="middle" x="266.5" y="-194" font-family="Helvetica,sans-Serif" font-size="10.00">src/services/IDocumentsService.h</text>
</a>
</g>
</g>
<!-- Node2 -->
<g id="node2" class="node">
<title>Node2</title>
<g id="a_node2"><a xlink:href="DocumentsController_8h.html" target="_top" xlink:title=" ">
<polygon fill="white" stroke="#666666" points="125,-96 0,-96 0,-66 125,-66 125,-96"/>
<text text-anchor="start" x="8" y="-84" font-family="Helvetica,sans-Serif" font-size="10.00">src/controller/Documents</text>
<text text-anchor="middle" x="62.5" y="-73" font-family="Helvetica,sans-Serif" font-size="10.00">Controller.h</text>
</a>
</g>
</g>
<!-- Node1&#45;&gt;Node2 -->
<g id="edge1" class="edge">
<title>Node1&#45;&gt;Node2</title>
<path fill="none" stroke="#63b8ff" d="M187.24,-183.91C161.08,-177.33 132.96,-167.05 110.5,-151 90.79,-136.92 76.46,-112.09 68.82,-96.37"/>
<polygon fill="#63b8ff" stroke="#63b8ff" points="186.3,-187.28 196.84,-186.16 187.9,-180.47 186.3,-187.28"/>
</g>
<!-- Node5 -->
<g id="node5" class="node">
<title>Node5</title>
<g id="a_node5"><a xlink:href="CanvasService_8h.html" target="_top" xlink:title=" ">
<polygon fill="white" stroke="#666666" points="428.5,-151 282.5,-151 282.5,-132 428.5,-132 428.5,-151"/>
<text text-anchor="middle" x="355.5" y="-139" font-family="Helvetica,sans-Serif" font-size="10.00">src/services/CanvasService.h</text>
</a>
</g>
</g>
<!-- Node1&#45;&gt;Node5 -->
<g id="edge4" class="edge">
<title>Node1&#45;&gt;Node5</title>
<path fill="none" stroke="#63b8ff" d="M291.3,-180.73C307.16,-171.29 327.19,-159.36 340.63,-151.36"/>
<polygon fill="#63b8ff" stroke="#63b8ff" points="289.7,-177.61 282.9,-185.73 293.28,-183.63 289.7,-177.61"/>
</g>
<!-- Node7 -->
<g id="node7" class="node">
<title>Node7</title>
<g id="a_node7"><a xlink:href="DocumentsService_8h.html" target="_top" xlink:title=" ">
<polygon fill="white" stroke="#666666" points="651,-151 488,-151 488,-132 651,-132 651,-151"/>
<text text-anchor="middle" x="569.5" y="-139" font-family="Helvetica,sans-Serif" font-size="10.00">src/services/DocumentsService.h</text>
</a>
</g>
</g>
<!-- Node1&#45;&gt;Node7 -->
<g id="edge7" class="edge">
<title>Node1&#45;&gt;Node7</title>
<path fill="none" stroke="#63b8ff" d="M329.08,-184.55C384.99,-174.77 465.9,-160.62 518.1,-151.49"/>
<polygon fill="#63b8ff" stroke="#63b8ff" points="328.64,-181.08 319.39,-186.25 329.84,-187.97 328.64,-181.08"/>
</g>
<!-- Node9 -->
<g id="node9" class="node">
<title>Node9</title>
<g id="a_node9"><a xlink:href="DocumentsView_8h.html" target="_top" xlink:title=" ">
<polygon fill="white" stroke="#666666" points="255,-151 120,-151 120,-132 255,-132 255,-151"/>
<text text-anchor="middle" x="187.5" y="-139" font-family="Helvetica,sans-Serif" font-size="10.00">src/view/DocumentsView.h</text>
</a>
</g>
</g>
<!-- Node1&#45;&gt;Node9 -->
<g id="edge10" class="edge">
<title>Node1&#45;&gt;Node9</title>
<path fill="none" stroke="#63b8ff" d="M243.68,-180.19C229.74,-170.84 212.4,-159.21 200.7,-151.36"/>
<polygon fill="#63b8ff" stroke="#63b8ff" points="241.59,-183 251.84,-185.67 245.49,-177.19 241.59,-183"/>
</g>
<!-- Node3 -->
<g id="node3" class="node">
<title>Node3</title>
<g id="a_node3"><a xlink:href="DocumentsController_8cpp.html" target="_top" xlink:title=" ">
<polygon fill="white" stroke="#666666" points="125,-30 0,-30 0,0 125,0 125,-30"/>
<text text-anchor="start" x="8" y="-18" font-family="Helvetica,sans-Serif" font-size="10.00">src/controller/Documents</text>
<text text-anchor="middle" x="62.5" y="-7" font-family="Helvetica,sans-Serif" font-size="10.00">Controller.cpp</text>
</a>
</g>
</g>
<!-- Node2&#45;&gt;Node3 -->
<g id="edge2" class="edge">
<title>Node2&#45;&gt;Node3</title>
<path fill="none" stroke="#63b8ff" d="M62.5,-54.39C62.5,-46.13 62.5,-37.28 62.5,-30.16"/>
<polygon fill="#63b8ff" stroke="#63b8ff" points="59,-54.28 62.5,-64.28 66,-54.28 59,-54.28"/>
</g>
<!-- Node4 -->
<g id="node4" class="node">
<title>Node4</title>
<g id="a_node4"><a xlink:href="main_8cpp.html" target="_top" xlink:title=" ">
<polygon fill="white" stroke="#666666" points="303.5,-24.5 231.5,-24.5 231.5,-5.5 303.5,-5.5 303.5,-24.5"/>
<text text-anchor="middle" x="267.5" y="-12.5" font-family="Helvetica,sans-Serif" font-size="10.00">src/main.cpp</text>
</a>
</g>
</g>
<!-- Node2&#45;&gt;Node4 -->
<g id="edge3" class="edge">
<title>Node2&#45;&gt;Node4</title>
<path fill="none" stroke="#63b8ff" d="M119.39,-62.24C158.2,-50.12 207.97,-34.59 238.79,-24.96"/>
<polygon fill="#63b8ff" stroke="#63b8ff" points="118.71,-58.79 110.21,-65.11 120.8,-65.47 118.71,-58.79"/>
</g>
<!-- Node5&#45;&gt;Node4 -->
<g id="edge5" class="edge">
<title>Node5&#45;&gt;Node4</title>
<path fill="none" stroke="#63b8ff" d="M354.15,-120.75C352.24,-104.79 347.63,-82.38 336.5,-66 323.86,-47.4 301.91,-33.26 286.15,-24.84"/>
<polygon fill="#63b8ff" stroke="#63b8ff" points="350.64,-120.77 355.04,-130.41 357.61,-120.13 350.64,-120.77"/>
</g>
<!-- Node6 -->
<g id="node6" class="node">
<title>Node6</title>
<g id="a_node6"><a xlink:href="CanvasService_8cpp.html" target="_top" xlink:title=" ">
<polygon fill="white" stroke="#666666" points="541,-90.5 384,-90.5 384,-71.5 541,-71.5 541,-90.5"/>
<text text-anchor="middle" x="462.5" y="-78.5" font-family="Helvetica,sans-Serif" font-size="10.00">src/services/CanvasService.cpp</text>
</a>
</g>
</g>
<!-- Node5&#45;&gt;Node6 -->
<g id="edge6" class="edge">
<title>Node5&#45;&gt;Node6</title>
<path fill="none" stroke="#63b8ff" d="M381.81,-126.11C401.92,-115.12 428.99,-100.32 446.1,-90.97"/>
<polygon fill="#63b8ff" stroke="#63b8ff" points="380.17,-123.02 373.08,-130.89 383.53,-129.16 380.17,-123.02"/>
</g>
<!-- Node7&#45;&gt;Node4 -->
<g id="edge8" class="edge">
<title>Node7&#45;&gt;Node4</title>
<path fill="none" stroke="#63b8ff" d="M570,-120.24C569.25,-103.29 565.32,-79.75 550.5,-66 515.16,-33.21 371.91,-21.43 303.8,-17.63"/>
<polygon fill="#63b8ff" stroke="#63b8ff" points="566.5,-120.15 570.06,-130.12 573.5,-120.1 566.5,-120.15"/>
</g>
<!-- Node8 -->
<g id="node8" class="node">
<title>Node8</title>
<g id="a_node8"><a xlink:href="DocumentsService_8cpp.html" target="_top" xlink:title=" ">
<polygon fill="white" stroke="#666666" points="771,-90.5 598,-90.5 598,-71.5 771,-71.5 771,-90.5"/>
<text text-anchor="middle" x="684.5" y="-78.5" font-family="Helvetica,sans-Serif" font-size="10.00">src/services/DocumentsService.cpp</text>
</a>
</g>
</g>
<!-- Node7&#45;&gt;Node8 -->
<g id="edge9" class="edge">
<title>Node7&#45;&gt;Node8</title>
<path fill="none" stroke="#63b8ff" d="M597.19,-126.42C618.85,-115.4 648.31,-100.41 666.87,-90.97"/>
<polygon fill="#63b8ff" stroke="#63b8ff" points="595.64,-123.28 588.32,-130.93 598.82,-129.51 595.64,-123.28"/>
</g>
<!-- Node9&#45;&gt;Node2 -->
<g id="edge11" class="edge">
<title>Node9&#45;&gt;Node2</title>
<path fill="none" stroke="#63b8ff" d="M158.11,-126.75C138.63,-117.63 113.12,-105.69 93.35,-96.44"/>
<polygon fill="#63b8ff" stroke="#63b8ff" points="156.6,-129.9 167.14,-130.97 159.57,-123.56 156.6,-129.9"/>
</g>
<!-- Node9&#45;&gt;Node4 -->
<g id="edge12" class="edge">
<title>Node9&#45;&gt;Node4</title>
<path fill="none" stroke="#63b8ff" d="M176.6,-121.37C169.15,-105.51 162.29,-82.91 172.5,-66 185.31,-44.78 210.45,-32.11 231.65,-24.84"/>
<polygon fill="#63b8ff" stroke="#63b8ff" points="173.48,-122.95 181.2,-130.21 179.69,-119.72 173.48,-122.95"/>
</g>
<!-- Node10 -->
<g id="node10" class="node">
<title>Node10</title>
<g id="a_node10"><a xlink:href="DocumentsView_8cpp.html" target="_top" xlink:title=" ">
<polygon fill="white" stroke="#666666" points="327.5,-90.5 181.5,-90.5 181.5,-71.5 327.5,-71.5 327.5,-90.5"/>
<text text-anchor="middle" x="254.5" y="-78.5" font-family="Helvetica,sans-Serif" font-size="10.00">src/view/DocumentsView.cpp</text>
</a>
</g>
</g>
<!-- Node9&#45;&gt;Node10 -->
<g id="edge13" class="edge">
<title>Node9&#45;&gt;Node10</title>
<path fill="none" stroke="#63b8ff" d="M206.28,-124.1C218.57,-113.37 234.16,-99.76 244.23,-90.97"/>
<polygon fill="#63b8ff" stroke="#63b8ff" points="204.05,-121.41 198.82,-130.62 208.65,-126.68 204.05,-121.41"/>
</g>
</g>
</svg>
