<?xml version="1.0" encoding="UTF-8" standalone="no"?>
<!DOCTYPE svg PUBLIC "-//W3C//DTD SVG 1.1//EN"
 "http://www.w3.org/Graphics/SVG/1.1/DTD/svg11.dtd">
<!-- Generated by graphviz version 7.0.2 (20221119.0110)
 -->
<!-- Title: src/services/IDocumentsService.h Pages: 1 -->
<svg width="322pt" height="247pt"
 viewBox="0.00 0.00 322.25 247.00" xmlns="http://www.w3.org/2000/svg" xmlns:xlink="http://www.w3.org/1999/xlink">
<g id="graph0" class="graph" transform="scale(1 1) rotate(0) translate(4 243)">
<title>src/services/IDocumentsService.h</title>
<!-- Node1 -->
<g id="node1" class="node">
<title>Node1</title>
<g id="a_node1"><a xlink:title=" ">
<polygon fill="#999999" stroke="#666666" points="202.75,-239 36.75,-239 36.75,-220 202.75,-220 202.75,-239"/>
<text text-anchor="middle" x="119.75" y="-227" font-family="Helvetica,sans-Serif" font-size="10.00">src/services/IDocumentsService.h</text>
</a>
</g>
</g>
<!-- Node2 -->
<g id="node2" class="node">
<title>Node2</title>
<g id="a_node2"><a xlink:title=" ">
<polygon fill="#e0e0e0" stroke="#999999" points="83.75,-74 39.75,-74 39.75,-55 83.75,-55 83.75,-74"/>
<text text-anchor="middle" x="61.75" y="-62" font-family="Helvetica,sans-Serif" font-size="10.00">vector</text>
</a>
</g>
</g>
<!-- Node1&#45;&gt;Node2 -->
<g id="edge1" class="edge">
<title>Node1&#45;&gt;Node2</title>
<path fill="none" stroke="#63b8ff" d="M101.62,-219.65C74.21,-205.11 23.22,-173.29 2.75,-129 -6.4,-109.23 13.67,-91.51 32.83,-79.85"/>
<polygon fill="#63b8ff" stroke="#63b8ff" points="34.31,-83.03 41.29,-75.07 30.86,-76.94 34.31,-83.03"/>
</g>
<!-- Node3 -->
<g id="node3" class="node">
<title>Node3</title>
<g id="a_node3"><a xlink:title=" ">
<polygon fill="#e0e0e0" stroke="#999999" points="170.25,-74 119.25,-74 119.25,-55 170.25,-55 170.25,-74"/>
<text text-anchor="middle" x="144.75" y="-62" font-family="Helvetica,sans-Serif" font-size="10.00">memory</text>
</a>
</g>
</g>
<!-- Node1&#45;&gt;Node3 -->
<g id="edge2" class="edge">
<title>Node1&#45;&gt;Node3</title>
<path fill="none" stroke="#63b8ff" d="M121.09,-219.74C124.96,-194.53 136.18,-121.36 141.66,-85.62"/>
<polygon fill="#63b8ff" stroke="#63b8ff" points="145.11,-86.22 143.17,-75.8 138.19,-85.16 145.11,-86.22"/>
</g>
<!-- Node4 -->
<g id="node4" class="node">
<title>Node4</title>
<g id="a_node4"><a xlink:href="Document_8h.html" target="_top" xlink:title=" ">
<polygon fill="white" stroke="#666666" points="284.25,-184 189.25,-184 189.25,-165 284.25,-165 284.25,-184"/>
<text text-anchor="middle" x="236.75" y="-172" font-family="Helvetica,sans-Serif" font-size="10.00">types/Document.h</text>
</a>
</g>
</g>
<!-- Node1&#45;&gt;Node4 -->
<g id="edge3" class="edge">
<title>Node1&#45;&gt;Node4</title>
<path fill="none" stroke="#63b8ff" d="M139.59,-219.51C158.03,-211.16 185.72,-198.61 206.84,-189.05"/>
<polygon fill="#63b8ff" stroke="#63b8ff" points="208.15,-192.3 215.81,-184.98 205.26,-185.92 208.15,-192.3"/>
</g>
<!-- Node9 -->
<g id="node9" class="node">
<title>Node9</title>
<g id="a_node9"><a xlink:href="Observable_8h.html" target="_top" xlink:title=" ">
<polygon fill="white" stroke="#666666" points="111.75,-129 11.75,-129 11.75,-110 111.75,-110 111.75,-129"/>
<text text-anchor="middle" x="61.75" y="-117" font-family="Helvetica,sans-Serif" font-size="10.00">types/Observable.h</text>
</a>
</g>
</g>
<!-- Node1&#45;&gt;Node9 -->
<g id="edge12" class="edge">
<title>Node1&#45;&gt;Node9</title>
<path fill="none" stroke="#63b8ff" d="M115,-219.66C105.61,-202.18 84.48,-162.84 71.84,-139.3"/>
<polygon fill="#63b8ff" stroke="#63b8ff" points="75.09,-137.95 67.27,-130.79 68.92,-141.26 75.09,-137.95"/>
</g>
<!-- Node4&#45;&gt;Node3 -->
<g id="edge5" class="edge">
<title>Node4&#45;&gt;Node3</title>
<path fill="none" stroke="#63b8ff" d="M239.84,-164.9C243.94,-151.9 249.48,-126.96 238.75,-110 231.99,-99.33 204.56,-87.04 181.07,-78.08"/>
<polygon fill="#63b8ff" stroke="#63b8ff" points="182.31,-74.81 171.71,-74.62 179.88,-81.37 182.31,-74.81"/>
</g>
<!-- Node5 -->
<g id="node5" class="node">
<title>Node5</title>
<g id="a_node5"><a xlink:title=" ">
<polygon fill="#e0e0e0" stroke="#999999" points="314.25,-19 273.25,-19 273.25,0 314.25,0 314.25,-19"/>
<text text-anchor="middle" x="293.75" y="-7" font-family="Helvetica,sans-Serif" font-size="10.00">string</text>
</a>
</g>
</g>
<!-- Node4&#45;&gt;Node5 -->
<g id="edge4" class="edge">
<title>Node4&#45;&gt;Node5</title>
<path fill="none" stroke="#63b8ff" d="M240.51,-164.7C244.27,-155.77 250.16,-141.52 254.75,-129 267.31,-94.7 280.25,-54.15 287.62,-30.48"/>
<polygon fill="#63b8ff" stroke="#63b8ff" points="290.96,-31.52 290.56,-20.94 284.27,-29.46 290.96,-31.52"/>
</g>
<!-- Node6 -->
<g id="node6" class="node">
<title>Node6</title>
<g id="a_node6"><a xlink:href="Canvas_8h.html" target="_top" xlink:title=" ">
<polygon fill="white" stroke="#666666" points="229.75,-129 167.75,-129 167.75,-110 229.75,-110 229.75,-129"/>
<text text-anchor="middle" x="198.75" y="-117" font-family="Helvetica,sans-Serif" font-size="10.00">./Canvas.h</text>
</a>
</g>
</g>
<!-- Node4&#45;&gt;Node6 -->
<g id="edge6" class="edge">
<title>Node4&#45;&gt;Node6</title>
<path fill="none" stroke="#63b8ff" d="M230.47,-164.75C225.39,-157.66 218.05,-147.42 211.71,-138.59"/>
<polygon fill="#63b8ff" stroke="#63b8ff" points="214.71,-136.76 206.04,-130.67 209.02,-140.84 214.71,-136.76"/>
</g>
<!-- Node6&#45;&gt;Node2 -->
<g id="edge7" class="edge">
<title>Node6&#45;&gt;Node2</title>
<path fill="none" stroke="#63b8ff" d="M175.51,-109.51C153.29,-100.92 119.59,-87.88 94.63,-78.22"/>
<polygon fill="#63b8ff" stroke="#63b8ff" points="96.19,-75.07 85.6,-74.73 93.66,-81.6 96.19,-75.07"/>
</g>
<!-- Node6&#45;&gt;Node3 -->
<g id="edge8" class="edge">
<title>Node6&#45;&gt;Node3</title>
<path fill="none" stroke="#63b8ff" d="M189.83,-109.75C182.29,-102.35 171.28,-91.54 162.02,-82.45"/>
<polygon fill="#63b8ff" stroke="#63b8ff" points="164.52,-80.01 154.94,-75.5 159.62,-85 164.52,-80.01"/>
</g>
<!-- Node7 -->
<g id="node7" class="node">
<title>Node7</title>
<g id="a_node7"><a xlink:href="Shape_8h.html" target="_top" xlink:title=" ">
<polygon fill="white" stroke="#666666" points="248.25,-74 191.25,-74 191.25,-55 248.25,-55 248.25,-74"/>
<text text-anchor="middle" x="219.75" y="-62" font-family="Helvetica,sans-Serif" font-size="10.00">./Shape.h</text>
</a>
</g>
</g>
<!-- Node6&#45;&gt;Node7 -->
<g id="edge9" class="edge">
<title>Node6&#45;&gt;Node7</title>
<path fill="none" stroke="#63b8ff" d="M202.21,-109.75C204.87,-103.04 208.64,-93.52 212.01,-85.02"/>
<polygon fill="#63b8ff" stroke="#63b8ff" points="215.21,-86.44 215.64,-75.85 208.71,-83.86 215.21,-86.44"/>
</g>
<!-- Node7&#45;&gt;Node5 -->
<g id="edge10" class="edge">
<title>Node7&#45;&gt;Node5</title>
<path fill="none" stroke="#63b8ff" d="M232.3,-54.51C243.21,-46.7 259.25,-35.21 272.21,-25.93"/>
<polygon fill="#63b8ff" stroke="#63b8ff" points="274.06,-28.91 280.15,-20.24 269.98,-23.22 274.06,-28.91"/>
</g>
<!-- Node8 -->
<g id="node8" class="node">
<title>Node8</title>
<g id="a_node8"><a xlink:href="Point_8h.html" target="_top" xlink:title=" ">
<polygon fill="white" stroke="#666666" points="245.75,-19 193.75,-19 193.75,0 245.75,0 245.75,-19"/>
<text text-anchor="middle" x="219.75" y="-7" font-family="Helvetica,sans-Serif" font-size="10.00">./Point.h</text>
</a>
</g>
</g>
<!-- Node7&#45;&gt;Node8 -->
<g id="edge11" class="edge">
<title>Node7&#45;&gt;Node8</title>
<path fill="none" stroke="#63b8ff" d="M219.75,-54.75C219.75,-48.27 219.75,-39.16 219.75,-30.9"/>
<polygon fill="#63b8ff" stroke="#63b8ff" points="223.25,-30.96 219.75,-20.96 216.25,-30.96 223.25,-30.96"/>
</g>
<!-- Node9&#45;&gt;Node2 -->
<g id="edge13" class="edge">
<title>Node9&#45;&gt;Node2</title>
<path fill="none" stroke="#63b8ff" d="M61.75,-109.75C61.75,-103.27 61.75,-94.16 61.75,-85.9"/>
<polygon fill="#63b8ff" stroke="#63b8ff" points="65.25,-85.96 61.75,-75.96 58.25,-85.96 65.25,-85.96"/>
</g>
<!-- Node9&#45;&gt;Node3 -->
<g id="edge14" class="edge">
<title>Node9&#45;&gt;Node3</title>
<path fill="none" stroke="#63b8ff" d="M75.83,-109.51C88.3,-101.54 106.76,-89.75 121.44,-80.38"/>
<polygon fill="#63b8ff" stroke="#63b8ff" points="123.05,-83.5 129.6,-75.17 119.29,-77.6 123.05,-83.5"/>
</g>
</g>
</svg>
