<?xml version="1.0" encoding="UTF-8" standalone="no"?>
<!DOCTYPE svg PUBLIC "-//W3C//DTD SVG 1.1//EN"
 "http://www.w3.org/Graphics/SVG/1.1/DTD/svg11.dtd">
<!-- Generated by graphviz version 7.0.2 (20221119.0110)
 -->
<!-- Title: Graphical Class Hierarchy Pages: 1 -->
<svg width="347pt" height="138pt"
 viewBox="0.00 0.00 347.00 138.00" xmlns="http://www.w3.org/2000/svg" xmlns:xlink="http://www.w3.org/1999/xlink">
<g id="graph0" class="graph" transform="scale(1 1) rotate(0) translate(4 134)">
<title>Graphical Class Hierarchy</title>
<!-- Node0 -->
<g id="node1" class="node">
<title>Node0</title>
<g id="a_node1"><a xlink:href="classIObserver.html" target="_top" xlink:title=" ">
<polygon fill="white" stroke="#666666" points="62.5,-93 3.5,-93 3.5,-74 62.5,-74 62.5,-93"/>
<text text-anchor="middle" x="33" y="-81" font-family="Helvetica,sans-Serif" font-size="10.00">IObserver</text>
</a>
</g>
</g>
<!-- Node1 -->
<g id="node2" class="node">
<title>Node1</title>
<g id="a_node2"><a xlink:href="classCanvasView.html" target="_top" xlink:title=" ">
<polygon fill="white" stroke="#666666" points="188.5,-130 117.5,-130 117.5,-111 188.5,-111 188.5,-130"/>
<text text-anchor="middle" x="153" y="-118" font-family="Helvetica,sans-Serif" font-size="10.00">CanvasView</text>
</a>
</g>
</g>
<!-- Node0&#45;&gt;Node1 -->
<g id="edge1" class="edge">
<title>Node0&#45;&gt;Node1</title>
<path fill="none" stroke="#63b8ff" d="M73.5,-95.88C88.66,-100.64 105.75,-106 120.11,-110.5"/>
<polygon fill="#63b8ff" stroke="#63b8ff" points="74.9,-92.66 64.31,-93 72.8,-99.34 74.9,-92.66"/>
</g>
<!-- Node2 -->
<g id="node3" class="node">
<title>Node2</title>
<g id="a_node3"><a xlink:href="classDocumentsView.html" target="_top" xlink:title=" ">
<polygon fill="white" stroke="#666666" points="197,-93 109,-93 109,-74 197,-74 197,-93"/>
<text text-anchor="middle" x="153" y="-81" font-family="Helvetica,sans-Serif" font-size="10.00">DocumentsView</text>
</a>
</g>
</g>
<!-- Node0&#45;&gt;Node2 -->
<g id="edge2" class="edge">
<title>Node0&#45;&gt;Node2</title>
<path fill="none" stroke="#63b8ff" d="M74.05,-83.5C85.2,-83.5 97.37,-83.5 108.7,-83.5"/>
<polygon fill="#63b8ff" stroke="#63b8ff" points="74.38,-80 64.38,-83.5 74.38,-87 74.38,-80"/>
</g>
<!-- Node3 -->
<g id="node4" class="node">
<title>Node3</title>
<g id="a_node4"><a xlink:href="classICanvasService.html" target="_top" xlink:title=" ">
<polygon fill="white" stroke="#666666" points="196,-56 110,-56 110,-37 196,-37 196,-56"/>
<text text-anchor="middle" x="153" y="-44" font-family="Helvetica,sans-Serif" font-size="10.00">ICanvasService</text>
</a>
</g>
</g>
<!-- Node0&#45;&gt;Node3 -->
<g id="edge3" class="edge">
<title>Node0&#45;&gt;Node3</title>
<path fill="none" stroke="#63b8ff" d="M73.5,-71.12C88.66,-66.36 105.75,-61 120.11,-56.5"/>
<polygon fill="#63b8ff" stroke="#63b8ff" points="72.8,-67.66 64.31,-74 74.9,-74.34 72.8,-67.66"/>
</g>
<!-- Node4 -->
<g id="node5" class="node">
<title>Node4</title>
<g id="a_node5"><a xlink:href="classCanvasService.html" target="_top" xlink:title=" ">
<polygon fill="white" stroke="#666666" points="331,-56 248,-56 248,-37 331,-37 331,-56"/>
<text text-anchor="middle" x="289.5" y="-44" font-family="Helvetica,sans-Serif" font-size="10.00">CanvasService</text>
</a>
</g>
</g>
<!-- Node3&#45;&gt;Node4 -->
<g id="edge4" class="edge">
<title>Node3&#45;&gt;Node4</title>
<path fill="none" stroke="#63b8ff" d="M207.7,-46.5C221.08,-46.5 235.21,-46.5 247.84,-46.5"/>
<polygon fill="#63b8ff" stroke="#63b8ff" points="207.7,-43 197.7,-46.5 207.7,-50 207.7,-43"/>
</g>
<!-- Node5 -->
<g id="node6" class="node">
<title>Node5</title>
<g id="a_node6"><a xlink:href="classObservable.html" target="_top" xlink:title=" ">
<polygon fill="white" stroke="#666666" points="66,-38 0,-38 0,-19 66,-19 66,-38"/>
<text text-anchor="middle" x="33" y="-26" font-family="Helvetica,sans-Serif" font-size="10.00">Observable</text>
</a>
</g>
</g>
<!-- Node5&#45;&gt;Node3 -->
<g id="edge5" class="edge">
<title>Node5&#45;&gt;Node3</title>
<path fill="none" stroke="#63b8ff" d="M77.32,-35.11C87.86,-36.72 99.12,-38.43 109.61,-40.03"/>
<polygon fill="#63b8ff" stroke="#63b8ff" points="78.15,-31.69 67.74,-33.65 77.1,-38.61 78.15,-31.69"/>
</g>
<!-- Node6 -->
<g id="node7" class="node">
<title>Node6</title>
<g id="a_node7"><a xlink:href="classIDocumentsService.html" target="_top" xlink:title=" ">
<polygon fill="white" stroke="#666666" points="204,-19 102,-19 102,0 204,0 204,-19"/>
<text text-anchor="middle" x="153" y="-7" font-family="Helvetica,sans-Serif" font-size="10.00">IDocumentsService</text>
</a>
</g>
</g>
<!-- Node5&#45;&gt;Node6 -->
<g id="edge6" class="edge">
<title>Node5&#45;&gt;Node6</title>
<path fill="none" stroke="#63b8ff" d="M77.42,-21.51C85.29,-20.24 93.56,-18.91 101.62,-17.61"/>
<polygon fill="#63b8ff" stroke="#63b8ff" points="77.05,-18.02 67.74,-23.07 78.17,-24.93 77.05,-18.02"/>
</g>
<!-- Node7 -->
<g id="node8" class="node">
<title>Node7</title>
<g id="a_node8"><a xlink:href="classDocumentsService.html" target="_top" xlink:title=" ">
<polygon fill="white" stroke="#666666" points="339,-19 240,-19 240,0 339,0 339,-19"/>
<text text-anchor="middle" x="289.5" y="-7" font-family="Helvetica,sans-Serif" font-size="10.00">DocumentsService</text>
</a>
</g>
</g>
<!-- Node6&#45;&gt;Node7 -->
<g id="edge7" class="edge">
<title>Node6&#45;&gt;Node7</title>
<path fill="none" stroke="#63b8ff" d="M215.94,-9.5C223.85,-9.5 231.87,-9.5 239.54,-9.5"/>
<polygon fill="#63b8ff" stroke="#63b8ff" points="215.98,-6 205.98,-9.5 215.98,-13 215.98,-6"/>
</g>
</g>
</svg>
