<?xml version="1.0" encoding="UTF-8" standalone="no"?>
<!DOCTYPE svg PUBLIC "-//W3C//DTD SVG 1.1//EN"
 "http://www.w3.org/Graphics/SVG/1.1/DTD/svg11.dtd">
<!-- Generated by graphviz version 7.0.2 (20221119.0110)
 -->
<!-- Title: Graphical Class Hierarchy Pages: 1 -->
<svg width="148pt" height="64pt"
 viewBox="0.00 0.00 148.00 64.00" xmlns="http://www.w3.org/2000/svg" xmlns:xlink="http://www.w3.org/1999/xlink">
<g id="graph0" class="graph" transform="scale(1 1) rotate(0) translate(4 60)">
<title>Graphical Class Hierarchy</title>
<!-- Node0 -->
<g id="node1" class="node">
<title>Node0</title>
<g id="a_node1"><a xlink:href="classShape.html" target="_top" xlink:title=" ">
<polygon fill="white" stroke="#666666" points="44,-37 0,-37 0,-18 44,-18 44,-37"/>
<text text-anchor="middle" x="22" y="-25" font-family="Helvetica,sans-Serif" font-size="10.00">Shape</text>
</a>
</g>
</g>
<!-- Node1 -->
<g id="node2" class="node">
<title>Node1</title>
<g id="a_node2"><a xlink:href="classCircle.html" target="_top" xlink:title=" ">
<polygon fill="white" stroke="#666666" points="130.5,-56 89.5,-56 89.5,-37 130.5,-37 130.5,-56"/>
<text text-anchor="middle" x="110" y="-44" font-family="Helvetica,sans-Serif" font-size="10.00">Circle</text>
</a>
</g>
</g>
<!-- Node0&#45;&gt;Node1 -->
<g id="edge1" class="edge">
<title>Node0&#45;&gt;Node1</title>
<path fill="none" stroke="#63b8ff" d="M55.18,-34.61C66.59,-37.13 79.09,-39.89 89.17,-42.12"/>
<polygon fill="#63b8ff" stroke="#63b8ff" points="56.26,-31.26 45.74,-32.52 54.75,-38.1 56.26,-31.26"/>
</g>
<!-- Node2 -->
<g id="node3" class="node">
<title>Node2</title>
<g id="a_node3"><a xlink:href="classRectangle.html" target="_top" xlink:title=" ">
<polygon fill="white" stroke="#666666" points="140,-19 80,-19 80,0 140,0 140,-19"/>
<text text-anchor="middle" x="110" y="-7" font-family="Helvetica,sans-Serif" font-size="10.00">Rectangle</text>
</a>
</g>
</g>
<!-- Node0&#45;&gt;Node2 -->
<g id="edge2" class="edge">
<title>Node0&#45;&gt;Node2</title>
<path fill="none" stroke="#63b8ff" d="M55.38,-20.72C63.31,-19.06 71.76,-17.29 79.55,-15.66"/>
<polygon fill="#63b8ff" stroke="#63b8ff" points="54.81,-17.27 45.74,-22.74 56.24,-24.12 54.81,-17.27"/>
</g>
</g>
</svg>
