<?xml version="1.0" encoding="UTF-8" standalone="no"?>
<!DOCTYPE svg PUBLIC "-//W3C//DTD SVG 1.1//EN"
 "http://www.w3.org/Graphics/SVG/1.1/DTD/svg11.dtd">
<!-- Generated by graphviz version 7.0.2 (20221119.0110)
 -->
<!-- Title: src/main.cpp Pages: 1 -->
<svg width="728pt" height="412pt"
 viewBox="0.00 0.00 728.00 412.00" xmlns="http://www.w3.org/2000/svg" xmlns:xlink="http://www.w3.org/1999/xlink">
<g id="graph0" class="graph" transform="scale(1 1) rotate(0) translate(4 408)">
<title>src/main.cpp</title>
<!-- Node1 -->
<g id="node1" class="node">
<title>Node1</title>
<g id="a_node1"><a xlink:title=" ">
<polygon fill="#999999" stroke="#666666" points="418,-404 346,-404 346,-385 418,-385 418,-404"/>
<text text-anchor="middle" x="382" y="-392" font-family="Helvetica,sans-Serif" font-size="10.00">src/main.cpp</text>
</a>
</g>
</g>
<!-- Node2 -->
<g id="node2" class="node">
<title>Node2</title>
<g id="a_node2"><a xlink:href="CanvasController_8h.html" target="_top" xlink:title=" ">
<polygon fill="white" stroke="#666666" points="303.5,-294 162.5,-294 162.5,-275 303.5,-275 303.5,-294"/>
<text text-anchor="middle" x="233" y="-282" font-family="Helvetica,sans-Serif" font-size="10.00">controller/CanvasController.h</text>
</a>
</g>
</g>
<!-- Node1&#45;&gt;Node2 -->
<g id="edge1" class="edge">
<title>Node1&#45;&gt;Node2</title>
<path fill="none" stroke="#63b8ff" d="M369.16,-384.76C356.17,-375.88 335.56,-361.66 318,-349 295.89,-333.06 270.94,-314.34 253.83,-301.37"/>
<polygon fill="#63b8ff" stroke="#63b8ff" points="256.02,-298.64 245.94,-295.38 251.78,-304.21 256.02,-298.64"/>
</g>
<!-- Node11 -->
<g id="node11" class="node">
<title>Node11</title>
<g id="a_node11"><a xlink:href="CanvasView_8h.html" target="_top" xlink:title=" ">
<polygon fill="white" stroke="#666666" points="384,-239 274,-239 274,-220 384,-220 384,-239"/>
<text text-anchor="middle" x="329" y="-227" font-family="Helvetica,sans-Serif" font-size="10.00">../view/CanvasView.h</text>
</a>
</g>
</g>
<!-- Node1&#45;&gt;Node11 -->
<g id="edge40" class="edge">
<title>Node1&#45;&gt;Node11</title>
<path fill="none" stroke="#63b8ff" d="M374.1,-384.64C366.94,-376.11 356.67,-362.55 351,-349 337.32,-316.27 332.11,-274.92 330.15,-250.72"/>
<polygon fill="#63b8ff" stroke="#63b8ff" points="333.66,-250.73 329.48,-241 326.68,-251.21 333.66,-250.73"/>
</g>
<!-- Node12 -->
<g id="node12" class="node">
<title>Node12</title>
<g id="a_node12"><a xlink:href="DocumentsController_8h.html" target="_top" xlink:title=" ">
<polygon fill="white" stroke="#666666" points="720,-349 562,-349 562,-330 720,-330 720,-349"/>
<text text-anchor="middle" x="641" y="-337" font-family="Helvetica,sans-Serif" font-size="10.00">controller/DocumentsController.h</text>
</a>
</g>
</g>
<!-- Node1&#45;&gt;Node12 -->
<g id="edge19" class="edge">
<title>Node1&#45;&gt;Node12</title>
<path fill="none" stroke="#63b8ff" d="M418.29,-386.07C461.9,-377.15 535.54,-362.08 586.12,-351.73"/>
<polygon fill="#63b8ff" stroke="#63b8ff" points="586.6,-355.21 595.69,-349.77 585.19,-348.35 586.6,-355.21"/>
</g>
<!-- Node15 -->
<g id="node15" class="node">
<title>Node15</title>
<g id="a_node15"><a xlink:href="DocumentsView_8h.html" target="_top" xlink:title=" ">
<polygon fill="white" stroke="#666666" points="636,-294 510,-294 510,-275 636,-275 636,-294"/>
<text text-anchor="middle" x="573" y="-282" font-family="Helvetica,sans-Serif" font-size="10.00">../view/DocumentsView.h</text>
</a>
</g>
</g>
<!-- Node1&#45;&gt;Node15 -->
<g id="edge41" class="edge">
<title>Node1&#45;&gt;Node15</title>
<path fill="none" stroke="#63b8ff" d="M418.35,-386.58C446.4,-380.05 485.3,-368.32 515,-349 533.53,-336.94 550.03,-317.59 560.65,-303.42"/>
<polygon fill="#63b8ff" stroke="#63b8ff" points="563.4,-305.58 566.4,-295.42 557.72,-301.49 563.4,-305.58"/>
</g>
<!-- Node16 -->
<g id="node16" class="node">
<title>Node16</title>
<g id="a_node16"><a xlink:href="DocumentsService_8h.html" target="_top" xlink:title=" ">
<polygon fill="white" stroke="#666666" points="506,-349 360,-349 360,-330 506,-330 506,-349"/>
<text text-anchor="middle" x="433" y="-337" font-family="Helvetica,sans-Serif" font-size="10.00">services/DocumentsService.h</text>
</a>
</g>
</g>
<!-- Node1&#45;&gt;Node16 -->
<g id="edge34" class="edge">
<title>Node1&#45;&gt;Node16</title>
<path fill="none" stroke="#63b8ff" d="M390.42,-384.75C397.47,-377.43 407.73,-366.76 416.41,-357.74"/>
<polygon fill="#63b8ff" stroke="#63b8ff" points="418.93,-360.17 423.35,-350.53 413.89,-355.31 418.93,-360.17"/>
</g>
<!-- Node17 -->
<g id="node17" class="node">
<title>Node17</title>
<g id="a_node17"><a xlink:href="CanvasService_8h.html" target="_top" xlink:title=" ">
<polygon fill="white" stroke="#666666" points="130,-294 0,-294 0,-275 130,-275 130,-294"/>
<text text-anchor="middle" x="65" y="-282" font-family="Helvetica,sans-Serif" font-size="10.00">services/CanvasService.h</text>
</a>
</g>
</g>
<!-- Node1&#45;&gt;Node17 -->
<g id="edge36" class="edge">
<title>Node1&#45;&gt;Node17</title>
<path fill="none" stroke="#63b8ff" d="M355.79,-384.57C299.42,-365.36 166.53,-320.09 101.77,-298.03"/>
<polygon fill="#63b8ff" stroke="#63b8ff" points="103.27,-294.84 92.67,-294.93 101.01,-301.47 103.27,-294.84"/>
</g>
<!-- Node3 -->
<g id="node3" class="node">
<title>Node3</title>
<g id="a_node3"><a xlink:title=" ">
<polygon fill="#e0e0e0" stroke="#999999" points="482.5,-74 431.5,-74 431.5,-55 482.5,-55 482.5,-74"/>
<text text-anchor="middle" x="457" y="-62" font-family="Helvetica,sans-Serif" font-size="10.00">memory</text>
</a>
</g>
</g>
<!-- Node2&#45;&gt;Node3 -->
<g id="edge2" class="edge">
<title>Node2&#45;&gt;Node3</title>
<path fill="none" stroke="#63b8ff" d="M235.66,-274.79C240.02,-261.64 249.77,-236.52 265,-220 285.82,-197.42 299.44,-202.44 324,-184 362.99,-154.72 368.47,-142.3 405,-110 415.79,-100.46 428.03,-89.97 437.92,-81.58"/>
<polygon fill="#63b8ff" stroke="#63b8ff" points="440.03,-84.38 445.4,-75.24 435.5,-79.03 440.03,-84.38"/>
</g>
<!-- Node4 -->
<g id="node4" class="node">
<title>Node4</title>
<g id="a_node4"><a xlink:href="ICanvasService_8h.html" target="_top" xlink:title=" ">
<polygon fill="white" stroke="#666666" points="201,-184 61,-184 61,-165 201,-165 201,-184"/>
<text text-anchor="middle" x="131" y="-172" font-family="Helvetica,sans-Serif" font-size="10.00">../services/ICanvasService.h</text>
</a>
</g>
</g>
<!-- Node2&#45;&gt;Node4 -->
<g id="edge3" class="edge">
<title>Node2&#45;&gt;Node4</title>
<path fill="none" stroke="#63b8ff" d="M224.65,-274.66C207.77,-256.78 169.29,-216.05 147.27,-192.73"/>
<polygon fill="#63b8ff" stroke="#63b8ff" points="149.91,-190.43 140.5,-185.56 144.82,-195.23 149.91,-190.43"/>
</g>
<!-- Node8 -->
<g id="node8" class="node">
<title>Node8</title>
<g id="a_node8"><a xlink:href="Shape_8h.html" target="_top" xlink:title=" ">
<polygon fill="white" stroke="#666666" points="154.5,-74 97.5,-74 97.5,-55 154.5,-55 154.5,-74"/>
<text text-anchor="middle" x="126" y="-62" font-family="Helvetica,sans-Serif" font-size="10.00">./Shape.h</text>
</a>
</g>
</g>
<!-- Node2&#45;&gt;Node8 -->
<g id="edge18" class="edge">
<title>Node2&#45;&gt;Node8</title>
<path fill="none" stroke="#63b8ff" d="M194.02,-274.58C150.63,-262.34 82.58,-235.7 52,-184 29.92,-146.67 74.78,-103.69 103.84,-81.15"/>
<polygon fill="#63b8ff" stroke="#63b8ff" points="105.84,-84.02 111.76,-75.23 101.65,-78.42 105.84,-84.02"/>
</g>
<!-- Node2&#45;&gt;Node11 -->
<g id="edge14" class="edge">
<title>Node2&#45;&gt;Node11</title>
<path fill="none" stroke="#63b8ff" d="M249.29,-274.51C263.99,-266.39 285.89,-254.3 303.02,-244.85"/>
<polygon fill="#63b8ff" stroke="#63b8ff" points="304.57,-247.99 311.63,-240.09 301.18,-241.86 304.57,-247.99"/>
</g>
<!-- Node5 -->
<g id="node5" class="node">
<title>Node5</title>
<g id="a_node5"><a xlink:href="Observable_8h.html" target="_top" xlink:title=" ">
<polygon fill="white" stroke="#666666" points="546,-129 446,-129 446,-110 546,-110 546,-129"/>
<text text-anchor="middle" x="496" y="-117" font-family="Helvetica,sans-Serif" font-size="10.00">types/Observable.h</text>
</a>
</g>
</g>
<!-- Node4&#45;&gt;Node5 -->
<g id="edge4" class="edge">
<title>Node4&#45;&gt;Node5</title>
<path fill="none" stroke="#63b8ff" d="M192.92,-164.51C260.21,-154.74 367.1,-139.22 434.3,-129.46"/>
<polygon fill="#63b8ff" stroke="#63b8ff" points="434.66,-132.94 444.06,-128.04 433.66,-126.02 434.66,-132.94"/>
</g>
<!-- Node7 -->
<g id="node7" class="node">
<title>Node7</title>
<g id="a_node7"><a xlink:href="Canvas_8h.html" target="_top" xlink:title=" ">
<polygon fill="white" stroke="#666666" points="237.5,-129 154.5,-129 154.5,-110 237.5,-110 237.5,-129"/>
<text text-anchor="middle" x="196" y="-117" font-family="Helvetica,sans-Serif" font-size="10.00">types/Canvas.h</text>
</a>
</g>
</g>
<!-- Node4&#45;&gt;Node7 -->
<g id="edge7" class="edge">
<title>Node4&#45;&gt;Node7</title>
<path fill="none" stroke="#63b8ff" d="M142.03,-164.51C151.42,-156.85 165.15,-145.66 176.41,-136.47"/>
<polygon fill="#63b8ff" stroke="#63b8ff" points="178.43,-139.35 183.96,-130.31 174,-133.92 178.43,-139.35"/>
</g>
<!-- Node4&#45;&gt;Node8 -->
<g id="edge13" class="edge">
<title>Node4&#45;&gt;Node8</title>
<path fill="none" stroke="#63b8ff" d="M130.59,-164.66C129.8,-147.57 128.04,-109.61 126.95,-85.92"/>
<polygon fill="#63b8ff" stroke="#63b8ff" points="130.44,-85.8 126.48,-75.97 123.45,-86.12 130.44,-85.8"/>
</g>
<!-- Node5&#45;&gt;Node3 -->
<g id="edge6" class="edge">
<title>Node5&#45;&gt;Node3</title>
<path fill="none" stroke="#63b8ff" d="M489.56,-109.75C484.34,-102.66 476.81,-92.42 470.31,-83.59"/>
<polygon fill="#63b8ff" stroke="#63b8ff" points="473.22,-81.64 464.48,-75.66 467.58,-85.79 473.22,-81.64"/>
</g>
<!-- Node6 -->
<g id="node6" class="node">
<title>Node6</title>
<g id="a_node6"><a xlink:title=" ">
<polygon fill="#e0e0e0" stroke="#999999" points="338,-74 294,-74 294,-55 338,-55 338,-74"/>
<text text-anchor="middle" x="316" y="-62" font-family="Helvetica,sans-Serif" font-size="10.00">vector</text>
</a>
</g>
</g>
<!-- Node5&#45;&gt;Node6 -->
<g id="edge5" class="edge">
<title>Node5&#45;&gt;Node6</title>
<path fill="none" stroke="#63b8ff" d="M465.47,-109.51C433.25,-100.02 382.65,-85.12 349.4,-75.33"/>
<polygon fill="#63b8ff" stroke="#63b8ff" points="350.45,-72 339.87,-72.53 348.47,-78.71 350.45,-72"/>
</g>
<!-- Node7&#45;&gt;Node3 -->
<g id="edge9" class="edge">
<title>Node7&#45;&gt;Node3</title>
<path fill="none" stroke="#63b8ff" d="M237.93,-109.98C288.25,-99.77 371.84,-82.79 419.91,-73.03"/>
<polygon fill="#63b8ff" stroke="#63b8ff" points="420.44,-76.49 429.55,-71.07 419.05,-69.63 420.44,-76.49"/>
</g>
<!-- Node7&#45;&gt;Node6 -->
<g id="edge8" class="edge">
<title>Node7&#45;&gt;Node6</title>
<path fill="none" stroke="#63b8ff" d="M216.36,-109.51C235.35,-101.12 263.93,-88.5 285.62,-78.92"/>
<polygon fill="#63b8ff" stroke="#63b8ff" points="286.83,-82.21 294.56,-74.97 284,-75.81 286.83,-82.21"/>
</g>
<!-- Node7&#45;&gt;Node8 -->
<g id="edge10" class="edge">
<title>Node7&#45;&gt;Node8</title>
<path fill="none" stroke="#63b8ff" d="M184.13,-109.51C173.91,-101.77 158.93,-90.43 146.74,-81.2"/>
<polygon fill="#63b8ff" stroke="#63b8ff" points="148.99,-78.52 138.91,-75.27 144.77,-84.1 148.99,-78.52"/>
</g>
<!-- Node9 -->
<g id="node9" class="node">
<title>Node9</title>
<g id="a_node9"><a xlink:title=" ">
<polygon fill="#e0e0e0" stroke="#999999" points="286.5,-19 245.5,-19 245.5,0 286.5,0 286.5,-19"/>
<text text-anchor="middle" x="266" y="-7" font-family="Helvetica,sans-Serif" font-size="10.00">string</text>
</a>
</g>
</g>
<!-- Node8&#45;&gt;Node9 -->
<g id="edge11" class="edge">
<title>Node8&#45;&gt;Node9</title>
<path fill="none" stroke="#63b8ff" d="M149.75,-54.51C173.13,-45.66 208.96,-32.09 234.66,-22.36"/>
<polygon fill="#63b8ff" stroke="#63b8ff" points="235.8,-25.67 243.92,-18.86 233.33,-19.13 235.8,-25.67"/>
</g>
<!-- Node10 -->
<g id="node10" class="node">
<title>Node10</title>
<g id="a_node10"><a xlink:href="Point_8h.html" target="_top" xlink:title=" ">
<polygon fill="white" stroke="#666666" points="152,-19 100,-19 100,0 152,0 152,-19"/>
<text text-anchor="middle" x="126" y="-7" font-family="Helvetica,sans-Serif" font-size="10.00">./Point.h</text>
</a>
</g>
</g>
<!-- Node8&#45;&gt;Node10 -->
<g id="edge12" class="edge">
<title>Node8&#45;&gt;Node10</title>
<path fill="none" stroke="#63b8ff" d="M126,-54.75C126,-48.27 126,-39.16 126,-30.9"/>
<polygon fill="#63b8ff" stroke="#63b8ff" points="129.5,-30.96 126,-20.96 122.5,-30.96 129.5,-30.96"/>
</g>
<!-- Node11&#45;&gt;Node3 -->
<g id="edge15" class="edge">
<title>Node11&#45;&gt;Node3</title>
<path fill="none" stroke="#63b8ff" d="M335.88,-219.74C356.11,-193.98 415.67,-118.13 443,-83.33"/>
<polygon fill="#63b8ff" stroke="#63b8ff" points="445.73,-85.52 449.15,-75.5 440.22,-81.2 445.73,-85.52"/>
</g>
<!-- Node11&#45;&gt;Node4 -->
<g id="edge16" class="edge">
<title>Node11&#45;&gt;Node4</title>
<path fill="none" stroke="#63b8ff" d="M295.41,-219.51C262.32,-210.65 211.57,-197.07 175.21,-187.33"/>
<polygon fill="#63b8ff" stroke="#63b8ff" points="176.45,-184.04 165.88,-184.84 174.64,-190.8 176.45,-184.04"/>
</g>
<!-- Node11&#45;&gt;Node5 -->
<g id="edge17" class="edge">
<title>Node11&#45;&gt;Node5</title>
<path fill="none" stroke="#63b8ff" d="M357.87,-219.53C379.63,-211.99 409.61,-199.89 433,-184 451.99,-171.09 470.07,-151.91 481.94,-138.01"/>
<polygon fill="#63b8ff" stroke="#63b8ff" points="484.45,-140.46 488.14,-130.53 479.07,-135.99 484.45,-140.46"/>
</g>
<!-- Node12&#45;&gt;Node3 -->
<g id="edge21" class="edge">
<title>Node12&#45;&gt;Node3</title>
<path fill="none" stroke="#63b8ff" d="M644.2,-329.68C650.52,-311.42 664,-268.07 664,-230.5 664,-230.5 664,-230.5 664,-173.5 664,-97.69 553.51,-75 493.98,-68.28"/>
<polygon fill="#63b8ff" stroke="#63b8ff" points="494.61,-64.83 484.3,-67.3 493.9,-71.79 494.61,-64.83"/>
</g>
<!-- Node12&#45;&gt;Node9 -->
<g id="edge20" class="edge">
<title>Node12&#45;&gt;Node9</title>
<path fill="none" stroke="#63b8ff" d="M650.26,-329.65C667.33,-312.34 702,-272.06 702,-230.5 702,-230.5 702,-230.5 702,-118.5 702,-35.23 398.55,-15.73 297.96,-11.55"/>
<polygon fill="#63b8ff" stroke="#63b8ff" points="298.38,-8.07 288.25,-11.18 298.1,-15.06 298.38,-8.07"/>
</g>
<!-- Node13 -->
<g id="node13" class="node">
<title>Node13</title>
<g id="a_node13"><a xlink:href="IDocumentsService_8h.html" target="_top" xlink:title=" ">
<polygon fill="white" stroke="#666666" points="559.5,-239 402.5,-239 402.5,-220 559.5,-220 559.5,-239"/>
<text text-anchor="middle" x="481" y="-227" font-family="Helvetica,sans-Serif" font-size="10.00">../services/IDocumentsService.h</text>
</a>
</g>
</g>
<!-- Node12&#45;&gt;Node13 -->
<g id="edge22" class="edge">
<title>Node12&#45;&gt;Node13</title>
<path fill="none" stroke="#63b8ff" d="M569.91,-329.56C545.33,-323.22 519.37,-312.42 501,-294 489.5,-282.47 484.6,-264.4 482.52,-250.48"/>
<polygon fill="#63b8ff" stroke="#63b8ff" points="486.01,-250.24 481.46,-240.67 479.06,-250.99 486.01,-250.24"/>
</g>
<!-- Node12&#45;&gt;Node15 -->
<g id="edge30" class="edge">
<title>Node12&#45;&gt;Node15</title>
<path fill="none" stroke="#63b8ff" d="M629.46,-329.51C619.54,-321.77 604.99,-310.43 593.14,-301.2"/>
<polygon fill="#63b8ff" stroke="#63b8ff" points="595.6,-298.68 585.56,-295.29 591.29,-304.2 595.6,-298.68"/>
</g>
<!-- Node13&#45;&gt;Node3 -->
<g id="edge24" class="edge">
<title>Node13&#45;&gt;Node3</title>
<path fill="none" stroke="#63b8ff" d="M494.26,-219.53C521.92,-199.67 581.14,-150.58 555,-110 541.56,-89.13 515.68,-77.94 493.89,-72"/>
<polygon fill="#63b8ff" stroke="#63b8ff" points="494.97,-68.66 484.42,-69.7 493.32,-75.46 494.97,-68.66"/>
</g>
<!-- Node13&#45;&gt;Node5 -->
<g id="edge29" class="edge">
<title>Node13&#45;&gt;Node5</title>
<path fill="none" stroke="#63b8ff" d="M482.23,-219.66C484.61,-202.5 489.92,-164.26 493.21,-140.6"/>
<polygon fill="#63b8ff" stroke="#63b8ff" points="496.64,-141.35 494.55,-130.96 489.7,-140.38 496.64,-141.35"/>
</g>
<!-- Node13&#45;&gt;Node6 -->
<g id="edge23" class="edge">
<title>Node13&#45;&gt;Node6</title>
<path fill="none" stroke="#63b8ff" d="M472.13,-219.74C445.72,-193.65 367.29,-116.17 332.71,-82"/>
<polygon fill="#63b8ff" stroke="#63b8ff" points="335.57,-79.91 325.99,-75.37 330.65,-84.89 335.57,-79.91"/>
</g>
<!-- Node14 -->
<g id="node14" class="node">
<title>Node14</title>
<g id="a_node14"><a xlink:href="Document_8h.html" target="_top" xlink:title=" ">
<polygon fill="white" stroke="#666666" points="314.5,-184 219.5,-184 219.5,-165 314.5,-165 314.5,-184"/>
<text text-anchor="middle" x="267" y="-172" font-family="Helvetica,sans-Serif" font-size="10.00">types/Document.h</text>
</a>
</g>
</g>
<!-- Node13&#45;&gt;Node14 -->
<g id="edge25" class="edge">
<title>Node13&#45;&gt;Node14</title>
<path fill="none" stroke="#63b8ff" d="M444.7,-219.51C408.77,-210.61 353.6,-196.95 314.27,-187.21"/>
<polygon fill="#63b8ff" stroke="#63b8ff" points="315.14,-183.82 304.59,-184.81 313.46,-190.61 315.14,-183.82"/>
</g>
<!-- Node14&#45;&gt;Node3 -->
<g id="edge27" class="edge">
<title>Node14&#45;&gt;Node3</title>
<path fill="none" stroke="#63b8ff" d="M279.84,-164.59C298.44,-151.83 334.15,-127.92 366,-110 385.8,-98.86 408.79,-87.63 426.71,-79.24"/>
<polygon fill="#63b8ff" stroke="#63b8ff" points="428.16,-82.42 435.76,-75.04 425.22,-76.07 428.16,-82.42"/>
</g>
<!-- Node14&#45;&gt;Node7 -->
<g id="edge28" class="edge">
<title>Node14&#45;&gt;Node7</title>
<path fill="none" stroke="#63b8ff" d="M254.96,-164.51C244.59,-156.77 229.4,-145.43 217.03,-136.2"/>
<polygon fill="#63b8ff" stroke="#63b8ff" points="219.19,-133.44 209.08,-130.26 215,-139.05 219.19,-133.44"/>
</g>
<!-- Node14&#45;&gt;Node9 -->
<g id="edge26" class="edge">
<title>Node14&#45;&gt;Node9</title>
<path fill="none" stroke="#63b8ff" d="M266.95,-164.74C266.79,-139.53 266.34,-66.36 266.12,-30.62"/>
<polygon fill="#63b8ff" stroke="#63b8ff" points="269.62,-30.8 266.06,-20.82 262.62,-30.84 269.62,-30.8"/>
</g>
<!-- Node15&#45;&gt;Node3 -->
<g id="edge31" class="edge">
<title>Node15&#45;&gt;Node3</title>
<path fill="none" stroke="#63b8ff" d="M576.25,-274.75C585.9,-247.14 611.32,-160.7 572,-110 553.26,-85.83 519.62,-74.78 493.55,-69.73"/>
<polygon fill="#63b8ff" stroke="#63b8ff" points="494.48,-66.34 484.04,-68.11 493.31,-73.24 494.48,-66.34"/>
</g>
<!-- Node15&#45;&gt;Node5 -->
<g id="edge33" class="edge">
<title>Node15&#45;&gt;Node5</title>
<path fill="none" stroke="#63b8ff" d="M573.98,-274.56C575.02,-261.96 575.7,-238.48 569,-220 557.13,-187.26 530.9,-155.99 513.34,-137.51"/>
<polygon fill="#63b8ff" stroke="#63b8ff" points="515.85,-135.07 506.35,-130.38 510.85,-139.97 515.85,-135.07"/>
</g>
<!-- Node15&#45;&gt;Node13 -->
<g id="edge32" class="edge">
<title>Node15&#45;&gt;Node13</title>
<path fill="none" stroke="#63b8ff" d="M557.39,-274.51C543.3,-266.39 522.31,-254.3 505.9,-244.85"/>
<polygon fill="#63b8ff" stroke="#63b8ff" points="508.1,-242.07 497.69,-240.11 504.61,-248.14 508.1,-242.07"/>
</g>
<!-- Node16&#45;&gt;Node13 -->
<g id="edge35" class="edge">
<title>Node16&#45;&gt;Node13</title>
<path fill="none" stroke="#63b8ff" d="M436.93,-329.66C444.63,-312.34 461.87,-273.55 472.36,-249.95"/>
<polygon fill="#63b8ff" stroke="#63b8ff" points="475.54,-251.4 476.4,-240.84 469.14,-248.56 475.54,-251.4"/>
</g>
<!-- Node17&#45;&gt;Node4 -->
<g id="edge38" class="edge">
<title>Node17&#45;&gt;Node4</title>
<path fill="none" stroke="#63b8ff" d="M70.4,-274.66C81.13,-257.1 105.34,-217.48 119.7,-193.98"/>
<polygon fill="#63b8ff" stroke="#63b8ff" points="122.51,-196.11 124.74,-185.75 116.53,-192.46 122.51,-196.11"/>
</g>
<!-- Node17&#45;&gt;Node8 -->
<g id="edge39" class="edge">
<title>Node17&#45;&gt;Node8</title>
<path fill="none" stroke="#63b8ff" d="M58.14,-274.76C37.94,-247.88 -17.66,-164.96 19,-110 33.87,-87.71 62.24,-76.57 86.03,-71.01"/>
<polygon fill="#63b8ff" stroke="#63b8ff" points="86.68,-74.44 95.78,-69.01 85.28,-67.59 86.68,-74.44"/>
</g>
<!-- Node17&#45;&gt;Node13 -->
<g id="edge37" class="edge">
<title>Node17&#45;&gt;Node13</title>
<path fill="none" stroke="#63b8ff" d="M130.46,-275.16C203.08,-265.91 320.37,-250.96 399.04,-240.94"/>
<polygon fill="#63b8ff" stroke="#63b8ff" points="399.38,-244.43 408.86,-239.69 398.5,-237.48 399.38,-244.43"/>
</g>
</g>
</svg>
