<?xml version="1.0" encoding="UTF-8" standalone="no"?>
<!DOCTYPE svg PUBLIC "-//W3C//DTD SVG 1.1//EN"
 "http://www.w3.org/Graphics/SVG/1.1/DTD/svg11.dtd">
<!-- Generated by graphviz version 7.0.2 (20221119.0110)
 -->
<!-- Title: src/types/Observable.h Pages: 1 -->
<svg width="1141pt" height="269pt"
 viewBox="0.00 0.00 1140.50 269.00" xmlns="http://www.w3.org/2000/svg" xmlns:xlink="http://www.w3.org/1999/xlink">
<g id="graph0" class="graph" transform="scale(1 1) rotate(0) translate(4 265)">
<title>src/types/Observable.h</title>
<!-- Node1 -->
<g id="node1" class="node">
<title>Node1</title>
<g id="a_node1"><a xlink:title=" ">
<polygon fill="#999999" stroke="#666666" points="713.5,-261 597.5,-261 597.5,-242 713.5,-242 713.5,-261"/>
<text text-anchor="middle" x="655.5" y="-249" font-family="Helvetica,sans-Serif" font-size="10.00">src/types/Observable.h</text>
</a>
</g>
</g>
<!-- Node2 -->
<g id="node2" class="node">
<title>Node2</title>
<g id="a_node2"><a xlink:href="ICanvasService_8h.html" target="_top" xlink:title=" ">
<polygon fill="white" stroke="#666666" points="525,-206 376,-206 376,-187 525,-187 525,-206"/>
<text text-anchor="middle" x="450.5" y="-194" font-family="Helvetica,sans-Serif" font-size="10.00">src/services/ICanvasService.h</text>
</a>
</g>
</g>
<!-- Node1&#45;&gt;Node2 -->
<g id="edge1" class="edge">
<title>Node1&#45;&gt;Node2</title>
<path fill="none" stroke="#63b8ff" d="M610.03,-238.74C572.3,-228.99 519.46,-215.33 485.1,-206.45"/>
<polygon fill="#63b8ff" stroke="#63b8ff" points="608.7,-242.02 619.26,-241.13 610.45,-235.24 608.7,-242.02"/>
</g>
<!-- Node8 -->
<g id="node8" class="node">
<title>Node8</title>
<g id="a_node8"><a xlink:href="CanvasView_8h.html" target="_top" xlink:title=" ">
<polygon fill="white" stroke="#666666" points="324,-151 205,-151 205,-132 324,-132 324,-151"/>
<text text-anchor="middle" x="264.5" y="-139" font-family="Helvetica,sans-Serif" font-size="10.00">src/view/CanvasView.h</text>
</a>
</g>
</g>
<!-- Node1&#45;&gt;Node8 -->
<g id="edge25" class="edge">
<title>Node1&#45;&gt;Node8</title>
<path fill="none" stroke="#63b8ff" d="M586.1,-247.51C526.53,-243.14 439.2,-232.41 367.5,-206 331.03,-192.57 293.48,-165.39 275.46,-151.34"/>
<polygon fill="#63b8ff" stroke="#63b8ff" points="585.53,-250.98 595.74,-248.17 586.01,-243.99 585.53,-250.98"/>
</g>
<!-- Node10 -->
<g id="node10" class="node">
<title>Node10</title>
<g id="a_node10"><a xlink:href="IDocumentsService_8h.html" target="_top" xlink:title=" ">
<polygon fill="white" stroke="#666666" points="738.5,-206 572.5,-206 572.5,-187 738.5,-187 738.5,-206"/>
<text text-anchor="middle" x="655.5" y="-194" font-family="Helvetica,sans-Serif" font-size="10.00">src/services/IDocumentsService.h</text>
</a>
</g>
</g>
<!-- Node1&#45;&gt;Node10 -->
<g id="edge12" class="edge">
<title>Node1&#45;&gt;Node10</title>
<path fill="none" stroke="#63b8ff" d="M655.5,-230.35C655.5,-222.1 655.5,-212.97 655.5,-206.44"/>
<polygon fill="#63b8ff" stroke="#63b8ff" points="652,-230.23 655.5,-240.23 659,-230.23 652,-230.23"/>
</g>
<!-- Node15 -->
<g id="node15" class="node">
<title>Node15</title>
<g id="a_node15"><a xlink:href="DocumentsView_8h.html" target="_top" xlink:title=" ">
<polygon fill="white" stroke="#666666" points="935,-151 800,-151 800,-132 935,-132 935,-151"/>
<text text-anchor="middle" x="867.5" y="-139" font-family="Helvetica,sans-Serif" font-size="10.00">src/view/DocumentsView.h</text>
</a>
</g>
</g>
<!-- Node1&#45;&gt;Node15 -->
<g id="edge26" class="edge">
<title>Node1&#45;&gt;Node15</title>
<path fill="none" stroke="#63b8ff" d="M684.52,-236.8C702.69,-228.13 726.56,-216.6 747.5,-206 784.93,-187.05 828.33,-163.75 851.29,-151.32"/>
<polygon fill="#63b8ff" stroke="#63b8ff" points="683.17,-233.56 675.64,-241.01 686.18,-239.88 683.17,-233.56"/>
</g>
<!-- Node17 -->
<g id="node17" class="node">
<title>Node17</title>
<g id="a_node17"><a xlink:href="Observable_8cpp.html" target="_top" xlink:title=" ">
<polygon fill="white" stroke="#666666" points="922,-206 795,-206 795,-187 922,-187 922,-206"/>
<text text-anchor="middle" x="858.5" y="-194" font-family="Helvetica,sans-Serif" font-size="10.00">src/types/Observable.cpp</text>
</a>
</g>
</g>
<!-- Node1&#45;&gt;Node17 -->
<g id="edge24" class="edge">
<title>Node1&#45;&gt;Node17</title>
<path fill="none" stroke="#63b8ff" d="M701.01,-238.62C738.34,-228.87 790.36,-215.29 824.23,-206.45"/>
<polygon fill="#63b8ff" stroke="#63b8ff" points="700.19,-235.21 691.4,-241.13 701.96,-241.99 700.19,-235.21"/>
</g>
<!-- Node3 -->
<g id="node3" class="node">
<title>Node3</title>
<g id="a_node3"><a xlink:href="CanvasController_8h.html" target="_top" xlink:title=" ">
<polygon fill="white" stroke="#666666" points="343.5,-90.5 185.5,-90.5 185.5,-71.5 343.5,-71.5 343.5,-90.5"/>
<text text-anchor="middle" x="264.5" y="-78.5" font-family="Helvetica,sans-Serif" font-size="10.00">src/controller/CanvasController.h</text>
</a>
</g>
</g>
<!-- Node2&#45;&gt;Node3 -->
<g id="edge2" class="edge">
<title>Node2&#45;&gt;Node3</title>
<path fill="none" stroke="#63b8ff" d="M426.09,-180.61C386.83,-156.64 310.81,-110.26 279.03,-90.86"/>
<polygon fill="#63b8ff" stroke="#63b8ff" points="424.25,-183.58 434.61,-185.81 427.9,-177.61 424.25,-183.58"/>
</g>
<!-- Node6 -->
<g id="node6" class="node">
<title>Node6</title>
<g id="a_node6"><a xlink:href="CanvasService_8h.html" target="_top" xlink:title=" ">
<polygon fill="white" stroke="#666666" points="546.5,-151 400.5,-151 400.5,-132 546.5,-132 546.5,-151"/>
<text text-anchor="middle" x="473.5" y="-139" font-family="Helvetica,sans-Serif" font-size="10.00">src/services/CanvasService.h</text>
</a>
</g>
</g>
<!-- Node2&#45;&gt;Node6 -->
<g id="edge5" class="edge">
<title>Node2&#45;&gt;Node6</title>
<path fill="none" stroke="#63b8ff" d="M458.87,-176.22C462.55,-167.74 466.68,-158.21 469.62,-151.44"/>
<polygon fill="#63b8ff" stroke="#63b8ff" points="455.67,-174.79 454.9,-185.36 462.09,-177.58 455.67,-174.79"/>
</g>
<!-- Node2&#45;&gt;Node8 -->
<g id="edge8" class="edge">
<title>Node2&#45;&gt;Node8</title>
<path fill="none" stroke="#63b8ff" d="M407.91,-183.36C373.78,-173.64 326.66,-160.21 295.9,-151.45"/>
<polygon fill="#63b8ff" stroke="#63b8ff" points="406.92,-186.72 417.49,-186.09 408.83,-179.99 406.92,-186.72"/>
</g>
<!-- Node4 -->
<g id="node4" class="node">
<title>Node4</title>
<g id="a_node4"><a xlink:href="CanvasController_8cpp.html" target="_top" xlink:title=" ">
<polygon fill="white" stroke="#666666" points="348.5,-24.5 180.5,-24.5 180.5,-5.5 348.5,-5.5 348.5,-24.5"/>
<text text-anchor="middle" x="264.5" y="-12.5" font-family="Helvetica,sans-Serif" font-size="10.00">src/controller/CanvasController.cpp</text>
</a>
</g>
</g>
<!-- Node3&#45;&gt;Node4 -->
<g id="edge3" class="edge">
<title>Node3&#45;&gt;Node4</title>
<path fill="none" stroke="#63b8ff" d="M264.5,-59.68C264.5,-47.94 264.5,-33.77 264.5,-24.82"/>
<polygon fill="#63b8ff" stroke="#63b8ff" points="261,-59.59 264.5,-69.59 268,-59.59 261,-59.59"/>
</g>
<!-- Node5 -->
<g id="node5" class="node">
<title>Node5</title>
<g id="a_node5"><a xlink:href="main_8cpp.html" target="_top" xlink:title=" ">
<polygon fill="white" stroke="#666666" points="602.5,-24.5 530.5,-24.5 530.5,-5.5 602.5,-5.5 602.5,-24.5"/>
<text text-anchor="middle" x="566.5" y="-12.5" font-family="Helvetica,sans-Serif" font-size="10.00">src/main.cpp</text>
</a>
</g>
</g>
<!-- Node3&#45;&gt;Node5 -->
<g id="edge4" class="edge">
<title>Node3&#45;&gt;Node5</title>
<path fill="none" stroke="#63b8ff" d="M317.76,-68.71C378.82,-55.77 477.27,-34.91 530.15,-23.7"/>
<polygon fill="#63b8ff" stroke="#63b8ff" points="317.35,-65.22 308.29,-70.72 318.8,-72.07 317.35,-65.22"/>
</g>
<!-- Node6&#45;&gt;Node5 -->
<g id="edge6" class="edge">
<title>Node6&#45;&gt;Node5</title>
<path fill="none" stroke="#63b8ff" d="M496.84,-125.25C507.49,-117.45 519.66,-107.23 528.5,-96 546.57,-73.05 558.75,-40.1 563.83,-24.63"/>
<polygon fill="#63b8ff" stroke="#63b8ff" points="495.06,-122.23 488.88,-130.83 499.08,-127.96 495.06,-122.23"/>
</g>
<!-- Node7 -->
<g id="node7" class="node">
<title>Node7</title>
<g id="a_node7"><a xlink:href="CanvasService_8cpp.html" target="_top" xlink:title=" ">
<polygon fill="white" stroke="#666666" points="519,-90.5 362,-90.5 362,-71.5 519,-71.5 519,-90.5"/>
<text text-anchor="middle" x="440.5" y="-78.5" font-family="Helvetica,sans-Serif" font-size="10.00">src/services/CanvasService.cpp</text>
</a>
</g>
</g>
<!-- Node6&#45;&gt;Node7 -->
<g id="edge7" class="edge">
<title>Node6&#45;&gt;Node7</title>
<path fill="none" stroke="#63b8ff" d="M463.06,-121.99C457.15,-111.51 450.03,-98.89 445.39,-90.67"/>
<polygon fill="#63b8ff" stroke="#63b8ff" points="459.93,-123.56 467.89,-130.55 466.02,-120.12 459.93,-123.56"/>
</g>
<!-- Node8&#45;&gt;Node3 -->
<g id="edge9" class="edge">
<title>Node8&#45;&gt;Node3</title>
<path fill="none" stroke="#63b8ff" d="M264.5,-120.66C264.5,-110.45 264.5,-98.54 264.5,-90.67"/>
<polygon fill="#63b8ff" stroke="#63b8ff" points="261,-120.35 264.5,-130.35 268,-120.35 261,-120.35"/>
</g>
<!-- Node8&#45;&gt;Node5 -->
<g id="edge10" class="edge">
<title>Node8&#45;&gt;Node5</title>
<path fill="none" stroke="#63b8ff" d="M216.63,-127.46C201.09,-120.71 185.53,-110.69 176.5,-96 169.52,-84.64 167.69,-76.01 176.5,-66 199.7,-39.64 437.53,-23.35 530,-17.98"/>
<polygon fill="#63b8ff" stroke="#63b8ff" points="215.31,-130.7 225.9,-131.08 217.85,-124.18 215.31,-130.7"/>
</g>
<!-- Node9 -->
<g id="node9" class="node">
<title>Node9</title>
<g id="a_node9"><a xlink:href="CanvasView_8cpp.html" target="_top" xlink:title=" ">
<polygon fill="white" stroke="#666666" points="129,-90.5 0,-90.5 0,-71.5 129,-71.5 129,-90.5"/>
<text text-anchor="middle" x="64.5" y="-78.5" font-family="Helvetica,sans-Serif" font-size="10.00">src/view/CanvasView.cpp</text>
</a>
</g>
</g>
<!-- Node8&#45;&gt;Node9 -->
<g id="edge11" class="edge">
<title>Node8&#45;&gt;Node9</title>
<path fill="none" stroke="#63b8ff" d="M223.4,-128.48C185.31,-117.34 129.49,-101.01 95.16,-90.97"/>
<polygon fill="#63b8ff" stroke="#63b8ff" points="222.09,-131.74 232.67,-131.19 224.06,-125.02 222.09,-131.74"/>
</g>
<!-- Node10&#45;&gt;Node6 -->
<g id="edge16" class="edge">
<title>Node10&#45;&gt;Node6</title>
<path fill="none" stroke="#63b8ff" d="M613.83,-183.36C580.43,-173.64 534.33,-160.21 504.22,-151.45"/>
<polygon fill="#63b8ff" stroke="#63b8ff" points="612.59,-186.65 623.17,-186.09 614.55,-179.93 612.59,-186.65"/>
</g>
<!-- Node11 -->
<g id="node11" class="node">
<title>Node11</title>
<g id="a_node11"><a xlink:href="DocumentsController_8h.html" target="_top" xlink:title=" ">
<polygon fill="white" stroke="#666666" points="930,-96 805,-96 805,-66 930,-66 930,-96"/>
<text text-anchor="start" x="813" y="-84" font-family="Helvetica,sans-Serif" font-size="10.00">src/controller/Documents</text>
<text text-anchor="middle" x="867.5" y="-73" font-family="Helvetica,sans-Serif" font-size="10.00">Controller.h</text>
</a>
</g>
</g>
<!-- Node10&#45;&gt;Node11 -->
<g id="edge13" class="edge">
<title>Node10&#45;&gt;Node11</title>
<path fill="none" stroke="#63b8ff" d="M684.9,-181.71C702.84,-173.14 726.16,-161.76 746.5,-151 780.49,-133.02 818.93,-110.76 843.19,-96.47"/>
<polygon fill="#63b8ff" stroke="#63b8ff" points="683.4,-178.54 675.87,-185.99 686.4,-184.87 683.4,-178.54"/>
</g>
<!-- Node13 -->
<g id="node13" class="node">
<title>Node13</title>
<g id="a_node13"><a xlink:href="DocumentsService_8h.html" target="_top" xlink:title=" ">
<polygon fill="white" stroke="#666666" points="737,-151 574,-151 574,-132 737,-132 737,-151"/>
<text text-anchor="middle" x="655.5" y="-139" font-family="Helvetica,sans-Serif" font-size="10.00">src/services/DocumentsService.h</text>
</a>
</g>
</g>
<!-- Node10&#45;&gt;Node13 -->
<g id="edge17" class="edge">
<title>Node10&#45;&gt;Node13</title>
<path fill="none" stroke="#63b8ff" d="M655.5,-175.35C655.5,-167.1 655.5,-157.97 655.5,-151.44"/>
<polygon fill="#63b8ff" stroke="#63b8ff" points="652,-175.23 655.5,-185.23 659,-175.23 652,-175.23"/>
</g>
<!-- Node10&#45;&gt;Node15 -->
<g id="edge20" class="edge">
<title>Node10&#45;&gt;Node15</title>
<path fill="none" stroke="#63b8ff" d="M702.53,-183.74C741.54,-173.99 796.19,-160.33 831.72,-151.45"/>
<polygon fill="#63b8ff" stroke="#63b8ff" points="701.78,-180.32 692.93,-186.14 703.48,-187.11 701.78,-180.32"/>
</g>
<!-- Node11&#45;&gt;Node5 -->
<g id="edge15" class="edge">
<title>Node11&#45;&gt;Node5</title>
<path fill="none" stroke="#63b8ff" d="M793.72,-64.31C733.09,-51.42 649.78,-33.71 602.72,-23.7"/>
<polygon fill="#63b8ff" stroke="#63b8ff" points="792.78,-67.69 803.29,-66.35 794.23,-60.84 792.78,-67.69"/>
</g>
<!-- Node12 -->
<g id="node12" class="node">
<title>Node12</title>
<g id="a_node12"><a xlink:href="DocumentsController_8cpp.html" target="_top" xlink:title=" ">
<polygon fill="white" stroke="#666666" points="930,-30 805,-30 805,0 930,0 930,-30"/>
<text text-anchor="start" x="813" y="-18" font-family="Helvetica,sans-Serif" font-size="10.00">src/controller/Documents</text>
<text text-anchor="middle" x="867.5" y="-7" font-family="Helvetica,sans-Serif" font-size="10.00">Controller.cpp</text>
</a>
</g>
</g>
<!-- Node11&#45;&gt;Node12 -->
<g id="edge14" class="edge">
<title>Node11&#45;&gt;Node12</title>
<path fill="none" stroke="#63b8ff" d="M867.5,-54.39C867.5,-46.13 867.5,-37.28 867.5,-30.16"/>
<polygon fill="#63b8ff" stroke="#63b8ff" points="864,-54.28 867.5,-64.28 871,-54.28 864,-54.28"/>
</g>
<!-- Node13&#45;&gt;Node5 -->
<g id="edge18" class="edge">
<title>Node13&#45;&gt;Node5</title>
<path fill="none" stroke="#63b8ff" d="M634.18,-124.67C624.58,-116.8 613.61,-106.7 605.5,-96 587.77,-72.6 574.87,-39.87 569.4,-24.55"/>
<polygon fill="#63b8ff" stroke="#63b8ff" points="631.95,-127.37 641.97,-130.79 636.27,-121.86 631.95,-127.37"/>
</g>
<!-- Node14 -->
<g id="node14" class="node">
<title>Node14</title>
<g id="a_node14"><a xlink:href="DocumentsService_8cpp.html" target="_top" xlink:title=" ">
<polygon fill="white" stroke="#666666" points="787,-90.5 614,-90.5 614,-71.5 787,-71.5 787,-90.5"/>
<text text-anchor="middle" x="700.5" y="-78.5" font-family="Helvetica,sans-Serif" font-size="10.00">src/services/DocumentsService.cpp</text>
</a>
</g>
</g>
<!-- Node13&#45;&gt;Node14 -->
<g id="edge19" class="edge">
<title>Node13&#45;&gt;Node14</title>
<path fill="none" stroke="#63b8ff" d="M668.98,-122.98C677.18,-112.31 687.31,-99.15 693.83,-90.67"/>
<polygon fill="#63b8ff" stroke="#63b8ff" points="666.39,-120.61 663.06,-130.67 671.93,-124.88 666.39,-120.61"/>
</g>
<!-- Node15&#45;&gt;Node5 -->
<g id="edge22" class="edge">
<title>Node15&#45;&gt;Node5</title>
<path fill="none" stroke="#63b8ff" d="M904.58,-126.74C918.07,-119.72 931.86,-109.71 939.5,-96 945.99,-84.35 948.28,-76.03 939.5,-66 917.48,-40.83 692.08,-23.94 602.71,-18.18"/>
<polygon fill="#63b8ff" stroke="#63b8ff" points="903.35,-123.45 895.81,-130.88 906.34,-129.78 903.35,-123.45"/>
</g>
<!-- Node15&#45;&gt;Node11 -->
<g id="edge21" class="edge">
<title>Node15&#45;&gt;Node11</title>
<path fill="none" stroke="#63b8ff" d="M867.5,-120.51C867.5,-112.49 867.5,-103.43 867.5,-96.11"/>
<polygon fill="#63b8ff" stroke="#63b8ff" points="864,-120.35 867.5,-130.35 871,-120.35 864,-120.35"/>
</g>
<!-- Node16 -->
<g id="node16" class="node">
<title>Node16</title>
<g id="a_node16"><a xlink:href="DocumentsView_8cpp.html" target="_top" xlink:title=" ">
<polygon fill="white" stroke="#666666" points="1132.5,-90.5 986.5,-90.5 986.5,-71.5 1132.5,-71.5 1132.5,-90.5"/>
<text text-anchor="middle" x="1059.5" y="-78.5" font-family="Helvetica,sans-Serif" font-size="10.00">src/view/DocumentsView.cpp</text>
</a>
</g>
</g>
<!-- Node15&#45;&gt;Node16 -->
<g id="edge23" class="edge">
<title>Node15&#45;&gt;Node16</title>
<path fill="none" stroke="#63b8ff" d="M907.43,-128.33C943.99,-117.2 997.25,-100.97 1030.06,-90.97"/>
<polygon fill="#63b8ff" stroke="#63b8ff" points="906.65,-124.91 898.11,-131.17 908.69,-131.61 906.65,-124.91"/>
</g>
</g>
</svg>
