<?xml version="1.0" encoding="UTF-8" standalone="no"?>
<!DOCTYPE svg PUBLIC "-//W3C//DTD SVG 1.1//EN"
 "http://www.w3.org/Graphics/SVG/1.1/DTD/svg11.dtd">
<!-- Generated by graphviz version 7.0.2 (20221119.0110)
 -->
<!-- Title: src/types/Shape.h Pages: 1 -->
<svg width="1144pt" height="379pt"
 viewBox="0.00 0.00 1143.50 379.00" xmlns="http://www.w3.org/2000/svg" xmlns:xlink="http://www.w3.org/1999/xlink">
<g id="graph0" class="graph" transform="scale(1 1) rotate(0) translate(4 375)">
<title>src/types/Shape.h</title>
<!-- Node1 -->
<g id="node1" class="node">
<title>Node1</title>
<g id="a_node1"><a xlink:title=" ">
<polygon fill="#999999" stroke="#666666" points="480.5,-371 385.5,-371 385.5,-352 480.5,-352 480.5,-371"/>
<text text-anchor="middle" x="433" y="-359" font-family="Helvetica,sans-Serif" font-size="10.00">src/types/Shape.h</text>
</a>
</g>
</g>
<!-- Node2 -->
<g id="node2" class="node">
<title>Node2</title>
<g id="a_node2"><a xlink:href="CanvasController_8h.html" target="_top" xlink:title=" ">
<polygon fill="white" stroke="#666666" points="163,-151 5,-151 5,-132 163,-132 163,-151"/>
<text text-anchor="middle" x="84" y="-139" font-family="Helvetica,sans-Serif" font-size="10.00">src/controller/CanvasController.h</text>
</a>
</g>
</g>
<!-- Node1&#45;&gt;Node2 -->
<g id="edge1" class="edge">
<title>Node1&#45;&gt;Node2</title>
<path fill="none" stroke="#63b8ff" d="M401.27,-347.1C346.63,-323.21 232.48,-269.75 148,-206 125.51,-189.03 103.01,-164.53 91.63,-151.48"/>
<polygon fill="#63b8ff" stroke="#63b8ff" points="399.74,-350.24 410.3,-351 402.52,-343.82 399.74,-350.24"/>
</g>
<!-- Node5 -->
<g id="node5" class="node">
<title>Node5</title>
<g id="a_node5"><a xlink:href="CanvasService_8h.html" target="_top" xlink:title=" ">
<polygon fill="white" stroke="#666666" points="516,-151 370,-151 370,-132 516,-132 516,-151"/>
<text text-anchor="middle" x="443" y="-139" font-family="Helvetica,sans-Serif" font-size="10.00">src/services/CanvasService.h</text>
</a>
</g>
</g>
<!-- Node1&#45;&gt;Node5 -->
<g id="edge4" class="edge">
<title>Node1&#45;&gt;Node5</title>
<path fill="none" stroke="#63b8ff" d="M433.93,-340.33C436.04,-294.31 441.14,-183.09 442.6,-151.19"/>
<polygon fill="#63b8ff" stroke="#63b8ff" points="430.44,-340.02 433.47,-350.17 437.43,-340.34 430.44,-340.02"/>
</g>
<!-- Node7 -->
<g id="node7" class="node">
<title>Node7</title>
<g id="a_node7"><a xlink:href="ICanvasService_8h.html" target="_top" xlink:title=" ">
<polygon fill="white" stroke="#666666" points="404.5,-261 255.5,-261 255.5,-242 404.5,-242 404.5,-261"/>
<text text-anchor="middle" x="330" y="-249" font-family="Helvetica,sans-Serif" font-size="10.00">src/services/ICanvasService.h</text>
</a>
</g>
</g>
<!-- Node1&#45;&gt;Node7 -->
<g id="edge7" class="edge">
<title>Node1&#45;&gt;Node7</title>
<path fill="none" stroke="#63b8ff" d="M416.72,-343.43C394.56,-320.19 355.7,-279.44 338.55,-261.46"/>
<polygon fill="#63b8ff" stroke="#63b8ff" points="414.09,-345.75 423.53,-350.57 419.16,-340.91 414.09,-345.75"/>
</g>
<!-- Node10 -->
<g id="node10" class="node">
<title>Node10</title>
<g id="a_node10"><a xlink:href="Canvas_8h.html" target="_top" xlink:title=" ">
<polygon fill="white" stroke="#666666" points="561,-316 461,-316 461,-297 561,-297 561,-316"/>
<text text-anchor="middle" x="511" y="-304" font-family="Helvetica,sans-Serif" font-size="10.00">src/types/Canvas.h</text>
</a>
</g>
</g>
<!-- Node1&#45;&gt;Node10 -->
<g id="edge14" class="edge">
<title>Node1&#45;&gt;Node10</title>
<path fill="none" stroke="#63b8ff" d="M455.53,-345.19C469.3,-335.84 486.41,-324.21 497.96,-316.36"/>
<polygon fill="#63b8ff" stroke="#63b8ff" points="453.79,-342.14 447.48,-350.66 457.72,-347.93 453.79,-342.14"/>
</g>
<!-- Node21 -->
<g id="node21" class="node">
<title>Node21</title>
<g id="a_node21"><a xlink:href="Shape_8cpp.html" target="_top" xlink:title=" ">
<polygon fill="white" stroke="#666666" points="684.5,-316 579.5,-316 579.5,-297 684.5,-297 684.5,-316"/>
<text text-anchor="middle" x="632" y="-304" font-family="Helvetica,sans-Serif" font-size="10.00">src/types/Shape.cpp</text>
</a>
</g>
</g>
<!-- Node1&#45;&gt;Node21 -->
<g id="edge32" class="edge">
<title>Node1&#45;&gt;Node21</title>
<path fill="none" stroke="#63b8ff" d="M477.61,-348.62C514.2,-338.87 565.21,-325.29 598.41,-316.45"/>
<polygon fill="#63b8ff" stroke="#63b8ff" points="476.98,-345.16 468.22,-351.12 478.78,-351.93 476.98,-345.16"/>
</g>
<!-- Node3 -->
<g id="node3" class="node">
<title>Node3</title>
<g id="a_node3"><a xlink:href="CanvasController_8cpp.html" target="_top" xlink:title=" ">
<polygon fill="white" stroke="#666666" points="168,-90.5 0,-90.5 0,-71.5 168,-71.5 168,-90.5"/>
<text text-anchor="middle" x="84" y="-78.5" font-family="Helvetica,sans-Serif" font-size="10.00">src/controller/CanvasController.cpp</text>
</a>
</g>
</g>
<!-- Node2&#45;&gt;Node3 -->
<g id="edge2" class="edge">
<title>Node2&#45;&gt;Node3</title>
<path fill="none" stroke="#63b8ff" d="M84,-120.66C84,-110.45 84,-98.54 84,-90.67"/>
<polygon fill="#63b8ff" stroke="#63b8ff" points="80.5,-120.35 84,-130.35 87.5,-120.35 80.5,-120.35"/>
</g>
<!-- Node4 -->
<g id="node4" class="node">
<title>Node4</title>
<g id="a_node4"><a xlink:href="main_8cpp.html" target="_top" xlink:title=" ">
<polygon fill="white" stroke="#666666" points="701,-24.5 629,-24.5 629,-5.5 701,-5.5 701,-24.5"/>
<text text-anchor="middle" x="665" y="-12.5" font-family="Helvetica,sans-Serif" font-size="10.00">src/main.cpp</text>
</a>
</g>
</g>
<!-- Node2&#45;&gt;Node4 -->
<g id="edge3" class="edge">
<title>Node2&#45;&gt;Node4</title>
<path fill="none" stroke="#63b8ff" d="M118.53,-127.79C164.41,-111.34 248.29,-82.8 322,-66 432.31,-40.86 565.58,-25.68 628.6,-19.39"/>
<polygon fill="#63b8ff" stroke="#63b8ff" points="117.62,-124.4 109.4,-131.08 120,-130.98 117.62,-124.4"/>
</g>
<!-- Node5&#45;&gt;Node4 -->
<g id="edge5" class="edge">
<title>Node5&#45;&gt;Node4</title>
<path fill="none" stroke="#63b8ff" d="M472.93,-126.87C490.06,-118.66 511.72,-107.57 530,-96 548.48,-84.31 550.56,-77.76 569,-66 594.35,-49.83 625.51,-34.34 645.32,-25"/>
<polygon fill="#63b8ff" stroke="#63b8ff" points="471.84,-123.51 464.28,-130.94 474.82,-129.85 471.84,-123.51"/>
</g>
<!-- Node6 -->
<g id="node6" class="node">
<title>Node6</title>
<g id="a_node6"><a xlink:href="CanvasService_8cpp.html" target="_top" xlink:title=" ">
<polygon fill="white" stroke="#666666" points="521.5,-90.5 364.5,-90.5 364.5,-71.5 521.5,-71.5 521.5,-90.5"/>
<text text-anchor="middle" x="443" y="-78.5" font-family="Helvetica,sans-Serif" font-size="10.00">src/services/CanvasService.cpp</text>
</a>
</g>
</g>
<!-- Node5&#45;&gt;Node6 -->
<g id="edge6" class="edge">
<title>Node5&#45;&gt;Node6</title>
<path fill="none" stroke="#63b8ff" d="M443,-120.66C443,-110.45 443,-98.54 443,-90.67"/>
<polygon fill="#63b8ff" stroke="#63b8ff" points="439.5,-120.35 443,-130.35 446.5,-120.35 439.5,-120.35"/>
</g>
<!-- Node7&#45;&gt;Node2 -->
<g id="edge8" class="edge">
<title>Node7&#45;&gt;Node2</title>
<path fill="none" stroke="#63b8ff" d="M281.52,-238.67C253.29,-230.99 217.4,-219.83 187,-206 152.2,-190.16 114.82,-164.75 96.12,-151.38"/>
<polygon fill="#63b8ff" stroke="#63b8ff" points="280.29,-241.97 290.86,-241.15 282.09,-235.2 280.29,-241.97"/>
</g>
<!-- Node7&#45;&gt;Node5 -->
<g id="edge9" class="edge">
<title>Node7&#45;&gt;Node5</title>
<path fill="none" stroke="#63b8ff" d="M347.54,-233.74C371.8,-210.55 414.73,-169.52 433.62,-151.46"/>
<polygon fill="#63b8ff" stroke="#63b8ff" points="345.15,-231.18 340.34,-240.62 349.99,-236.24 345.15,-231.18"/>
</g>
<!-- Node8 -->
<g id="node8" class="node">
<title>Node8</title>
<g id="a_node8"><a xlink:href="CanvasView_8h.html" target="_top" xlink:title=" ">
<polygon fill="white" stroke="#666666" points="315.5,-206 196.5,-206 196.5,-187 315.5,-187 315.5,-206"/>
<text text-anchor="middle" x="256" y="-194" font-family="Helvetica,sans-Serif" font-size="10.00">src/view/CanvasView.h</text>
</a>
</g>
</g>
<!-- Node7&#45;&gt;Node8 -->
<g id="edge10" class="edge">
<title>Node7&#45;&gt;Node8</title>
<path fill="none" stroke="#63b8ff" d="M308.24,-234.92C295.25,-225.61 279.22,-214.13 268.37,-206.36"/>
<polygon fill="#63b8ff" stroke="#63b8ff" points="306.05,-237.65 316.22,-240.63 310.12,-231.96 306.05,-237.65"/>
</g>
<!-- Node8&#45;&gt;Node2 -->
<g id="edge11" class="edge">
<title>Node8&#45;&gt;Node2</title>
<path fill="none" stroke="#63b8ff" d="M216.21,-183.24C184.68,-173.52 141.36,-160.18 113.03,-151.45"/>
<polygon fill="#63b8ff" stroke="#63b8ff" points="214.79,-186.46 225.38,-186.06 216.85,-179.77 214.79,-186.46"/>
</g>
<!-- Node8&#45;&gt;Node4 -->
<g id="edge12" class="edge">
<title>Node8&#45;&gt;Node4</title>
<path fill="none" stroke="#63b8ff" d="M283.54,-180.75C295.68,-173.16 309.35,-162.98 319,-151 344.74,-119.05 322.72,-91.32 355,-66 396.99,-33.07 556.02,-21.27 628.55,-17.53"/>
<polygon fill="#63b8ff" stroke="#63b8ff" points="281.95,-177.63 275.12,-185.73 285.51,-183.65 281.95,-177.63"/>
</g>
<!-- Node9 -->
<g id="node9" class="node">
<title>Node9</title>
<g id="a_node9"><a xlink:href="CanvasView_8cpp.html" target="_top" xlink:title=" ">
<polygon fill="white" stroke="#666666" points="310.5,-151 181.5,-151 181.5,-132 310.5,-132 310.5,-151"/>
<text text-anchor="middle" x="246" y="-139" font-family="Helvetica,sans-Serif" font-size="10.00">src/view/CanvasView.cpp</text>
</a>
</g>
</g>
<!-- Node8&#45;&gt;Node9 -->
<g id="edge13" class="edge">
<title>Node8&#45;&gt;Node9</title>
<path fill="none" stroke="#63b8ff" d="M252.25,-175.64C250.68,-167.31 248.93,-158.05 247.69,-151.44"/>
<polygon fill="#63b8ff" stroke="#63b8ff" points="248.77,-176.08 254.07,-185.26 255.65,-174.79 248.77,-176.08"/>
</g>
<!-- Node10&#45;&gt;Node7 -->
<g id="edge15" class="edge">
<title>Node10&#45;&gt;Node7</title>
<path fill="none" stroke="#63b8ff" d="M469.56,-293.36C436.34,-283.64 390.49,-270.21 360.55,-261.45"/>
<polygon fill="#63b8ff" stroke="#63b8ff" points="468.26,-296.63 478.84,-296.08 470.23,-289.91 468.26,-296.63"/>
</g>
<!-- Node11 -->
<g id="node11" class="node">
<title>Node11</title>
<g id="a_node11"><a xlink:href="Canvas_8cpp.html" target="_top" xlink:title=" ">
<polygon fill="white" stroke="#666666" points="571,-261 461,-261 461,-242 571,-242 571,-261"/>
<text text-anchor="middle" x="516" y="-249" font-family="Helvetica,sans-Serif" font-size="10.00">src/types/Canvas.cpp</text>
</a>
</g>
</g>
<!-- Node10&#45;&gt;Node11 -->
<g id="edge16" class="edge">
<title>Node10&#45;&gt;Node11</title>
<path fill="none" stroke="#63b8ff" d="M512.9,-285.35C513.68,-277.1 514.54,-267.97 515.16,-261.44"/>
<polygon fill="#63b8ff" stroke="#63b8ff" points="509.42,-284.96 511.97,-295.24 516.39,-285.61 509.42,-284.96"/>
</g>
<!-- Node12 -->
<g id="node12" class="node">
<title>Node12</title>
<g id="a_node12"><a xlink:href="Document_8h.html" target="_top" xlink:title=" ">
<polygon fill="white" stroke="#666666" points="754.5,-261 643.5,-261 643.5,-242 754.5,-242 754.5,-261"/>
<text text-anchor="middle" x="699" y="-249" font-family="Helvetica,sans-Serif" font-size="10.00">src/types/Document.h</text>
</a>
</g>
</g>
<!-- Node10&#45;&gt;Node12 -->
<g id="edge17" class="edge">
<title>Node10&#45;&gt;Node12</title>
<path fill="none" stroke="#63b8ff" d="M553.6,-293.49C588.13,-283.76 636.03,-270.25 667.27,-261.45"/>
<polygon fill="#63b8ff" stroke="#63b8ff" points="553.02,-290.02 544.35,-296.1 554.92,-296.75 553.02,-290.02"/>
</g>
<!-- Node13 -->
<g id="node13" class="node">
<title>Node13</title>
<g id="a_node13"><a xlink:href="DocumentsService_8cpp.html" target="_top" xlink:title=" ">
<polygon fill="white" stroke="#666666" points="751.5,-90.5 578.5,-90.5 578.5,-71.5 751.5,-71.5 751.5,-90.5"/>
<text text-anchor="middle" x="665" y="-78.5" font-family="Helvetica,sans-Serif" font-size="10.00">src/services/DocumentsService.cpp</text>
</a>
</g>
</g>
<!-- Node12&#45;&gt;Node13 -->
<g id="edge18" class="edge">
<title>Node12&#45;&gt;Node13</title>
<path fill="none" stroke="#63b8ff" d="M679.64,-233.66C672.32,-226.04 664.84,-216.41 661,-206 645.94,-165.18 657.14,-111.57 662.53,-90.78"/>
<polygon fill="#63b8ff" stroke="#63b8ff" points="677.19,-236.16 686.83,-240.56 682.04,-231.11 677.19,-236.16"/>
</g>
<!-- Node14 -->
<g id="node14" class="node">
<title>Node14</title>
<g id="a_node14"><a xlink:href="IDocumentsService_8h.html" target="_top" xlink:title=" ">
<polygon fill="white" stroke="#666666" points="836,-206 670,-206 670,-187 836,-187 836,-206"/>
<text text-anchor="middle" x="753" y="-194" font-family="Helvetica,sans-Serif" font-size="10.00">src/services/IDocumentsService.h</text>
</a>
</g>
</g>
<!-- Node12&#45;&gt;Node14 -->
<g id="edge19" class="edge">
<title>Node12&#45;&gt;Node14</title>
<path fill="none" stroke="#63b8ff" d="M716.04,-233.78C725.26,-224.72 736.29,-213.9 743.89,-206.44"/>
<polygon fill="#63b8ff" stroke="#63b8ff" points="713.68,-231.19 709,-240.69 718.59,-236.18 713.68,-231.19"/>
</g>
<!-- Node20 -->
<g id="node20" class="node">
<title>Node20</title>
<g id="a_node20"><a xlink:href="Document_8cpp.html" target="_top" xlink:title=" ">
<polygon fill="white" stroke="#666666" points="976,-206 854,-206 854,-187 976,-187 976,-206"/>
<text text-anchor="middle" x="915" y="-194" font-family="Helvetica,sans-Serif" font-size="10.00">src/types/Document.cpp</text>
</a>
</g>
</g>
<!-- Node12&#45;&gt;Node20 -->
<g id="edge31" class="edge">
<title>Node12&#45;&gt;Node20</title>
<path fill="none" stroke="#63b8ff" d="M746.66,-238.81C786.42,-229.05 842.27,-215.35 878.54,-206.45"/>
<polygon fill="#63b8ff" stroke="#63b8ff" points="745.99,-235.37 737.11,-241.15 747.66,-242.16 745.99,-235.37"/>
</g>
<!-- Node14&#45;&gt;Node5 -->
<g id="edge23" class="edge">
<title>Node14&#45;&gt;Node5</title>
<path fill="none" stroke="#63b8ff" d="M689.33,-184.61C632.12,-174.83 549.11,-160.64 495.59,-151.49"/>
<polygon fill="#63b8ff" stroke="#63b8ff" points="688.47,-188.02 698.92,-186.25 689.65,-181.12 688.47,-188.02"/>
</g>
<!-- Node15 -->
<g id="node15" class="node">
<title>Node15</title>
<g id="a_node15"><a xlink:href="DocumentsController_8h.html" target="_top" xlink:title=" ">
<polygon fill="white" stroke="#666666" points="1135.5,-96 1010.5,-96 1010.5,-66 1135.5,-66 1135.5,-96"/>
<text text-anchor="start" x="1018.5" y="-84" font-family="Helvetica,sans-Serif" font-size="10.00">src/controller/Documents</text>
<text text-anchor="middle" x="1073" y="-73" font-family="Helvetica,sans-Serif" font-size="10.00">Controller.h</text>
</a>
</g>
</g>
<!-- Node14&#45;&gt;Node15 -->
<g id="edge20" class="edge">
<title>Node14&#45;&gt;Node15</title>
<path fill="none" stroke="#63b8ff" d="M836.74,-184.96C895.21,-176.69 967.53,-164.37 995,-151 1022.15,-137.78 1047.07,-112.45 1061.12,-96.43"/>
<polygon fill="#63b8ff" stroke="#63b8ff" points="836.54,-181.46 827.12,-186.3 837.5,-188.39 836.54,-181.46"/>
</g>
<!-- Node17 -->
<g id="node17" class="node">
<title>Node17</title>
<g id="a_node17"><a xlink:href="DocumentsService_8h.html" target="_top" xlink:title=" ">
<polygon fill="white" stroke="#666666" points="833.5,-151 670.5,-151 670.5,-132 833.5,-132 833.5,-151"/>
<text text-anchor="middle" x="752" y="-139" font-family="Helvetica,sans-Serif" font-size="10.00">src/services/DocumentsService.h</text>
</a>
</g>
</g>
<!-- Node14&#45;&gt;Node17 -->
<g id="edge24" class="edge">
<title>Node14&#45;&gt;Node17</title>
<path fill="none" stroke="#63b8ff" d="M752.62,-175.35C752.46,-167.1 752.29,-157.97 752.17,-151.44"/>
<polygon fill="#63b8ff" stroke="#63b8ff" points="749.12,-175.3 752.81,-185.23 756.12,-175.17 749.12,-175.3"/>
</g>
<!-- Node18 -->
<g id="node18" class="node">
<title>Node18</title>
<g id="a_node18"><a xlink:href="DocumentsView_8h.html" target="_top" xlink:title=" ">
<polygon fill="white" stroke="#666666" points="986.5,-151 851.5,-151 851.5,-132 986.5,-132 986.5,-151"/>
<text text-anchor="middle" x="919" y="-139" font-family="Helvetica,sans-Serif" font-size="10.00">src/view/DocumentsView.h</text>
</a>
</g>
</g>
<!-- Node14&#45;&gt;Node18 -->
<g id="edge27" class="edge">
<title>Node14&#45;&gt;Node18</title>
<path fill="none" stroke="#63b8ff" d="M791.81,-183.11C822.2,-173.41 863.76,-160.14 890.98,-151.45"/>
<polygon fill="#63b8ff" stroke="#63b8ff" points="791.06,-179.67 782.6,-186.05 793.19,-186.34 791.06,-179.67"/>
</g>
<!-- Node15&#45;&gt;Node4 -->
<g id="edge22" class="edge">
<title>Node15&#45;&gt;Node4</title>
<path fill="none" stroke="#63b8ff" d="M999.12,-65.73C884.3,-46.23 761.19,-29.01 701.38,-20.88"/>
<polygon fill="#63b8ff" stroke="#63b8ff" points="998.26,-69.13 1008.71,-67.36 999.44,-62.23 998.26,-69.13"/>
</g>
<!-- Node16 -->
<g id="node16" class="node">
<title>Node16</title>
<g id="a_node16"><a xlink:href="DocumentsController_8cpp.html" target="_top" xlink:title=" ">
<polygon fill="white" stroke="#666666" points="1135.5,-30 1010.5,-30 1010.5,0 1135.5,0 1135.5,-30"/>
<text text-anchor="start" x="1018.5" y="-18" font-family="Helvetica,sans-Serif" font-size="10.00">src/controller/Documents</text>
<text text-anchor="middle" x="1073" y="-7" font-family="Helvetica,sans-Serif" font-size="10.00">Controller.cpp</text>
</a>
</g>
</g>
<!-- Node15&#45;&gt;Node16 -->
<g id="edge21" class="edge">
<title>Node15&#45;&gt;Node16</title>
<path fill="none" stroke="#63b8ff" d="M1073,-54.39C1073,-46.13 1073,-37.28 1073,-30.16"/>
<polygon fill="#63b8ff" stroke="#63b8ff" points="1069.5,-54.28 1073,-64.28 1076.5,-54.28 1069.5,-54.28"/>
</g>
<!-- Node17&#45;&gt;Node4 -->
<g id="edge25" class="edge">
<title>Node17&#45;&gt;Node4</title>
<path fill="none" stroke="#63b8ff" d="M760.19,-121.29C765.62,-105.35 770.07,-82.68 760,-66 747.19,-44.78 722.05,-32.11 700.85,-24.84"/>
<polygon fill="#63b8ff" stroke="#63b8ff" points="756.95,-119.95 756.61,-130.54 763.48,-122.47 756.95,-119.95"/>
</g>
<!-- Node17&#45;&gt;Node13 -->
<g id="edge26" class="edge">
<title>Node17&#45;&gt;Node13</title>
<path fill="none" stroke="#63b8ff" d="M729.47,-125.35C713.25,-114.44 691.93,-100.11 678.34,-90.97"/>
<polygon fill="#63b8ff" stroke="#63b8ff" points="727.28,-128.09 737.53,-130.77 731.19,-122.29 727.28,-128.09"/>
</g>
<!-- Node18&#45;&gt;Node4 -->
<g id="edge29" class="edge">
<title>Node18&#45;&gt;Node4</title>
<path fill="none" stroke="#63b8ff" d="M892.61,-126.28C858.22,-107.79 799.9,-76.62 778,-66 746.53,-50.75 709.33,-34.65 686.45,-24.96"/>
<polygon fill="#63b8ff" stroke="#63b8ff" points="890.65,-129.19 901.11,-130.85 893.97,-123.03 890.65,-129.19"/>
</g>
<!-- Node18&#45;&gt;Node15 -->
<g id="edge28" class="edge">
<title>Node18&#45;&gt;Node15</title>
<path fill="none" stroke="#63b8ff" d="M952.89,-127.63C977.15,-118.41 1009.84,-105.99 1034.99,-96.44"/>
<polygon fill="#63b8ff" stroke="#63b8ff" points="951.91,-124.25 943.8,-131.08 954.4,-130.8 951.91,-124.25"/>
</g>
<!-- Node19 -->
<g id="node19" class="node">
<title>Node19</title>
<g id="a_node19"><a xlink:href="DocumentsView_8cpp.html" target="_top" xlink:title=" ">
<polygon fill="white" stroke="#666666" points="992,-90.5 846,-90.5 846,-71.5 992,-71.5 992,-90.5"/>
<text text-anchor="middle" x="919" y="-78.5" font-family="Helvetica,sans-Serif" font-size="10.00">src/view/DocumentsView.cpp</text>
</a>
</g>
</g>
<!-- Node18&#45;&gt;Node19 -->
<g id="edge30" class="edge">
<title>Node18&#45;&gt;Node19</title>
<path fill="none" stroke="#63b8ff" d="M919,-120.66C919,-110.45 919,-98.54 919,-90.67"/>
<polygon fill="#63b8ff" stroke="#63b8ff" points="915.5,-120.35 919,-130.35 922.5,-120.35 915.5,-120.35"/>
</g>
</g>
</svg>
